<?xml version="1.0" standalone="no"?>
<!DOCTYPE svg PUBLIC "-//W3C//DTD SVG 20010904//EN"
 "http://www.w3.org/TR/2001/REC-SVG-20010904/DTD/svg10.dtd">
<svg version="1.0" xmlns="http://www.w3.org/2000/svg"
 width="700.000000pt" height="700.000000pt" viewBox="0 0 700.000000 700.000000"
 preserveAspectRatio="xMidYMid meet">
<metadata>
Created by potrace 1.14, written by Peter Selinger 2001-2017
</metadata>
<g transform="translate(0.000000,700.000000) scale(0.100000,-0.100000)"
fill="#000000" stroke="none">
<path d="M3221 6339 c-85 -26 -168 -100 -209 -187 -27 -57 -27 -59 -27 -282
l0 -226 25 -31 c14 -17 35 -37 47 -45 l23 -14 -38 -74 c-20 -41 -89 -154 -153
-250 -212 -320 -283 -468 -346 -715 -4 -16 -8 -356 -10 -755 -3 -800 -6 -752
63 -960 20 -58 39 -114 43 -125 5 -11 14 -33 21 -50 6 -16 22 -70 36 -120 21
-78 23 -106 20 -215 -2 -69 -7 -136 -10 -150 -3 -14 -10 -50 -16 -80 -6 -30
-26 -113 -45 -185 -55 -203 -93 -356 -102 -405 -10 -58 -10 -313 0 -365 42
-219 132 -372 253 -430 89 -42 206 -28 348 44 l91 46 63 -42 c143 -96 258 -96
406 1 l68 45 72 -39 c198 -108 331 -103 450 17 48 50 103 146 130 228 35 110
45 196 41 355 -4 175 -12 220 -98 520 -70 243 -84 319 -85 453 -1 121 17 200
108 462 84 246 80 199 79 979 0 696 -2 732 -37 867 -41 160 -143 352 -367 694
-83 126 -135 218 -135 237 0 7 14 22 30 33 52 35 58 67 57 305 -2 210 -3 216
-28 271 -33 69 -91 129 -161 166 l-53 28 -260 2 c-150 1 -274 -2 -294 -8z
m518 -268 c17 -17 20 -35 20 -160 l1 -141 -107 -1 c-161 -1 -270 -1 -346 0
l-68 1 2 141 c2 193 -19 179 259 179 204 0 221 -1 239 -19z m-45 -652 c25 -49
82 -147 127 -217 176 -273 205 -320 255 -418 90 -174 118 -268 129 -434 7
-103 7 -1234 0 -1292 -3 -26 -38 -140 -76 -255 -97 -284 -109 -346 -105 -508
4 -139 17 -208 96 -500 66 -244 88 -365 88 -497 1 -173 -35 -296 -105 -359
-47 -43 -76 -36 -253 61 -94 52 -114 50 -233 -31 -49 -32 -99 -59 -112 -59
-24 0 -75 19 -85 31 -3 3 -34 25 -68 49 -80 54 -118 58 -189 22 -158 -83 -199
-102 -216 -102 -46 0 -113 108 -141 230 -16 64 -17 308 -2 370 3 14 11 50 17
80 6 30 37 152 70 270 76 281 89 351 85 480 -2 58 -6 114 -9 125 -19 74 -34
125 -91 297 -36 106 -69 221 -75 254 -11 59 -16 1224 -6 1319 2 22 5 63 6 90
1 28 17 97 35 153 51 156 147 332 347 632 49 74 108 172 129 217 l40 82 148 0
148 0 46 -90z"/>
<path d="M3465 4443 c-73 -7 -163 -26 -234 -48 l-78 -25 0 -140 c0 -78 2 -139
6 -137 65 35 189 89 231 99 151 38 263 -12 263 -116 0 -63 -32 -112 -151 -228
-127 -124 -153 -168 -155 -261 l-2 -62 163 0 162 -1 0 41 c0 56 25 92 146 210
123 121 156 179 162 289 14 238 -133 370 -421 379 -34 1 -75 1 -92 0z"/>
<path d="M3342 3228 l3 -161 162 -1 163 -1 0 163 0 162 -165 0 -165 0 2 -162z"/>
</g>
</svg>
