<?xml version="1.0" encoding="UTF-8" standalone="no"?>
<svg
   xmlns:dc="http://purl.org/dc/elements/1.1/"
   xmlns:cc="http://creativecommons.org/ns#"
   xmlns:rdf="http://www.w3.org/1999/02/22-rdf-syntax-ns#"
   xmlns:svg="http://www.w3.org/2000/svg"
   xmlns="http://www.w3.org/2000/svg"
   width="1528.7072"
   height="158.81813"
   viewBox="0 0 404.47042 42.020632"
   version="1.1"
   id="svg8">
  <defs
     id="defs2" />
  <metadata
     id="metadata5">
    <rdf:RDF>
      <cc:Work
         rdf:about="">
        <dc:format>image/svg+xml</dc:format>
        <dc:type
           rdf:resource="http://purl.org/dc/dcmitype/StillImage" />
        <dc:title></dc:title>
      </cc:Work>
    </rdf:RDF>
  </metadata>
  <g
     id="layer1"
     transform="translate(140.29835,-107.6679)">
    <g
       id="g895">
      <g
         aria-label="WhoMadeMyDrink?"
         id="text835"
         style="font-style:normal;font-variant:normal;font-weight:500;font-stretch:normal;font-size:44.7028px;line-height:1.25;font-family:Quicksand;-inkscape-font-specification:'Quicksand, Medium';font-variant-ligatures:normal;font-variant-caps:normal;font-variant-numeric:normal;font-variant-east-asian:normal;fill:#000000;fill-opacity:1;stroke:none;stroke-width:1.11757">
        <path
           d="m -101.67514,109.3219 q 0.71525,0 1.29638,0.49173 0.625841,0.49173 0.625841,1.38579 0,0.31292 -0.08941,0.67054 l -9.521691,27.71574 q -0.17881,0.53643 -0.67054,0.84935 -0.44703,0.26822 -0.93876,0.31292 -0.53644,0 -1.02817,-0.26822 -0.49173,-0.31292 -0.75994,-0.89405 l -7.46537,-18.05993 0.35762,0.1341 -7.42066,17.92583 q -0.26822,0.58113 -0.75995,0.89405 -0.49173,0.26822 -1.02817,0.26822 -0.49173,-0.0447 -0.98346,-0.31292 -0.44703,-0.31292 -0.62584,-0.84935 l -9.52169,-27.71574 q -0.0894,-0.35762 -0.0894,-0.62584 0,-0.89405 0.62584,-1.38578 0.67054,-0.53644 1.34108,-0.53644 0.53644,0 1.02817,0.31292 0.49173,0.31292 0.67054,0.84935 l 8.35942,24.67595 h -0.62584 l 7.28656,-18.01523 q 0.22352,-0.53643 0.67054,-0.84935 0.44703,-0.31292 1.02817,-0.31292 0.53643,0 0.98346,0.31292 0.49173,0.31292 0.67054,0.84935 l 7.06304,17.74701 -0.53643,0.22352 8.31472,-24.63125 q 0.17881,-0.53643 0.67054,-0.84935 0.49173,-0.31292 1.07287,-0.31292 z"
           style="font-style:normal;font-variant:normal;font-weight:500;font-stretch:normal;font-size:44.7028px;font-family:Quicksand;-inkscape-font-specification:'Quicksand, Medium';font-variant-ligatures:normal;font-variant-caps:normal;font-variant-numeric:normal;font-variant-east-asian:normal;fill:#008080;stroke-width:1.11757"
           id="path848" />
        <path
           d="m -84.106956,117.279 q 2.950384,0 4.649091,1.29638 1.743409,1.25168 2.458654,3.39741 0.759947,2.10104 0.759947,4.6938 v 12.24857 q 0,0.75994 -0.536433,1.29638 -0.491731,0.53643 -1.251679,0.53643 -0.759947,0 -1.296381,-0.53643 -0.491731,-0.53644 -0.491731,-1.29638 v -12.24857 q 0,-1.69871 -0.49173,-3.03979 -0.491731,-1.38579 -1.654004,-2.19044 -1.11757,-0.84935 -3.084493,-0.84935 -1.832815,0 -3.35271,0.84935 -1.519896,0.80465 -2.413952,2.19044 -0.894056,1.34108 -0.894056,3.03979 v 12.24857 q 0,0.75994 -0.536433,1.29638 -0.491731,0.53643 -1.251679,0.53643 -0.759947,0 -1.296381,-0.53643 -0.491731,-0.53644 -0.491731,-1.29638 v -29.45915 q 0,-0.75995 0.491731,-1.25168 0.536434,-0.53643 1.296381,-0.53643 0.804651,0 1.296382,0.53643 0.49173,0.49173 0.49173,1.25168 v 13.36614 l -0.894056,0.98346 q 0.223514,-1.16227 0.983462,-2.32455 0.759948,-1.20697 1.92222,-2.14573 1.162273,-0.93876 2.592763,-1.47519 1.43049,-0.58114 2.995088,-0.58114 z"
           style="font-style:normal;font-variant:normal;font-weight:500;font-stretch:normal;font-size:44.7028px;font-family:Quicksand;-inkscape-font-specification:'Quicksand, Medium';font-variant-ligatures:normal;font-variant-caps:normal;font-variant-numeric:normal;font-variant-east-asian:normal;fill:#008080;stroke-width:1.11757"
           id="path850" />
        <path
           d="m -47.897714,129.12524 q 0,3.48682 -1.519895,6.21369 -1.519895,2.72687 -4.15736,4.29147 -2.592763,1.5646 -5.90077,1.5646 -3.263304,0 -5.90077,-1.5646 -2.592762,-1.5646 -4.15736,-4.29147 -1.519895,-2.72687 -1.519895,-6.21369 0,-3.48682 1.519895,-6.21369 1.564598,-2.72687 4.15736,-4.29147 2.637466,-1.56459 5.90077,-1.56459 3.308007,0 5.90077,1.56459 2.637465,1.5646 4.15736,4.29147 1.519895,2.72687 1.519895,6.21369 z m -3.576224,0 q 0,-2.59276 -1.072867,-4.55968 -1.028164,-1.96693 -2.860979,-3.0845 -1.788112,-1.11757 -4.067955,-1.11757 -2.23514,0 -4.067955,1.11757 -1.832815,1.11757 -2.905682,3.0845 -1.028164,1.96692 -1.028164,4.55968 0,2.54806 1.028164,4.51499 1.072867,1.96692 2.905682,3.12919 1.832815,1.11757 4.067955,1.11757 2.279843,0 4.067955,-1.11757 1.832815,-1.16227 2.860979,-3.12919 1.072867,-1.96693 1.072867,-4.51499 z"
           style="font-style:normal;font-variant:normal;font-weight:500;font-stretch:normal;font-size:44.7028px;font-family:Quicksand;-inkscape-font-specification:'Quicksand, Medium';font-variant-ligatures:normal;font-variant-caps:normal;font-variant-numeric:normal;font-variant-east-asian:normal;fill:#008080;stroke-width:1.11757"
           id="path852" />
        <path
           d="m -40.253564,109.41131 q 0.402325,0 0.849353,0.22351 0.491731,0.22352 0.759948,0.58114 l 11.846242,17.92582 -1.564598,-0.0447 11.98035,-17.88112 q 0.581137,-0.84936 1.519896,-0.80465 0.715244,0.0447 1.251678,0.53643 0.536434,0.49173 0.536434,1.29638 v 27.67104 q 0,0.75994 -0.536434,1.29638 -0.536434,0.53643 -1.341084,0.53643 -0.80465,0 -1.341084,-0.53643 -0.536434,-0.53644 -0.536434,-1.29638 v -24.27363 l 1.11757,0.22352 -10.549861,16.0483 q -0.268216,0.31292 -0.670542,0.53644 -0.357622,0.22351 -0.759947,0.22351 -0.402325,0 -0.804651,-0.22351 -0.402325,-0.22352 -0.670542,-0.53644 l -10.415752,-16.0483 0.938759,-1.16227 v 25.21238 q 0,0.75994 -0.491731,1.29638 -0.491731,0.53643 -1.251679,0.53643 -0.759947,0 -1.251678,-0.53643 -0.447028,-0.53644 -0.447028,-1.29638 v -27.67104 q 0,-0.71524 0.491731,-1.25168 0.536433,-0.58113 1.341084,-0.58113 z"
           style="fill:#ffffff"
           id="path854" />
        <path
           d="m 12.942736,117.41311 q 0.804651,0 1.296381,0.53643 0.491731,0.49173 0.491731,1.25168 v 19.71394 q 0,0.75994 -0.536433,1.29638 -0.491731,0.53643 -1.251679,0.53643 -0.759947,0 -1.296381,-0.53643 -0.491731,-0.53644 -0.491731,-1.29638 v -4.24677 l 0.849353,-0.0894 q 0,0.98347 -0.670542,2.14574 -0.670542,1.16227 -1.8328144,2.19044 -1.1622729,0.98346 -2.7268709,1.654 -1.564598,0.62584 -3.3974128,0.62584 -3.03979049,0 -5.4984445,-1.5646 -2.4139513,-1.6093 -3.7997381,-4.33617 -1.3857868,-2.72687 -1.3857868,-6.21369 0,-3.53152 1.3857868,-6.21369 1.4304896,-2.72687 3.7997381,-4.24677 2.41395121,-1.56459 5.4090389,-1.56459 1.9222204,0 3.576224,0.62584 1.6540037,0.62583 2.8609793,1.6987 1.2516784,1.07287 1.9222204,2.36925 0.670542,1.29638 0.670542,2.59276 l -1.162273,-0.26821 v -4.87261 q 0,-0.75995 0.491731,-1.25168 0.536434,-0.53643 1.296381,-0.53643 z m -9.2087767,20.47388 q 2.23514,0 3.9338464,-1.16227 1.7434093,-1.16227 2.7268713,-3.1292 0.983461,-2.01162 0.983461,-4.51498 0,-2.45865 -0.983461,-4.42558 -0.983462,-2.01162 -2.7268713,-3.12919 -1.6987064,-1.16228 -3.9338464,-1.16228 -2.1904373,0 -3.9338465,1.11757 -1.6987064,1.11757 -2.682168,3.0845 -0.9834617,1.96692 -0.9834617,4.51498 0,2.50336 0.9834617,4.51498 0.9834616,1.96693 2.682168,3.1292 1.7434092,1.16227 3.9338465,1.16227 z"
           style="fill:#ffffff"
           id="path856" />
        <path
           d="m 40.16672,107.6679 q 0.80465,0 1.296381,0.53643 0.491731,0.49173 0.491731,1.25168 v 29.45915 q 0,0.75994 -0.536434,1.29638 -0.49173,0.53643 -1.251678,0.53643 -0.759948,0 -1.296381,-0.53643 -0.491731,-0.53644 -0.491731,-1.29638 v -4.24677 l 0.849353,-0.31292 q 0,1.07287 -0.670542,2.27984 -0.625839,1.16228 -1.832815,2.19044 -1.162272,1.02816 -2.726871,1.69871 -1.564598,0.67054 -3.397412,0.67054 -3.039791,0 -5.453742,-1.5646 -2.413951,-1.5646 -3.844441,-4.29147 -1.385787,-2.72687 -1.385787,-6.21369 0,-3.53152 1.385787,-6.25839 1.43049,-2.72687 3.799738,-4.24677 2.413951,-1.56459 5.409039,-1.56459 1.877518,0 3.486818,0.62584 1.654004,0.62583 2.905683,1.6987 1.251678,1.07287 1.92222,2.36925 0.715245,1.29638 0.715245,2.59276 l -1.162273,-0.26821 v -14.61782 q 0,-0.75995 0.491731,-1.25168 0.536433,-0.53643 1.296381,-0.53643 z m -9.208777,30.21909 q 2.279843,0 3.978549,-1.11757 1.698707,-1.16227 2.682168,-3.12919 0.983462,-2.01163 0.983462,-4.51499 0,-2.54806 -0.983462,-4.51498 -0.983461,-1.96692 -2.72687,-3.08449 -1.698707,-1.16228 -3.933847,-1.16228 -2.190437,0 -3.933846,1.16228 -1.698707,1.11757 -2.682168,3.08449 -0.983462,1.96692 -0.983462,4.51498 0,2.45866 0.983462,4.47028 0.983461,1.96693 2.682168,3.1292 1.743409,1.16227 3.933846,1.16227 z"
           style="fill:#ffffff"
           id="path858" />
        <path
           d="m 59.031265,141.195 q -3.576224,0 -6.258392,-1.5199 -2.682168,-1.51989 -4.157361,-4.15736 -1.475192,-2.68217 -1.475192,-6.16898 0,-3.88915 1.519895,-6.61602 1.564598,-2.77157 4.023252,-4.20206 2.458654,-1.47519 5.230228,-1.47519 2.101031,0 3.978549,0.75994 1.92222,0.75995 3.397413,2.23514 1.519895,1.43049 2.413951,3.48682 0.894056,2.01163 0.938759,4.51499 -0.0447,0.71524 -0.581136,1.20697 -0.536434,0.49173 -1.251679,0.49173 H 49.151946 l -0.804651,-3.08449 h 17.210579 l -0.715245,0.62584 v -0.98346 q -0.134109,-1.83282 -1.206976,-3.1292 -1.028164,-1.34108 -2.548059,-2.05633 -1.519896,-0.71524 -3.173899,-0.71524 -1.341084,0 -2.682168,0.49173 -1.296382,0.44703 -2.369249,1.51989 -1.028164,1.02817 -1.654003,2.68217 -0.62584,1.654 -0.62584,3.97855 0,2.59276 1.028165,4.55969 1.072867,1.96692 2.950385,3.12919 1.877517,1.11757 4.336171,1.11757 1.609301,0 2.771574,-0.40232 1.162273,-0.40233 1.966923,-0.98347 0.849353,-0.62583 1.43049,-1.25167 0.581136,-0.40233 1.162273,-0.40233 0.625839,0 1.072867,0.44703 0.447028,0.44703 0.447028,1.07287 0,0.75994 -0.715245,1.34108 -1.296381,1.38579 -3.442116,2.45865 -2.101031,1.02817 -4.559685,1.02817 z"
           style="fill:#ffffff"
           id="path860" />
        <path
           d="m 76.241805,109.41131 q 0.402325,0 0.849353,0.22351 0.491731,0.22352 0.759948,0.58114 l 11.846242,17.92582 -1.564598,-0.0447 11.98035,-17.88112 q 0.58114,-0.84936 1.5199,-0.80465 0.71524,0.0447 1.25167,0.53643 0.53644,0.49173 0.53644,1.29638 v 27.67104 q 0,0.75994 -0.53644,1.29638 -0.53643,0.53643 -1.34108,0.53643 -0.80465,0 -1.34108,-0.53643 -0.536438,-0.53644 -0.536438,-1.29638 v -24.27363 l 1.117568,0.22352 -10.549859,16.0483 q -0.268216,0.31292 -0.670542,0.53644 -0.357622,0.22351 -0.759947,0.22351 -0.402325,0 -0.804651,-0.22351 -0.402325,-0.22352 -0.670542,-0.53644 l -10.415752,-16.0483 0.938759,-1.16227 v 25.21238 q 0,0.75994 -0.491731,1.29638 -0.491731,0.53643 -1.251679,0.53643 -0.759947,0 -1.251678,-0.53643 -0.447028,-0.53644 -0.447028,-1.29638 v -27.67104 q 0,-0.71524 0.491731,-1.25168 0.536433,-0.58113 1.341084,-0.58113 z"
           style="font-style:normal;font-variant:normal;font-weight:500;font-stretch:normal;font-size:44.7028px;font-family:Quicksand;-inkscape-font-specification:'Quicksand, Medium';font-variant-ligatures:normal;font-variant-caps:normal;font-variant-numeric:normal;font-variant-east-asian:normal;fill:#008080;stroke-width:1.11757"
           id="path862" />
        <path
           d="m 127.91822,117.279 q 0.75995,0 1.25168,0.53643 0.53643,0.49173 0.53643,1.25168 v 19.49042 q 0,3.75504 -1.47519,6.21369 -1.4752,2.50336 -3.97855,3.71034 -2.45866,1.20697 -5.58785,1.20697 -1.74341,0 -3.35271,-0.35762 -1.6093,-0.35762 -2.63747,-0.93876 -0.84935,-0.40233 -1.20697,-1.02816 -0.31292,-0.58114 -0.0894,-1.25168 0.31292,-0.80465 0.89406,-1.11757 0.62584,-0.31292 1.29638,0 0.71524,0.31292 2.05633,0.84935 1.38578,0.58114 3.08449,0.58114 2.32455,0 3.97855,-0.89406 1.654,-0.89406 2.54806,-2.63746 0.89406,-1.69871 0.89406,-4.24677 v -3.1739 l 0.53643,1.11757 q -0.71525,1.38579 -1.92222,2.41395 -1.20698,1.02817 -2.77157,1.6093 -1.5646,0.58114 -3.44212,0.58114 -2.54806,0 -4.33617,-1.07287 -1.74341,-1.11757 -2.68217,-3.03979 -0.89406,-1.96692 -0.89406,-4.51498 v -13.50025 q 0,-0.75995 0.49173,-1.25168 0.53644,-0.53643 1.29639,-0.53643 0.80465,0 1.29638,0.53643 0.49173,0.49173 0.49173,1.25168 v 12.6956 q 0,3.03979 1.34108,4.60439 1.34109,1.51989 4.15736,1.51989 1.78811,0 3.2186,-0.80465 1.4752,-0.80465 2.32455,-2.19044 0.89406,-1.43049 0.89406,-3.12919 v -12.6956 q 0,-0.75995 0.49173,-1.25168 0.49173,-0.53643 1.29638,-0.53643 z"
           style="font-style:normal;font-variant:normal;font-weight:500;font-stretch:normal;font-size:44.7028px;font-family:Quicksand;-inkscape-font-specification:'Quicksand, Medium';font-variant-ligatures:normal;font-variant-caps:normal;font-variant-numeric:normal;font-variant-east-asian:normal;fill:#008080;stroke-width:1.11757"
           id="path864" />
        <path
           d="m 149.91194,109.45601 q 3.26331,0 5.72196,1.25168 2.50336,1.20697 4.15736,3.39741 1.654,2.19044 2.45865,5.05142 0.84936,2.81627 0.84936,5.94547 0,4.29147 -1.4752,7.86769 -1.47519,3.53152 -4.38087,5.67726 -2.90568,2.10103 -7.33126,2.10103 h -11.1757 q -0.75995,0 -1.29638,-0.53643 -0.49173,-0.53644 -0.49173,-1.29638 v -27.67104 q 0,-0.75995 0.49173,-1.25168 0.53643,-0.53643 1.29638,-0.53643 z m -0.44703,27.80514 q 3.44212,0 5.58785,-1.654 2.19044,-1.65401 3.1739,-4.42558 1.02817,-2.77157 1.02817,-6.07958 0,-2.41395 -0.58114,-4.60439 -0.53643,-2.23514 -1.74341,-3.93384 -1.16227,-1.69871 -3.03979,-2.68217 -1.83281,-0.98346 -4.42558,-0.98346 h -9.16407 l 0.35762,-0.35763 v 25.16768 l -0.26822,-0.44703 z"
           style="fill:#ffffff"
           id="path866" />
        <path
           d="m 170.20696,140.74797 q -0.75995,0 -1.29638,-0.53643 -0.49173,-0.53644 -0.49173,-1.29638 v -19.49043 q 0,-0.75994 0.49173,-1.25167 0.53643,-0.53644 1.29638,-0.53644 0.80465,0 1.29638,0.53644 0.49173,0.49173 0.49173,1.25167 v 5.90077 l -0.53643,-0.93875 q 0.26821,-1.38579 0.93876,-2.68217 0.71524,-1.34109 1.78811,-2.36925 1.07287,-1.07287 2.45865,-1.654 1.38579,-0.62584 3.03979,-0.62584 0.98346,0 1.78811,0.49173 0.84936,0.44702 0.84936,1.29638 0,0.93876 -0.49173,1.38579 -0.49173,0.44702 -1.11757,0.44702 -0.58114,0 -1.11757,-0.22351 -0.53644,-0.26822 -1.34109,-0.26822 -1.11757,0 -2.23514,0.62584 -1.07286,0.58114 -2.01162,1.69871 -0.89406,1.11757 -1.4752,2.54806 -0.53643,1.38578 -0.53643,2.99509 v 10.86278 q 0,0.75994 -0.53643,1.29638 -0.49173,0.53643 -1.25168,0.53643 z"
           style="fill:#ffffff"
           id="path868" />
        <path
           d="m 189.78674,138.91516 q 0,0.75994 -0.53643,1.29638 -0.49173,0.53643 -1.25168,0.53643 -0.80465,0 -1.29638,-0.53643 -0.49173,-0.53644 -0.49173,-1.29638 v -19.84805 q 0,-0.75995 0.49173,-1.25168 0.53643,-0.53643 1.29638,-0.53643 0.75995,0 1.25168,0.53643 0.53643,0.49173 0.53643,1.25168 z m -1.78811,-24.63125 q -1.11757,0 -1.654,-0.44703 -0.53644,-0.44702 -0.53644,-1.38578 v -0.62584 q 0,-0.93876 0.58114,-1.38579 0.58114,-0.44703 1.654,-0.44703 1.07287,0 1.60931,0.44703 0.53643,0.44703 0.53643,1.38579 v 0.62584 q 0,0.93876 -0.58114,1.38578 -0.53643,0.44703 -1.6093,0.44703 z"
           style="fill:#ffffff"
           id="path870" />
        <path
           d="m 207.71249,117.05549 q 3.03979,0 4.7832,1.25167 1.74341,1.25168 2.45865,3.35271 0.75995,2.10104 0.75995,4.6938 v 12.56149 q 0,0.75994 -0.53643,1.29638 -0.49173,0.53643 -1.25168,0.53643 -0.75995,0 -1.29638,-0.53643 -0.49173,-0.53644 -0.49173,-1.29638 v -12.47209 q 0,-1.6987 -0.53644,-3.03979 -0.49173,-1.38578 -1.6987,-2.19043 -1.16228,-0.84936 -3.2186,-0.84936 -1.87752,0 -3.44212,0.84936 -1.5646,0.80465 -2.50336,2.19043 -0.93876,1.34109 -0.93876,3.03979 v 12.47209 q 0,0.75994 -0.53643,1.29638 -0.49173,0.53643 -1.25168,0.53643 -0.75995,0 -1.29638,-0.53643 -0.49173,-0.53644 -0.49173,-1.29638 v -19.49043 q 0,-0.75994 0.49173,-1.25167 0.53643,-0.53644 1.29638,-0.53644 0.80465,0 1.29638,0.53644 0.49173,0.49173 0.49173,1.25167 v 3.1739 l -0.89405,0.98347 q 0.22351,-1.16228 1.02816,-2.32455 0.80465,-1.20698 2.01163,-2.14573 1.20697,-0.93876 2.68217,-1.4752 1.47519,-0.58113 3.08449,-0.58113 z"
           style="fill:#ffffff"
           id="path872" />
        <path
           d="m 224.47602,140.74797 q -0.80465,0 -1.29638,-0.53643 -0.49173,-0.53644 -0.49173,-1.29638 v -29.45915 q 0,-0.75995 0.49173,-1.25168 0.49173,-0.53643 1.29638,-0.53643 0.75995,0 1.25168,0.53643 0.53643,0.49173 0.53643,1.25168 v 29.45915 q 0,0.75994 -0.53643,1.29638 -0.49173,0.53643 -1.25168,0.53643 z m 14.84133,-23.24546 q 0.71524,0 1.20697,0.58114 0.53644,0.53643 0.53644,1.11757 0,0.75995 -0.71525,1.34108 l -14.4837,12.6509 -0.13411,-4.15736 12.33797,-10.99689 q 0.53643,-0.53644 1.25168,-0.53644 z m 0.49173,23.20076 q -0.75995,0 -1.34108,-0.58114 l -9.5217,-10.14753 2.68217,-2.45866 9.43229,10.10283 q 0.53643,0.58114 0.53643,1.34109 0,0.80465 -0.62584,1.29638 -0.62584,0.44703 -1.16227,0.44703 z"
           style="fill:#ffffff"
           id="path874" />
        <path
           d="m 251.78939,125.99605 q 0,-0.75995 0.49173,-1.25168 0.53644,-0.53644 1.29638,-0.53644 1.96693,-0.0894 3.53152,-0.84935 1.5646,-0.80465 2.45866,-2.23514 0.93876,-1.47519 0.93876,-3.48682 0,-1.87752 -0.84936,-3.308 -0.80465,-1.43049 -2.23514,-2.23514 -1.38578,-0.80466 -3.12919,-0.80466 -1.65401,0 -3.0845,0.71525 -1.43048,0.71524 -2.45865,1.87752 -0.49173,0.49173 -1.16227,0.67054 -0.62584,0.17881 -1.29638,-0.26822 -0.75995,-0.53643 -0.84936,-1.25168 -0.0447,-0.75994 0.53644,-1.38578 1.47519,-1.78811 3.66563,-2.81628 2.19043,-1.07287 4.64909,-1.07287 2.72687,0 4.96201,1.25168 2.23514,1.25168 3.57622,3.48682 1.34109,2.19044 1.34109,5.14082 0,1.96693 -0.71525,3.62093 -0.67054,1.654 -1.92222,2.95038 -1.25168,1.25168 -2.90568,2.01163 -1.654,0.75995 -3.57622,0.93876 -0.13411,0 0,0 0.1341,-0.0447 0.26821,-0.13411 v 3.66563 q 0,0.75995 -0.49173,1.29638 -0.49173,0.53644 -1.25168,0.53644 -0.80465,0 -1.29638,-0.53644 -0.49173,-0.53643 -0.49173,-1.29638 z m 1.69871,14.75192 q -0.93876,0 -1.43049,-0.53643 -0.49173,-0.58114 -0.49173,-1.5199 v -0.89405 q 0,-0.93876 0.49173,-1.4752 0.49173,-0.53643 1.43049,-0.53643 h 0.40232 q 0.93876,0 1.43049,0.53643 0.49173,0.53644 0.49173,1.4752 v 0.89405 q 0,0.93876 -0.49173,1.5199 -0.49173,0.53643 -1.43049,0.53643 z"
           style="font-style:normal;font-variant:normal;font-weight:500;font-stretch:normal;font-size:44.7028px;font-family:Quicksand;-inkscape-font-specification:'Quicksand, Medium';font-variant-ligatures:normal;font-variant-caps:normal;font-variant-numeric:normal;font-variant-east-asian:normal;fill:#008080;stroke-width:1.11757"
           id="path876" />
      </g>
    </g>
  </g>
</svg>
