<?xml version="1.0" encoding="UTF-8" standalone="no"?>
<svg
   xmlns:dc="http://purl.org/dc/elements/1.1/"
   xmlns:cc="http://creativecommons.org/ns#"
   xmlns:rdf="http://www.w3.org/1999/02/22-rdf-syntax-ns#"
   xmlns:svg="http://www.w3.org/2000/svg"
   xmlns="http://www.w3.org/2000/svg"
   version="1.1"
   id="svg833"
   width="364.86148"
   height="111.53364"
   viewBox="0 0 364.86148 111.53364">
  <metadata
     id="metadata839">
    <rdf:RDF>
      <cc:Work
         rdf:about="">
        <dc:format>image/svg+xml</dc:format>
        <dc:type
           rdf:resource="http://purl.org/dc/dcmitype/StillImage" />
        <dc:title></dc:title>
      </cc:Work>
    </rdf:RDF>
  </metadata>
  <defs
     id="defs837" />
  <g
     id="g841"
     transform="translate(46.928715,36.314566)">
    <path
       id="rect5977"
       style="fill:#000000;stroke-width:20;stroke-linecap:round;stroke-linejoin:round"
       d="M 360.02539 0 C 359.8245 0.0021 357.60964 0.49493313 355.10352 1.0957031 C 345.36932 3.4291731 336.23253 9.2257422 333.54883 14.769531 C 332.13113 17.698111 331.612 22.977064 332.56641 24.771484 C 332.97825 25.545794 334.29142 26.49478 335.69141 27.03125 C 343.20814 29.91157 350.02433 25.826607 355.09766 15.398438 C 357.54302 10.372037 360.86498 -0.009 360.02539 0 z M 310.35742 8.0839844 L 310.26758 12.121094 C 310.21818 14.342544 310.15751 16.575561 310.13281 17.082031 C 310.10331 17.687241 310.64075 18.117824 311.70312 18.339844 C 316.14697 19.268524 323.24472 25.011769 327.39453 31.037109 C 328.50125 32.644009 329.63373 33.761549 329.9668 33.574219 C 331.57701 32.668559 332.44922 31.487034 332.44922 30.208984 C 332.44922 26.828084 324.48002 16.554024 318.39062 12.083984 C 316.91787 11.002874 314.5078 9.6591694 313.03516 9.0996094 L 310.35742 8.0839844 z M 342.04883 35.558594 C 333.30189 35.558594 326.75844 38.102039 321.19922 43.662109 C 316.10727 48.754799 313.5828 54.822493 313.5957 61.939453 C 313.6175 73.931083 322.41708 84.601424 334.75 87.589844 C 344.07095 89.848424 355.38664 86.806485 361.76758 80.328125 L 364.34766 77.708984 L 362.00391 75.550781 C 360.71456 74.363801 359.0534 72.903858 358.3125 72.304688 L 356.96484 71.214844 L 354.69336 73.076172 C 351.22221 75.918882 346.84391 77.704133 342.59961 78.007812 C 339.25881 78.246843 338.57988 78.110493 335.43945 76.564453 C 319.99778 68.962543 325.3484 45.556575 342.51562 45.609375 C 347.70763 45.625335 350.92003 46.886214 352.96484 49.708984 C 353.83192 50.905964 354.54102 52.455914 354.54102 53.152344 C 354.54102 53.848764 354.72857 54.417969 354.95703 54.417969 C 355.18546 54.417969 357.50742 52.272301 360.11719 49.650391 L 364.86133 44.882812 L 362.25977 42.589844 C 356.91404 37.874174 350.26055 35.558594 342.04883 35.558594 z M 128.36328 39.060547 L 129.61328 40.544922 C 130.30022 41.361312 131.01486 43.060259 131.20117 44.318359 C 131.38748 45.576459 131.46147 55.090451 131.36719 65.462891 C 131.21503 82.202561 131.09088 84.516245 130.25391 86.046875 C 129.73529 86.995305 128.88581 88.018243 128.36719 88.320312 C 127.70078 88.708462 130.25134 88.875119 137.0625 88.886719 L 146.69922 88.902344 L 145.31641 87.519531 C 144.49827 86.701401 143.69774 85.038032 143.35742 83.451172 C 142.61436 79.986362 142.5826 45.13473 143.32031 42.5625 C 143.61692 41.5283 144.34282 40.316714 144.93359 39.871094 C 145.90379 39.139274 145.15402 39.060547 137.18555 39.060547 L 128.36328 39.060547 z M 302.68555 39.060547 L 294.11523 39.222656 C 286.24363 39.370126 285.61665 39.452587 286.41211 40.248047 C 286.8884 40.724347 287.49994 41.697919 287.77148 42.412109 C 288.04301 43.126299 288.26562 52.661702 288.26562 63.601562 C 288.26562 85.047944 288.03958 86.986326 285.4043 88.259766 C 284.52308 88.685606 286.67576 88.839986 293.88086 88.867188 L 303.53906 88.902344 L 302.44336 87.691406 C 300.27358 85.293316 300.11914 83.619157 300.11914 62.460938 L 300.11914 42.107422 L 301.40234 40.583984 L 302.68555 39.060547 z M 158.94531 39.330078 L 158.94531 46.025391 L 158.94531 52.71875 L 160.53711 51.126953 L 162.12695 49.537109 L 169.29297 49.6875 L 176.45898 49.837891 L 176.61719 65.462891 C 176.80342 83.735021 176.65979 85.281657 174.56836 87.373047 L 173.03711 88.902344 L 182.56055 88.869141 C 188.93084 88.846301 191.67469 88.669801 190.84766 88.337891 C 188.28559 87.309661 188.04297 85.443979 188.04297 66.787109 L 188.04297 49.486328 L 195.63867 49.662109 L 203.23438 49.837891 L 204.52539 51.455078 L 205.81836 53.070312 L 205.82031 46.201172 L 205.82422 39.330078 L 182.38477 39.330078 L 158.94531 39.330078 z M 214.04883 39.330078 L 215.72852 41.119141 C 217.47585 42.979241 218.82141 45.958685 228.23242 68.828125 C 234.07255 83.020065 234.91001 85.830906 233.88086 87.753906 L 233.26562 88.902344 L 244.61328 88.902344 L 255.96094 88.902344 L 255.07422 87.552734 C 253.86303 85.704244 253.98926 85.305527 262.41211 64.117188 C 269.55662 46.144637 271.69759 41.666726 273.88477 40.134766 C 274.92327 39.407426 274.13013 39.330078 265.66992 39.330078 C 256.63286 39.330078 256.33856 39.365388 257.19922 40.316406 C 257.68969 40.858366 258.08984 41.934954 258.08984 42.708984 C 258.08984 44.693164 245.10595 76.582733 244.39453 76.345703 C 243.78464 76.142503 230.62223 43.398756 230.61523 42.066406 C 230.61323 41.645216 231.01148 40.858366 231.50195 40.316406 C 232.36255 39.365436 232.07274 39.330078 223.2207 39.330078 L 214.04883 39.330078 z M 20.701172 39.341797 C 1.2493919 39.353197 0.31642625 39.399197 1.4101562 40.285156 C 3.7073463 42.145916 3.7636719 42.723341 3.7636719 64.519531 C 3.7636719 84.856261 3.7306415 85.501644 2.6640625 86.646484 C 2.0598025 87.295084 1.3336481 87.826172 1.0488281 87.826172 C 0.76401812 87.826172 0.53125 88.077599 0.53125 88.386719 C 0.53125 88.770139 7.3389387 88.898736 21.949219 88.791016 L 43.367188 88.632812 L 45.681641 87.308594 C 49.904981 84.890194 52.844356 78.387916 51.947266 73.447266 C 51.166496 69.147296 48.366479 65.456551 44.792969 64.019531 L 42.984375 63.292969 L 45.041016 61.953125 C 53.036016 56.747985 52.149834 44.659408 43.464844 40.455078 C 41.231964 39.374138 40.339882 39.330297 20.701172 39.341797 z M 84.318359 39.376953 C 72.371429 39.389973 64.320251 39.591558 64.988281 39.861328 C 67.150631 40.734568 67.345703 42.774363 67.345703 64.507812 L 67.345703 85.214844 L 65.728516 86.830078 C 64.839456 87.719148 64.113281 88.550401 64.113281 88.675781 C 64.113281 88.801171 68.233444 88.902344 73.271484 88.902344 C 78.309534 88.902344 82.431641 88.701731 82.431641 88.457031 C 82.431641 88.212341 81.826826 87.444077 81.085938 86.748047 C 79.766565 85.508537 79.738281 85.318511 79.738281 77.494141 L 79.738281 69.505859 L 83.490234 69.505859 L 87.240234 69.505859 L 91.728516 75.835938 C 98.078286 84.793508 98.764044 86.006616 98.371094 87.572266 L 98.037109 88.902344 L 107.61328 88.867188 C 115.08998 88.838707 116.91165 88.698003 115.93164 88.226562 C 114.64937 87.609713 102.36914 71.205335 102.36914 70.109375 C 102.36914 69.776905 102.91523 69.503 103.58203 69.5 C 106.93977 69.48543 111.94675 65.842392 113.95898 61.951172 C 116.94749 56.172022 115.66021 47.808654 111.07812 43.226562 C 107.20431 39.352663 107.19529 39.351953 84.318359 39.376953 z M 79.738281 48.490234 L 88.916016 48.490234 C 98.801026 48.490234 100.93973 48.922857 102.56836 51.248047 C 103.91556 53.171437 103.70438 56.365932 102.125 57.945312 C 100.811 59.258902 100.73284 59.267578 90.269531 59.267578 L 79.738281 59.267578 L 79.738281 53.878906 L 79.738281 48.490234 z M 27.789062 48.564453 C 30.963321 48.557553 33.655141 48.635403 34.402344 48.771484 C 38.713714 49.556674 40.244671 54.122527 37.212891 57.154297 L 35.636719 58.728516 L 25.876953 58.728516 L 16.117188 58.728516 L 16.271484 53.744141 L 16.425781 48.759766 L 24.507812 48.601562 C 25.619145 48.579633 26.730978 48.566763 27.789062 48.564453 z M 16.15625 68.427734 L 25.638672 68.427734 C 36.013342 68.427734 38.087483 68.885686 39.251953 71.441406 C 40.632423 74.471216 39.608793 77.39553 36.626953 78.9375 C 35.419103 79.5621 32.948901 79.742188 25.613281 79.742188 L 16.15625 79.742188 L 16.15625 74.085938 L 16.15625 68.427734 z M 258.36914 96.939453 C 257.61583 96.939453 257.02876 97.078483 256.60742 97.359375 C 256.19247 97.633884 255.90231 97.996485 255.73633 98.443359 C 255.61503 98.775323 255.55469 99.281764 255.55469 99.964844 L 255.55469 101.04688 L 254.03125 101.04688 L 254.03125 102.38672 L 255.55469 102.38672 L 255.55469 111.2168 L 257.26758 111.2168 L 257.26758 102.38672 L 259.25 102.38672 L 259.25 101.04688 L 257.26758 101.04688 L 257.26758 100.10938 C 257.26758 99.496518 257.3767 99.076953 257.59375 98.853516 C 257.8108 98.630079 258.1816 98.519531 258.70508 98.519531 C 259.02428 98.519531 259.36125 98.551394 259.71875 98.615234 L 259.97852 97.111328 C 259.3912 96.996418 258.85431 96.939453 258.36914 96.939453 z M 294.38086 97.177734 L 294.38086 102.21484 C 294.08082 101.79989 293.69168 101.46434 293.21289 101.20898 C 292.73409 100.94724 292.18903 100.81641 291.57617 100.81641 C 290.73988 100.81641 289.98333 101.03803 289.30664 101.47852 C 288.62994 101.91901 288.12155 102.5529 287.7832 103.38281 C 287.44486 104.20634 287.27539 105.12558 287.27539 106.14062 C 287.27539 107.1812 287.46176 108.10383 287.83203 108.9082 C 288.20868 109.70619 288.73346 110.32852 289.41016 110.77539 C 290.09324 111.22227 290.84158 111.44727 291.65234 111.44727 C 292.90359 111.44727 293.85132 110.94225 294.49609 109.93359 L 294.49609 111.2168 L 296.0957 111.2168 L 296.0957 97.177734 L 294.38086 97.177734 z M 316.28516 97.177734 L 316.28516 99.160156 L 318.00977 99.160156 L 318.00977 97.177734 L 316.28516 97.177734 z M 342.49023 97.177734 L 342.49023 111.2168 L 344.21289 111.2168 L 344.21289 107.18555 L 345.42969 106.01758 L 348.79102 111.2168 L 350.91602 111.2168 L 346.63477 104.82031 L 350.52344 101.04688 L 348.29297 101.04688 L 344.21289 105.18359 L 344.21289 97.177734 L 342.49023 97.177734 z M 268.0918 97.494141 L 266.37695 98.529297 L 266.37695 101.04688 L 265.11328 101.04688 L 265.11328 102.38672 L 266.37695 102.38672 L 266.37695 108.23828 C 266.37695 109.27248 266.44744 109.95176 266.58789 110.27734 C 266.72834 110.59654 266.96972 110.85679 267.31445 111.05469 C 267.65919 111.25259 268.14586 111.35156 268.77148 111.35156 C 269.15452 111.35156 269.58709 111.29941 270.07227 111.19727 L 269.82422 109.67578 C 269.51141 109.72047 269.25987 109.74219 269.06836 109.74219 C 268.813 109.74219 268.61506 109.70018 268.47461 109.61719 C 268.34058 109.5342 268.2416 109.42365 268.17773 109.2832 C 268.12027 109.14276 268.0918 108.82555 268.0918 108.33398 L 268.0918 102.38672 L 269.82422 102.38672 L 269.82422 101.04688 L 268.0918 101.04688 L 268.0918 97.494141 z M 226.83203 100.81641 C 226.30216 100.81641 225.80392 100.8869 225.33789 101.02734 C 224.87825 101.16141 224.51422 101.32749 224.24609 101.52539 C 223.88859 101.78075 223.6052 102.10277 223.39453 102.49219 C 223.19024 102.87522 223.08789 103.29479 223.08789 103.74805 C 223.08789 104.24599 223.21196 104.70223 223.46094 105.11719 C 223.7163 105.52576 224.08709 105.84778 224.57227 106.08398 C 225.06383 106.31381 225.94106 106.58901 227.20508 106.9082 C 228.14351 107.14441 228.73059 107.33897 228.9668 107.49219 C 229.30514 107.71562 229.47461 108.02074 229.47461 108.41016 C 229.47461 108.84426 229.28342 109.2252 228.90039 109.55078 C 228.51736 109.86998 227.93028 110.0293 227.13867 110.0293 C 226.35345 110.0293 225.73932 109.84631 225.29883 109.48242 C 224.86472 109.11854 224.59967 108.59519 224.50391 107.91211 L 222.80078 108.18164 C 222.99229 109.26052 223.43163 110.07403 224.12109 110.62305 C 224.81694 111.17206 225.82502 111.44727 227.14648 111.44727 C 227.94448 111.44727 228.66096 111.30966 229.29297 111.03516 C 229.92498 110.75426 230.40631 110.36175 230.73828 109.85742 C 231.07663 109.34671 231.24609 108.80307 231.24609 108.22852 C 231.24609 107.64119 231.10849 107.14971 230.83398 106.75391 C 230.55948 106.3581 230.18049 106.0578 229.69531 105.85352 C 229.21652 105.64285 228.36582 105.37441 227.14648 105.04883 C 226.30381 104.81901 225.79737 104.67321 225.625 104.60938 C 225.32495 104.48808 225.10529 104.33552 224.96484 104.15039 C 224.8244 103.97164 224.75391 103.77031 224.75391 103.54688 C 224.75391 103.19576 224.92337 102.88869 225.26172 102.62695 C 225.60007 102.36521 226.16347 102.23438 226.95508 102.23438 C 227.62538 102.23438 228.14393 102.38212 228.50781 102.67578 C 228.87808 102.96944 229.10113 103.37691 229.17773 103.90039 L 230.86328 103.66992 C 230.75475 103.01238 230.55681 102.48903 230.26953 102.09961 C 229.98226 101.70381 229.53421 101.39193 228.92773 101.16211 C 228.32765 100.93229 227.63002 100.81641 226.83203 100.81641 z M 242.89258 100.81641 C 241.63494 100.81641 240.56795 101.19396 239.69336 101.94727 C 238.64639 102.85378 238.12305 104.24956 238.12305 106.13281 C 238.12305 107.85009 238.56095 109.16327 239.43555 110.07617 C 240.31653 110.98907 241.46896 111.44727 242.89258 111.44727 C 243.77994 111.44727 244.59683 111.23917 245.34375 110.82422 C 246.09705 110.40926 246.66917 109.82895 247.05859 109.08203 C 247.45439 108.32873 247.65234 107.29699 247.65234 105.98828 C 247.65234 104.37315 247.20767 103.10821 246.32031 102.19531 C 245.43295 101.27603 244.29066 100.81641 242.89258 100.81641 z M 308.00977 100.81641 C 307.60758 100.81641 307.23678 100.93229 306.89844 101.16211 C 306.56647 101.39193 306.20244 101.86651 305.80664 102.58789 L 305.80664 101.04688 L 304.25586 101.04688 L 304.25586 111.2168 L 305.98047 111.2168 L 305.98047 105.89258 C 305.98047 105.16481 306.07606 104.49372 306.26758 103.88086 C 306.39526 103.47867 306.60816 103.1668 306.9082 102.94336 C 307.20825 102.71354 307.54718 102.59766 307.92383 102.59766 C 308.34517 102.59766 308.76616 102.72368 309.1875 102.97266 L 309.78125 101.37305 C 309.18116 101.00278 308.5907 100.81641 308.00977 100.81641 z M 330.89062 100.81641 C 329.47978 100.81641 328.40122 101.375 327.6543 102.49219 L 327.6543 101.04688 L 326.10352 101.04688 L 326.10352 111.2168 L 327.82617 111.2168 L 327.82617 105.66211 C 327.82617 104.35979 328.09123 103.47579 328.62109 103.00977 C 329.15734 102.54374 329.79319 102.31055 330.52734 102.31055 C 330.98698 102.31055 331.38626 102.41628 331.72461 102.62695 C 332.06934 102.83124 332.30735 103.10982 332.44141 103.46094 C 332.57547 103.80567 332.64258 104.32902 332.64258 105.03125 L 332.64258 111.2168 L 334.36719 111.2168 L 334.36719 104.96289 C 334.36719 104.1649 334.33535 103.60631 334.27148 103.28711 C 334.16934 102.79555 333.98973 102.37117 333.73438 102.01367 C 333.47902 101.65617 333.09327 101.3694 332.57617 101.15234 C 332.06546 100.92891 331.50348 100.81641 330.89062 100.81641 z M 361.09766 100.81641 C 360.56779 100.81641 360.06954 100.8869 359.60352 101.02734 C 359.14388 101.16141 358.77985 101.32749 358.51172 101.52539 C 358.15422 101.78075 357.87082 102.10277 357.66016 102.49219 C 357.45587 102.87522 357.35352 103.29479 357.35352 103.74805 C 357.35352 104.24599 357.47759 104.70223 357.72656 105.11719 C 357.98192 105.52576 358.35271 105.84778 358.83789 106.08398 C 359.32945 106.31381 360.20668 106.58901 361.4707 106.9082 C 362.40914 107.14441 362.99622 107.33897 363.23242 107.49219 C 363.57077 107.71562 363.74023 108.02074 363.74023 108.41016 C 363.74023 108.84426 363.54905 109.2252 363.16602 109.55078 C 362.78298 109.86998 362.1959 110.0293 361.4043 110.0293 C 360.61908 110.0293 360.00494 109.84631 359.56445 109.48242 C 359.13035 109.11854 358.86529 108.59519 358.76953 107.91211 L 357.06641 108.18164 C 357.25793 109.26052 357.69726 110.07403 358.38672 110.62305 C 359.08257 111.17206 360.09259 111.44727 361.41406 111.44727 C 362.21206 111.44727 362.92659 111.30966 363.55859 111.03516 C 364.1906 110.75426 364.67194 110.36175 365.00391 109.85742 C 365.34225 109.34671 365.51172 108.80307 365.51172 108.22852 C 365.51172 107.64119 365.37412 107.14971 365.09961 106.75391 C 364.8251 106.3581 364.44612 106.0578 363.96094 105.85352 C 363.48214 105.64285 362.63339 105.37441 361.41406 105.04883 C 360.57138 104.81901 360.06298 104.67321 359.89062 104.60938 C 359.59058 104.48808 359.37092 104.33552 359.23047 104.15039 C 359.09002 103.97164 359.01953 103.77031 359.01953 103.54688 C 359.01953 103.19576 359.189 102.88869 359.52734 102.62695 C 359.86569 102.36521 360.43105 102.23438 361.22266 102.23438 C 361.89297 102.23438 362.40955 102.38212 362.77344 102.67578 C 363.1437 102.96944 363.36675 103.37691 363.44336 103.90039 L 365.12891 103.66992 C 365.02038 103.01238 364.82243 102.48903 364.53516 102.09961 C 364.24788 101.70381 363.80179 101.39193 363.19531 101.16211 C 362.59523 100.93229 361.89564 100.81641 361.09766 100.81641 z M 316.28516 101.04688 L 316.28516 111.2168 L 318.00977 111.2168 L 318.00977 101.04688 L 316.28516 101.04688 z M 242.89258 102.24414 C 243.74164 102.24414 244.4494 102.56954 245.01758 103.2207 C 245.59213 103.86548 245.88086 104.81659 245.88086 106.07422 C 245.88086 107.40846 245.59552 108.40157 245.02734 109.05273 C 244.45918 109.70389 243.74802 110.0293 242.89258 110.0293 C 242.03075 110.0293 241.31621 109.70728 240.74805 109.0625 C 240.17987 108.41134 239.89453 107.43513 239.89453 106.13281 C 239.89453 104.83049 240.17987 103.85571 240.74805 103.21094 C 241.31621 102.56616 242.03075 102.24414 242.89258 102.24414 z M 291.73828 102.24414 C 292.5235 102.24414 293.18445 102.56954 293.7207 103.2207 C 294.25695 103.87186 294.52539 104.89346 294.52539 106.28516 C 294.52539 107.54917 294.26034 108.49014 293.73047 109.10938 C 293.20699 109.72223 292.56775 110.0293 291.81445 110.0293 C 291.06753 110.0293 290.42011 109.70728 289.87109 109.0625 C 289.32208 108.41772 289.04688 107.44294 289.04688 106.14062 C 289.04687 104.79362 289.30179 103.80726 289.8125 103.18164 C 290.32959 102.55602 290.97221 102.24414 291.73828 102.24414 z M 0.53125 105.06836 L 0.53125 107.76172 L 212.82812 107.76172 L 212.82812 105.06836 L 0.53125 105.06836 z "
       transform="translate(-46.928715,-36.314566)" />
  </g>
</svg>
