<svg version="1.1" id="header-logo" xmlns="http://www.w3.org/2000/svg" xmlns:xlink="http://www.w3.org/1999/xlink" x="0px" y="0px" viewBox="0 0 101 45" style="enable-background:new 0 0 101 45;" xml:space="preserve"> <g> <path class="header-logo-0" d="M18.3,16.2L20,6.1h0l1.7,10.2H18.3z M22.3,0.6h-4.4l-4.5,25.1h3.3l1-5.7h4.7l0.9,5.7h3.3L22.3,0.6z M27.1,0.6
 h3.2L32.7,17h0l2.5-16.4h3.3L41,17h0l2.4-16.4h3.2l-3.9,25.1h-3.3L36.9,8.6h0l-2.7,17.2h-3.3L27.1,0.6z M72.5,0.6v4.1h-4v21H65V4.9
 h-4V0.6H72.5z M88.8,25.7V0.6h3.8l4.8,14.9h0V0.6h3.1v25.1h-3.3L92,9.5h-0.1v16.2H88.8z M56.4,7.6c-0.6-2.4-1.3-3.4-2.5-3.4
 c-1.2,0-1.9,1-1.9,2.7c0,3.8,7.7,4.1,7.7,11.9c0,4.3-2.1,7.2-5.7,7.2C51.1,26.1,49,24,48,19l3.4-1c0.4,3,1.6,4.1,2.7,4.1
 c1.2,0,2.1-1.1,2.1-3c0-4.7-7.7-4.8-7.7-11.8c0-4.3,1.8-7,5.4-7c3.1,0,4.9,2.5,5.5,6.1L56.4,7.6z M77.6,18.3c0,2.8,0.9,3.5,2.2,3.5
 c1.4,0,2.2-0.8,2.2-3.5V8.1c0-2.8-0.9-3.5-2.2-3.5c-1.4,0-2.2,0.8-2.2,3.5V18.3z M74.2,8.7c0-6.2,2.3-8.4,5.7-8.4s5.7,2.2,5.7,8.4
 v9c0,6.2-2.3,8.4-5.7,8.4s-5.7-2.2-5.7-8.4V8.7z M3.9,18.3c0,2.8,0.9,3.5,2.2,3.5c1.4,0,2.2-0.8,2.2-3.5v-1.7h3.4v1
 c0,6.2-2.3,8.4-5.7,8.4c-3.3,0-5.7-2.2-5.7-8.4v-9c0-6.2,2.3-8.4,5.7-8.4c3.3,0,5.7,2.2,5.7,8.4v0.1H8.4V8.1c0-2.8-0.9-3.5-2.2-3.5
 c-1.4,0-2.2,0.8-2.2,3.5V18.3z M70.9,33.4c-0.6-0.5-1.3-0.9-2-0.9c-0.9,0-1.4,0.5-1.4,1.4c0,2.3,4.3,2.5,4.3,6.3
 c0,2.5-1.5,4.5-4.1,4.5c-0.8,0-1.8-0.2-2.4-0.7v-2.7c0.7,0.5,1.3,0.8,2.1,0.8c0.9,0,1.6-0.6,1.6-1.6c0-1.1-0.9-1.5-1.7-2.1
 c-1.6-1.1-2.6-2.2-2.6-4.2c0-2.3,1.3-4.2,3.7-4.2c0.9,0,1.7,0.2,2.5,0.7V33.4z M62.8,33.4c-0.6-0.5-1.3-0.9-2-0.9
 c-0.9,0-1.4,0.5-1.4,1.4c0,2.3,4.3,2.5,4.3,6.3c0,2.5-1.5,4.5-4.1,4.5c-0.8,0-1.8-0.2-2.4-0.7v-2.7c0.7,0.5,1.3,0.8,2.1,0.8
 c0.9,0,1.6-0.6,1.6-1.6c0-1.1-0.9-1.5-1.7-2.1c-1.6-1.1-2.6-2.2-2.6-4.2c0-2.3,1.3-4.2,3.7-4.2c0.9,0,1.7,0.2,2.5,0.7V33.4z
 M54.6,30.2v2.7h-2.9V36h2.5v2.7h-2.5v3.2h2.9v2.7h-5.7V30.2H54.6z M41.6,36.3l0.5,0c1.3,0,1.8-0.9,1.8-2c0-1-0.5-1.9-1.9-1.8h-0.4
 V36.3z M38.8,44.5V30.2h2.8c1.8,0,5,0.2,5,4.1c0,1.6-0.6,2.9-2,3.7l2.5,6.5h-3l-2.5-6.6h0v6.6H38.8z M32.2,36.3
 c1.4,0.1,2.1-0.5,2.1-1.9c0-1-0.4-1.9-1.6-1.9h-0.5V36.3z M29.5,44.5V30.2h2.9c0.6,0,4.9-0.4,4.9,4.2c0,2.7-1.7,4.2-4.3,4.2l-0.6,0
 v5.9L29.5,44.5L29.5,44.5z M21.1,32.9v3.2H0.5v2.4h20.6v3.2H25v-8.8H21.1z M75.4,32.9v8.8h3.9v-3.2h21.2v-2.4H79.3v-3.2H75.4z"></path> </g> </svg>