<svg xmlns="http://www.w3.org/2000/svg" viewBox="0 0 79.47 47.55"><defs><style>.a{fill:#fff;}</style></defs><title>Asset 1</title><path class="a" d="M26.58,26.59h0a0,0,0,0,1,0,0h0v0ZM49,34.31l0,0h0ZM26.54,26.62h0s0,0,0,0,0,0,0,0Zm7.62,2h0Zm-5,5.07s0,0,0,0h0v0ZM49,34.31v0h0v0l0,0v0ZM27.76,21.79h0v0Zm0,.05h0l0,0h0Zm22.82-4.55a.73.73,0,0,0,.05-.12h0a.12.12,0,0,0-.11,0l-.1.11,0,0C50.51,17.37,50.54,17.35,50.58,17.29ZM26,25.38v.06h0s0,0,0,0Zm8.2,3.2a0,0,0,0,1,0,0h0v0a0,0,0,0,0,0,0S34.22,28.58,34.21,28.58Zm-5,5.08Zm7-25.5v0h0s0,0,0,0v0Zm-2.91.15h0Zm18.5,11.61h0a.07.07,0,0,0,0,0s0,0,0,0h0l0,0,0,0,0,0Zm-2.57-6.47h0l0,0a.06.06,0,0,0,.06,0Zm-13.1.94a.11.11,0,0,0,0,.07h.07l0,0h-.07Zm0,.07Zm-2.8-6.23Zm3.81,4.6a.4.4,0,0,0,.07.13l.08,0h0a.29.29,0,0,0,0-.16.33.33,0,0,1,0-.14.78.78,0,0,1,0-.14.27.27,0,0,0,0-.15s0,0-.1,0h0a.18.18,0,0,0-.1,0c-.09.11-.13.2-.07.31A.3.3,0,0,1,37.14,12.83Zm12,2s0,0,0,0l0,0h0v0a0,0,0,0,1,0,0S49.17,14.81,49.17,14.82ZM32.55,7.67l0,0-.07,0,0,0,0,0ZM51,19.65h0s0,0,0,0h0s0,0,0-.05Zm0,.05h0ZM36.23,8.22a0,0,0,0,0,0,0s0,0,0,0h0Zm-7,25.43v0h0s0,0,0,0Zm.59-5.51,0,.05h0a.34.34,0,0,0,.2-.19.74.74,0,0,1,.33-.35s0,0,0,0l0,0a.13.13,0,0,0,0-.09l-.13-.2-.06-.1v0a.73.73,0,0,1,.31-.39l.14-.12.06-.25-.06-.11-.13.27h-.27l-.05.06a3,3,0,0,0-.28.34.21.21,0,0,0,0,.28l0,0a.42.42,0,0,1,0,.54A.69.69,0,0,0,29.83,28.14ZM34.54,23l0,0,0,0Zm-4.67,3.32h-.11a5.08,5.08,0,0,0-.4.32s0,0,0,.15,0,0,0,0c.19-.16.36-.29.5-.42v0h0Zm16.3,1.21v0h0a.32.32,0,0,0-.12.14c.06,0,.11,0,.13,0a.14.14,0,0,0,0-.09Zm8,4.06h0v0a.08.08,0,0,0,0,0ZM31.67,10.93s0,0,0,0l0,0v0a.07.07,0,0,0,.06,0Zm-7.9,7.57a.51.51,0,0,1,.17,0,.66.66,0,0,1,.35.11l.06.05.13.08.17,0a.17.17,0,0,0,.14-.09s0,0,0,0h0a.35.35,0,0,1-.25-.2.09.09,0,0,0,0-.06.43.43,0,0,1,0-.07A.36.36,0,0,0,24,18a.25.25,0,0,1-.2-.05.27.27,0,0,1-.07-.19.3.3,0,0,0-.16-.3l-.08-.05c-.06-.05-.09-.06-.11-.05s0,0,0,.13a.41.41,0,0,1,0,.11v.15a.28.28,0,0,1,0,.09.55.55,0,0,1-.3.55s0,0,0,0v0A1.6,1.6,0,0,0,23.77,18.5Zm9.29,18.69s0,0,0,0a.19.19,0,0,0,0-.08V37c0-.07,0-.11,0-.11h0a.17.17,0,0,0-.13.08.22.22,0,0,0,0,.23A.11.11,0,0,0,33.06,37.19Zm6.39-17.65,0,0h-.05s0,0,0,.06a.11.11,0,0,0,0,.06c0,.15,0,.27,0,.39s0,.05.07.05.05,0,.06-.06l0-.22v-.05Zm-9.24,4.13h-.06l0,0a.3.3,0,0,0,.07.21.31.31,0,0,0,.18.13.3.3,0,0,0,.14-.17s0-.05,0-.06Zm4-2.34a.14.14,0,0,0-.12.05s0,0,0,0h.06l.07,0a0,0,0,0,0,0,0S34.18,21.32,34.17,21.33ZM41.4,37.09l0,0-.05,0,0,0,0,0a.38.38,0,0,0-.09.09,2,2,0,0,0-.14.25l-.18.29a.16.16,0,0,1-.17.08.2.2,0,0,1-.18-.12.67.67,0,0,1-.06-.12l-.06-.14a.15.15,0,0,0-.09-.06.14.14,0,0,0-.11.06h0l-.08.12,0,.1s0,.06,0,.08a.1.1,0,0,1-.12,0h0a.27.27,0,0,0-.22,0h0v0a.18.18,0,0,0-.05.07,2.09,2.09,0,0,1-.14.17.34.34,0,0,1-.29.13.14.14,0,0,1-.11,0A.08.08,0,0,1,39,38c0-.1,0-.19,0-.28a1.55,1.55,0,0,1,.07-.43.33.33,0,0,0,0-.3.31.31,0,0,0-.24-.17.46.46,0,0,1-.3-.2.17.17,0,0,0-.15-.07h0a.24.24,0,0,0-.18.14v0a.85.85,0,0,0-.06.45.14.14,0,0,1,0,.15l-.08.09-.22.22h0a1.15,1.15,0,0,1-.09-.33c0-.05,0-.11,0-.17l0-.09-.08,0,0,0a.17.17,0,0,0-.1.07,1.74,1.74,0,0,0-.14.38.19.19,0,0,1,0,.08s0,0,0,0a.28.28,0,0,1-.07-.09s0,0,0,0a.18.18,0,0,0-.11-.15l0,0,0,0,0,0-.1.08s0,0,0,0a3.08,3.08,0,0,1-.14-.7.34.34,0,0,0-.05-.14v0a.13.13,0,0,0-.07-.05.22.22,0,0,0-.17.06,1.36,1.36,0,0,0-.49.69.92.92,0,0,1-.1.2.12.12,0,0,1-.08,0,.08.08,0,0,1-.08,0l-.13-.12-.07-.07a.18.18,0,0,0-.16,0,.21.21,0,0,0-.13.09.19.19,0,0,1,0,.07c0,.13,0,.14-.09.14s-.09,0-.14-.15l0-.08,0-.1a.45.45,0,0,0-.35-.28l-.14,0-.08,0h0a.27.27,0,0,0-.17.12v0c-.09.11-.19.22-.29.32s-.11,0-.19,0l0,0a.22.22,0,0,1,.05-.08.4.4,0,0,0,.07-.2.49.49,0,0,0-.31-.54L33,36.49a1.14,1.14,0,0,0-.46-.16.12.12,0,0,1-.09-.11l0-.12s0-.08,0-.11a.15.15,0,0,0-.09-.1.2.2,0,0,0-.15,0,.33.33,0,0,0-.12.42l0,.07,0,.07a.34.34,0,0,1-.15.27h-.07s0,0,0,0a1,1,0,0,1-.07-.2v0a.56.56,0,0,0-.17-.42.16.16,0,0,1,0-.06s0,0,0,0c-.12-.24-.13-.3.08-.52a.31.31,0,0,0,.07-.38l-.15-.3a.3.3,0,0,0-.35-.18.23.23,0,0,0-.23.22,1.06,1.06,0,0,0,0,.25,2.38,2.38,0,0,0,.11.38.34.34,0,0,1,0,.31,1.09,1.09,0,0,0-.08.15l-.08.15a.11.11,0,0,1-.1.05s-.05,0-.08-.08h0a.08.08,0,0,1,0,0,2.24,2.24,0,0,0-.15-.81l0-.06a.5.5,0,0,1,0-.38.78.78,0,0,0,0-.21,1.1,1.1,0,0,1,.08-.4.51.51,0,0,0,0-.3h0l0,0v0a.12.12,0,0,0,0-.1s0,0-.07,0-.07,0-.11.07H30.5l0,.06v0l-.12.11a.67.67,0,0,0-.19.33.28.28,0,0,1-.09.18.67.67,0,0,0-.12.24,2.15,2.15,0,0,1-.24.51l-.05.09s0,0-.05,0a.21.21,0,0,1-.11,0l-.09-.11a.32.32,0,0,0-.19-.17l-.2-.06-.12,0v0l.09-.15,0-.09v0a.5.5,0,0,1,0-.12,2.5,2.5,0,0,1,0-.29,1.37,1.37,0,0,0-.07-.29l0-.09a.75.75,0,0,1,0-.26v-.11s0-.09.09-.15l.05,0,0,0a.32.32,0,0,0,.13-.37.41.41,0,0,0-.17-.29.6.6,0,0,1-.13-.09l0,0s0,0,0-.11l0-.18c.05-.16.09-.32.13-.48l0-.13s0,0,0-.06a.2.2,0,0,1,0-.11,1.9,1.9,0,0,0,.18-.52l.05-.1,0-.06s.05-.1.1-.11a.22.22,0,0,1,.14.05l.11.09a1,1,0,0,1,.31.33.41.41,0,0,0,.14.12l0,0,.08.06a1.33,1.33,0,0,1,.41.37.4.4,0,0,0,.25.15l.16.06a.24.24,0,0,1,.13.13s0,.06,0,.09l0,.1a.25.25,0,0,0,.16.19.27.27,0,0,0,.29,0l0,0v0a.65.65,0,0,0-.15-.34.29.29,0,0,1-.06-.33.7.7,0,0,0,.06-.19.84.84,0,0,1,.13-.29.38.38,0,0,0,.06-.13.14.14,0,0,1,0-.06.52.52,0,0,1,.07-.15l.07-.06a.46.46,0,0,0,.12-.12.54.54,0,0,1,.54-.28,1.68,1.68,0,0,1,.5.07.14.14,0,0,1,0,.06.09.09,0,0,1,0,.09.08.08,0,0,1-.05.05l-.31,0H32.6a1.89,1.89,0,0,0-.55.65l0,.09a.34.34,0,0,0,0,.31l.06.1a1.86,1.86,0,0,1,.14.37.25.25,0,0,0,.1.16.53.53,0,0,1,.13.26.16.16,0,0,0,.1.13.16.16,0,0,0,.15,0,.33.33,0,0,1,.22-.08H33a.76.76,0,0,1,.37.06.34.34,0,0,0,.17,0h.27a1.94,1.94,0,0,0,.75.1h.34a1,1,0,0,1,.3,0,1.2,1.2,0,0,0,.36.05h1.9a1.56,1.56,0,0,0,.46-.07.85.85,0,0,1,.23,0h.18a.42.42,0,0,0,.22,0,.83.83,0,0,1,.38-.07,1.1,1.1,0,0,0,.26,0l.23,0a1.94,1.94,0,0,1,.33-.07h0l0,0a.63.63,0,0,1,.27-.1l.16,0,.42-.15a2.52,2.52,0,0,1,.29-.12,4.63,4.63,0,0,0,.64-.29l.06,0a1.38,1.38,0,0,0,.69-.26h0c.17-.1.34-.18.51-.26a1.9,1.9,0,0,0,.72-.53l.06-.06,0,0,.35-.05,0,0a1.88,1.88,0,0,1,.44-.4l.31-.25,0,0,.12-.06.27-.15.18-.16.15-.13a2.86,2.86,0,0,0,.68-.71.05.05,0,0,0,0,0l0,0a3.58,3.58,0,0,0,.54-.77.2.2,0,0,1,.18-.1.55.55,0,0,1,.18,0,.11.11,0,0,1,.1.05s0,.08,0,.14a1,1,0,0,1-.08.14.47.47,0,0,0-.06.09.24.24,0,0,0,0,.26l.06.1,0,.07a.15.15,0,0,1,0,.15.39.39,0,0,0,0,.44.33.33,0,0,1,0,.13l0,.14.11.4,0-.54c0-.07,0-.12,0-.18a.91.91,0,0,1,.07-.35.52.52,0,0,0,0-.39,1.56,1.56,0,0,1-.09-.75v0h0a.23.23,0,0,0-.18-.17l0,0a.38.38,0,0,1-.17-.23.34.34,0,0,0-.15-.25.6.6,0,0,1-.2-.27.16.16,0,0,0-.15-.08h0a.15.15,0,0,0-.15.08.78.78,0,0,0-.09.24.77.77,0,0,0,0,.15s0,0,0,.06a.21.21,0,0,1-.08.11s-.08,0-.12,0l0,0-.06,0a.33.33,0,0,0-.29,0,.26.26,0,0,0-.13.23,2.29,2.29,0,0,0,0,.37v0a.68.68,0,0,0,0,.14s0,.07,0,.1a.12.12,0,0,1-.11.11h-.11a.18.18,0,0,0-.21,0,.42.42,0,0,0-.08.12l0,.06a.29.29,0,0,1-.11.11.69.69,0,0,0-.3.31.13.13,0,0,1-.12.08.33.33,0,0,0-.35.18h-.06l0,0v0a.32.32,0,0,1,0-.17.63.63,0,0,0,0-.47,2.54,2.54,0,0,1,0-.29,1.1,1.1,0,0,0,0-.18c0-.06-.06-.09-.1-.11a.11.11,0,0,0-.11,0l0,0v0a.68.68,0,0,1,0,.14.6.6,0,0,0,0,.32.4.4,0,0,1,0,.32.3.3,0,0,0,0,.25.25.25,0,0,1,0,.17c0,.07,0,.15-.08.22l0,.11s0,.06-.08.06a.12.12,0,0,1-.11,0,.36.36,0,0,0,0-.09v0a.08.08,0,0,0,0,0s0-.06,0-.08a.09.09,0,0,0-.1-.06.09.09,0,0,0-.11.07v.06a1.94,1.94,0,0,0,0,.24.49.49,0,0,1-.11.27.25.25,0,0,1-.08,0,.17.17,0,0,1-.11,0l0,0a.13.13,0,0,1,0-.06.2.2,0,0,0,0-.07v-.06a.5.5,0,0,0,0-.21.44.44,0,0,0,0-.1.39.39,0,0,1,0-.28.91.91,0,0,0,0-.33s0-.08,0-.12v-.13A.66.66,0,0,1,43,28a.13.13,0,0,0,0-.09.13.13,0,0,0-.1-.09c-.09,0-.14,0-.15.07a3,3,0,0,1-.14.45.56.56,0,0,0,0,.22v.14c0,.23,0,.46,0,.69a1,1,0,0,1-.15.51.13.13,0,0,1-.12,0,.29.29,0,0,1-.13-.33,1.56,1.56,0,0,0,.09-.7.14.14,0,0,0-.12-.12.2.2,0,0,0-.14.06A.23.23,0,0,0,42,29v0a3.37,3.37,0,0,0-.06.36.4.4,0,0,0,0,.23.41.41,0,0,1,0,.22.17.17,0,0,0,0,.07c0,.44,0,.45-.24.59l-.09.05a.22.22,0,0,0,0-.08v0c0-.07,0-.19-.16-.21a.16.16,0,0,0-.12,0,1,1,0,0,0,.07-.27s0,0,0,0l0,0a.16.16,0,0,0,.22,0,.21.21,0,0,0,.1-.25.36.36,0,0,0-.21-.21.21.21,0,0,0-.19,0l-.11,0a.49.49,0,0,1-.34.09.11.11,0,0,0-.11.06.33.33,0,0,1-.24.1l-.07,0h0l0,0a.34.34,0,0,0,0,.25.37.37,0,0,1,0,.11,1,1,0,0,1-.05.16c0,.05,0,.11,0,.16s0,.11-.19.09a.32.32,0,0,0-.28,0l-.07,0-.06,0-.12.08c-.07.06-.11.1-.17.09a.78.78,0,0,1-.22,0l-.1,0h0a1.22,1.22,0,0,0-.29.26l-.05.06a.4.4,0,0,0-.08.16.17.17,0,0,1-.06.12l0,0a1.13,1.13,0,0,0-.18-.12.4.4,0,0,1-.18-.22c0-.1,0-.12,0-.15a.33.33,0,0,0,.2-.39.21.21,0,0,0-.07-.11l0,0h0a.16.16,0,0,0-.09.05l-.06.07a1.67,1.67,0,0,0-.17.26.88.88,0,0,1-.37.37h-.08a.07.07,0,0,1-.06,0s0,0,0,0,0-.05,0-.09a.33.33,0,0,0,0-.23.1.1,0,0,0-.1-.07.31.31,0,0,0-.12.05.23.23,0,0,0-.07.11s0,.05,0,.07a.15.15,0,0,1,0,.07.28.28,0,0,1-.17.15.26.26,0,0,1-.21,0l-.09-.08L36.49,31,36.38,31a2.26,2.26,0,0,1-.26-.16.46.46,0,0,0-.32,0h-.14l-.16-.05,0,0a.17.17,0,0,0-.19,0,.41.41,0,0,0-.11.12v0c0,.06-.09.08-.18.1h0a.08.08,0,0,1-.1,0l-.06-.09a1,1,0,0,1-.08-.11.3.3,0,0,0-.2-.1.23.23,0,0,0-.17.07,1.47,1.47,0,0,1-.31.23l-.11.07a.11.11,0,0,1-.11,0l-.21-.11a.18.18,0,0,1-.07-.11c0-.06,0-.12,0-.18s0-.14,0-.21a.25.25,0,0,0-.17-.21A.51.51,0,0,1,33,30c-.15-.14-.22-.11-.39,0s-.08.05-.1,0a.47.47,0,0,0-.26,0h0a.14.14,0,0,1-.15-.05l0,0a.18.18,0,0,0-.18-.11.31.31,0,0,0-.14.07h0a.14.14,0,0,1-.18,0,4.46,4.46,0,0,0-.56-.41l-.2-.13a.31.31,0,0,1-.12-.15.24.24,0,0,0-.14-.14.39.39,0,0,1-.21-.13.24.24,0,0,0-.16-.07h0l-.08,0H30L30,28.72a.43.43,0,0,1,.24-.27.25.25,0,0,1,.15,0s0,0,0,.07v0c0,.06.06.1.1.1a.14.14,0,0,0,.13-.05.83.83,0,0,0,.08-.12.47.47,0,0,1,.14-.17v0a.75.75,0,0,1,.21-.12A.18.18,0,0,0,31.2,28a2,2,0,0,0,0-.25.33.33,0,0,0-.1-.27L31,27.3a.3.3,0,0,1,0-.3.74.74,0,0,0,0-.6v0H30.9l-.14,0,0,0a.71.71,0,0,0,.3-.44h0a1.2,1.2,0,0,1,.13-.25.3.3,0,0,1,.22-.15l.24-.05.12,0,0,0,0,0a.31.31,0,0,0,.07-.09.43.43,0,0,0,0-.07c0-.08.07-.13.13-.15a.36.36,0,0,1,.24.05.31.31,0,0,0,.2,0l.09,0a1.21,1.21,0,0,0,.48-.27,1.56,1.56,0,0,1,.35-.27h0a.27.27,0,0,1,.36,0l.09.07a.32.32,0,0,0,.3,0h0a.53.53,0,0,0,.25-.2v0s0-.06,0-.06a1.72,1.72,0,0,0,.33-.26l.21-.17h0l0,.05-.07.11-.08.14a.18.18,0,0,0,0,.17.16.16,0,0,0,.15.05.29.29,0,0,0,.16-.09l.06-.06a1.27,1.27,0,0,0,.23-.28.88.88,0,0,1,.35-.34.43.43,0,0,0,.1-.09l0,0a.23.23,0,0,0,0-.27.21.21,0,0,0-.26-.09l-.09,0-.12.06,0,0a.33.33,0,0,1-.16.05,1.28,1.28,0,0,0-.53.16,2.26,2.26,0,0,1-.39.15l-.15.05-.11,0a2.79,2.79,0,0,0-1.12.21l-.09,0-.07,0a.41.41,0,0,1-.19,0,.48.48,0,0,0-.27.09.86.86,0,0,1-.5.17.59.59,0,0,0-.35.14l-.28.19-.12.08-.45,0h0l0,0a.24.24,0,0,0-.08.06,1.71,1.71,0,0,1-.55.49.74.74,0,0,0-.21.17,1.3,1.3,0,0,1-.41.29.27.27,0,0,0-.15.12.39.39,0,0,1-.29.2.39.39,0,0,0-.22.17.23.23,0,0,1-.07.07.5.5,0,0,0-.17.4.49.49,0,0,1-.08.33v0h0a4.2,4.2,0,0,1-.47,1.35,1.19,1.19,0,0,1-.08.16s0,.09-.08.14a.66.66,0,0,1-.34.32.79.79,0,0,0-.23.14.44.44,0,0,1-.31.11.48.48,0,0,0-.31.08,1.86,1.86,0,0,1-.41.17l-.12,0-.05,0s-.05,0-.06,0a2,2,0,0,0-.56.1,2,2,0,0,1-.31.07h0a3.93,3.93,0,0,1-.48.06h-.3l-.18,0h0a3.87,3.87,0,0,1-.53-.37.94.94,0,0,1-.3-.39,1.76,1.76,0,0,0-.14-.23l-.06-.11,0-.06a1,1,0,0,1-.08-.14l-.12-.31a5.49,5.49,0,0,1-.24-.68.85.85,0,0,1,0-.5.08.08,0,0,0,0-.06,1.1,1.1,0,0,1,.27-.66l.11-.19.06-.12a4.54,4.54,0,0,1,.41-.58l.12-.15a2.31,2.31,0,0,0,.47-.71.57.57,0,0,1,.28-.31.31.31,0,0,0,.16-.19,1.17,1.17,0,0,1,.09-.24v0a.32.32,0,0,1,.15-.19,2,2,0,0,0,.28-.21,1,1,0,0,1,.29-.22h0a1.14,1.14,0,0,1,.11-.11,2.43,2.43,0,0,0,.26-.29,1.26,1.26,0,0,1,.32-.33,1.94,1.94,0,0,0,.28-.29,1.07,1.07,0,0,1,.45-.37,1.17,1.17,0,0,0,.45-.34l.29-.29.09-.08a.13.13,0,0,1,.14,0,1.34,1.34,0,0,0,.55.1h.1l.29,0s0,0,0,0a.1.1,0,0,1,0,.09,1,1,0,0,1-.29.34,1.73,1.73,0,0,0-.56.58,2.17,2.17,0,0,1-.56.57l0,0a.33.33,0,0,0-.13.13l-.14.19a1,1,0,0,0-.22.41.48.48,0,0,1-.2.25h0a.47.47,0,0,0-.18.4.28.28,0,0,1-.11.25.93.93,0,0,0-.22.3A1.1,1.1,0,0,1,26,25a.09.09,0,0,0,0,.06.21.21,0,0,0,.05.12.17.17,0,0,0,.15,0s.06,0,.07-.07a2,2,0,0,1,.24-.35,2.1,2.1,0,0,0,.22-.3,1.13,1.13,0,0,0,.1-.13l.09-.12a1,1,0,0,0,.22-.4.43.43,0,0,1,.12-.16,2.56,2.56,0,0,0,.53-.66.83.83,0,0,1,.33-.36,1,1,0,0,0,.18-.17l.15-.12a.1.1,0,0,1,.05,0,.5.5,0,0,0,.24-.27s0,0,.07-.06a1.2,1.2,0,0,0,.52-.55.14.14,0,0,1,.1-.07h.11l.14-.07a.8.8,0,0,1,.25-.11,1.18,1.18,0,0,1,.27,0h.15a.1.1,0,0,0,.08-.06.17.17,0,0,0,0-.17.26.26,0,0,0-.21-.14h-.05a1,1,0,0,0-.51.06.65.65,0,0,1-.51,0,.9.9,0,0,0-.16,0,.3.3,0,0,1-.13,0,.42.42,0,0,0-.33,0,.17.17,0,0,1-.17,0,.27.27,0,0,1-.09-.23c0-.11,0-.22.05-.33a.18.18,0,0,0-.11-.19.23.23,0,0,0-.27.08.37.37,0,0,1-.05.11l-.06.11s0,0,0,.05l-.06.1c-.14.15-.18.16-.31,0l-.1-.09a.34.34,0,0,0-.28-.09H27a.52.52,0,0,0-.21,0,.38.38,0,0,1-.29,0h0a.13.13,0,0,1-.1-.11v0a.36.36,0,0,0-.07-.23.19.19,0,0,0-.13-.05A.11.11,0,0,0,26,20h0s-.05.05-.06.08a.24.24,0,0,1-.21.15l-.34,0-.14,0h0a.94.94,0,0,0-.53-.18.35.35,0,0,1-.22-.1l-.17-.11-.15-.1a.24.24,0,0,1-.09-.16c0-.05,0-.1.06-.1a.45.45,0,0,1,.29,0,.74.74,0,0,0,.27.06l.17,0a.47.47,0,0,1,.2,0l.1,0a1.37,1.37,0,0,0,.29,0h0a.36.36,0,0,0,.2,0,.76.76,0,0,1,.27-.06h0a.74.74,0,0,0,.49-.29l.11-.11.05-.06,0,0a.6.6,0,0,0,.08-.08,6.45,6.45,0,0,0,.39-1v-.11a.13.13,0,0,0,0-.06,1.7,1.7,0,0,1,.06-1.05v0l0,0a.17.17,0,0,0-.11-.09.19.19,0,0,0-.14,0,1.3,1.3,0,0,0-.2.15l0,0-.05,0a.83.83,0,0,1-.17-.12.67.67,0,0,0-.35-.24l-.09,0a.4.4,0,0,0-.36,0h-.09a.89.89,0,0,0-.28,0,.81.81,0,0,0-.22.07l-.12,0h-.17l-.51,0H24.1a.49.49,0,0,1-.28-.15v0s0,0,0,0l.06-.06a1.25,1.25,0,0,1,.47-.3.54.54,0,0,0,.2-.1,2,2,0,0,1,.77-.43l.29-.12A2,2,0,0,1,26,15a.32.32,0,0,0,.14-.08l.05,0,.14-.11a2,2,0,0,1,.33-.21,1.16,1.16,0,0,1,.28-.1l.22-.07a4.35,4.35,0,0,0,.58-.27.42.42,0,0,1,.54,0,.16.16,0,0,0,.12,0,.28.28,0,0,0,.15-.11.21.21,0,0,0,0-.12.23.23,0,0,0,0-.14c-.06-.11,0-.18.11-.29l.1-.06.05,0a1.86,1.86,0,0,0,.41-.29,1.49,1.49,0,0,1,.2-.15l.15-.1a.37.37,0,0,1,.42-.06l.07,0,0-.07a1,1,0,0,1,.38-.46,1.18,1.18,0,0,0,.27-.23,1.11,1.11,0,0,1,.4-.29,1.6,1.6,0,0,0,.59-.53l0-.05,0,0A.31.31,0,0,1,32,11.1a.8.8,0,0,0,.31-.42l0-.09c0-.05,0-.14-.06-.17h0c-.07,0-.16-.12-.28-.05a.18.18,0,0,1-.09,0,.65.65,0,0,1,0-.13,1.57,1.57,0,0,1-.09-.48.6.6,0,0,1,.14-.44l0,0a.32.32,0,0,0,.12-.22.14.14,0,0,0-.1-.15H31.7a.12.12,0,0,1-.1-.06v0l0-.07a.84.84,0,0,1-.19-.67.68.68,0,0,0-.07-.37.65.65,0,0,1-.06-.21v0a.16.16,0,0,1,0-.1c0-.09.06-.17.09-.25a1.07,1.07,0,0,1,.16-.36A2.16,2.16,0,0,0,31.85,6a1.13,1.13,0,0,1,.45-.68s0,0,.05,0a1.35,1.35,0,0,1,.27-.37,1.5,1.5,0,0,0,.28-.37.86.86,0,0,1,.31-.32l.16-.14a1.48,1.48,0,0,0,.21-.34,2,2,0,0,1,.13-.25,1.3,1.3,0,0,0,.22-.61.89.89,0,0,1,.19-.41.5.5,0,0,0,.1-.37s0,0,0-.06a.49.49,0,0,1,0-.12.41.41,0,0,1,0-.16,2.52,2.52,0,0,0,.32-.93l.07-.17c.07-.16.14-.32.22-.48s0,0,.07-.08l.05,0a.18.18,0,0,1,.19,0A1.05,1.05,0,0,0,35.6.1a.28.28,0,0,1,.19.09.34.34,0,0,1,.1.22.06.06,0,0,1,0,0,.48.48,0,0,0,0,.12A.19.19,0,0,0,36,.73a.37.37,0,0,1,.24.36.56.56,0,0,0,.15.39.23.23,0,0,1,0,.22.05.05,0,0,1,0,.05.06.06,0,0,1-.06,0,.4.4,0,0,1-.15-.29l0-.12a.62.62,0,0,1,0-.1L36,.81v.44c0,.06,0,.11,0,.15a1.62,1.62,0,0,0,0,.23.29.29,0,0,0,0,.1.08.08,0,0,1,0,0s0,.08,0,.11a.49.49,0,0,0,0,.24.94.94,0,0,0,.27.31,1.42,1.42,0,0,1,.31.48,1.42,1.42,0,0,0,.12.25s0,0,0,0a1.23,1.23,0,0,0,.05.39,1.18,1.18,0,0,1,0,.25,1,1,0,0,0,.18.48,2.48,2.48,0,0,1,.28.64c0,.2.12.42.2.65a2.12,2.12,0,0,1,.11.75c0,.1,0,.2,0,.31s0,.28,0,.42a.28.28,0,0,1-.05.17.42.42,0,0,0-.07.26v0l.08.05.1.07,0,0a0,0,0,0,1,0,0l-.05,0-.06,0a.21.21,0,0,0-.06.15c0,.06.07.08.12.1l.05,0h0s0,.05,0,.06a.31.31,0,0,1,0,.08l0,.1a.19.19,0,0,0,.08.15.16.16,0,0,0,.15,0s0,0,.06-.05v0a1.2,1.2,0,0,1,.45-.23A2.35,2.35,0,0,0,39,8c.12-.07.14-.06.24.06l0,0a.31.31,0,0,0,.07.09.15.15,0,0,0,.17,0A.18.18,0,0,0,39.61,8a.31.31,0,0,0-.09-.2l0,0a.15.15,0,0,1,0-.07.72.72,0,0,1,.48,0l.06.07a.2.2,0,0,0,.13.09.12.12,0,0,0,.1,0,.49.49,0,0,1,.6-.08h0l.13,0,.22-.07a.42.42,0,0,1,.29,0c.08,0,.11.06.11.13v.76l-.21.1-.08,0v.06s0,.06.06.08l.41.12a.14.14,0,0,0,.15,0,.2.2,0,0,0,.09-.12.63.63,0,0,0,0-.38.83.83,0,0,1,0-.56.36.36,0,0,0-.1-.42.05.05,0,0,1,0-.07A.11.11,0,0,1,42,7.31a.24.24,0,0,1,.17,0l.2.14s0,0,.09,0a.11.11,0,0,0,.06-.07.37.37,0,0,0,0-.11,1.27,1.27,0,0,0-.18-.39l0,0a.15.15,0,0,1,0-.07.27.27,0,0,1,.1-.08l.05,0a.19.19,0,0,1,0,.08l0,.09a.26.26,0,0,0,.19.16.13.13,0,0,0,.16-.1.43.43,0,0,0-.09-.38.91.91,0,0,1-.16-.44v0h0a1.07,1.07,0,0,0,.28-.42l.06,0a.07.07,0,0,1,.06.06l0,.08a.88.88,0,0,0,.05.15.12.12,0,0,0,.07.07.15.15,0,0,0,.12,0,.27.27,0,0,0,.1-.22V5.68c0-.19,0-.38,0-.57a.93.93,0,0,1,.13-.47c.18-.31.37-.62.56-.92l.17-.28a7.11,7.11,0,0,1,.46-.62L45,2.48a1.29,1.29,0,0,1,.27-.25l.11-.1a.13.13,0,0,1,.08,0,.21.21,0,0,1,0,.06,1.72,1.72,0,0,0-.07.21.42.42,0,0,1-.14.27.28.28,0,0,0-.06.15.44.44,0,0,1-.14.29A.3.3,0,0,0,45,3.3a.43.43,0,0,0,0,.05.1.1,0,0,0,0,.09l0,0h0s.09,0,.12,0a2,2,0,0,0,.26-.38A.41.41,0,0,1,45.52,3a1.92,1.92,0,0,0,.26-.71,2.38,2.38,0,0,1,0-.26,1.78,1.78,0,0,0,.06-.47.45.45,0,0,1,.21-.35A2.92,2.92,0,0,1,46.38,1l.1-.07a4.12,4.12,0,0,1,.59-.33.54.54,0,0,1,.57,0,2.28,2.28,0,0,1,.66.6v.07a1.64,1.64,0,0,1,0,.22V2.65a.65.65,0,0,0,0,.28.51.51,0,0,1,0,.3.76.76,0,0,0,0,.37,1.6,1.6,0,0,1,.07.62v0a.7.7,0,0,0,.14.46.41.41,0,0,1,.07.27,1.52,1.52,0,0,0,.07.45v0a2.47,2.47,0,0,1,.13.71,1.44,1.44,0,0,0,.05.31l.12.39c0,.15.09.3.13.45a.78.78,0,0,1,0,.22.13.13,0,0,1-.11.13h-.23a.13.13,0,0,1-.1-.07l-.06-.12c-.06-.16-.12-.27-.22-.3a.46.46,0,0,0-.31.05l-.08,0a.27.27,0,0,0-.11.09.9.9,0,0,1-.19.2.81.81,0,0,0-.14.12.6.6,0,0,0-.14.35c0,.05,0,.1,0,.15a1.77,1.77,0,0,1-.08.46,1.13,1.13,0,0,0,0,.32v.13a.61.61,0,0,1-.2.43l-.06,0h0a.2.2,0,0,1-.1,0,.4.4,0,0,1-.09-.39l0-.08a.75.75,0,0,0,0-.16.6.6,0,0,0,0-.23.27.27,0,0,0-.15-.12c-.07,0-.15.07-.16.1a.38.38,0,0,0,0,.17.54.54,0,0,1-.14.39.39.39,0,0,0-.08.21.29.29,0,0,1-.18.2.18.18,0,0,1-.16,0c-.12-.06-.09-.12-.07-.14a1.84,1.84,0,0,0,.16-.6v0a.13.13,0,0,0,0-.1S46,8.66,46,8.66a.25.25,0,0,0-.19,0,.33.33,0,0,0-.1.28.72.72,0,0,1-.13.36l0,.06a.14.14,0,0,1-.11,0,.11.11,0,0,1-.08,0,.06.06,0,0,1,0-.06v0a.1.1,0,0,1,0,0,1.12,1.12,0,0,0,0-.76.12.12,0,0,0,0-.1.14.14,0,0,0-.11,0c-.08,0-.12.06-.12.1a1.65,1.65,0,0,1-.11.36,1.55,1.55,0,0,0-.08.23.3.3,0,0,1,0,.08l0,0a.15.15,0,0,1-.09,0,.29.29,0,0,1-.23-.2.27.27,0,0,1,0-.08,1,1,0,0,0,0-.81c0-.06-.09-.07-.14-.07a.13.13,0,0,0-.12.06s0,.07,0,.11a2.25,2.25,0,0,1,0,.22,1.34,1.34,0,0,0-.06.4.16.16,0,0,1-.07,0h0s-.07,0-.07,0a2.4,2.4,0,0,0-.24-.81,1.34,1.34,0,0,1-.13-.67V7.19c0-.21,0-.44,0-.66a.46.46,0,0,1,.14-.34.58.58,0,0,0,.19-.39.8.8,0,0,1,0-.21.55.55,0,0,0,0-.38l0-.09-.08,0c-.17.11-.3.21-.33.39a2.69,2.69,0,0,1-.17.55l0,.09a.66.66,0,0,0-.05.47s0,0,0,0a.68.68,0,0,0-.07.41v.15a.81.81,0,0,0,0,.22.7.7,0,0,1,0,.25,2,2,0,0,0,0,.35v.1c0,.08,0,.17,0,.25s0,.16,0,.24,0,.16,0,.24V9.1a.75.75,0,0,1-.09.39,1,1,0,0,0-.12.39,1.92,1.92,0,0,1-.09.32l-.06.19a1.64,1.64,0,0,0,0,.25.21.21,0,0,0,.14.23l.16.06a.66.66,0,0,0,.32.09h0a.22.22,0,0,1,.17.11.6.6,0,0,0,.31.22l.19.09.11.06a.26.26,0,0,1,.17.23.19.19,0,0,0,.25.18h.12a.55.55,0,0,0,.34.2l.08,0h0l.08,0a.17.17,0,0,1,.17.19.68.68,0,0,0,.16.4c.05.06.16.11.22.06a.14.14,0,0,0,.07-.15.23.23,0,0,1,0-.07.18.18,0,0,1,.07-.1.12.12,0,0,1,.09,0l.17.08.09,0,0,0,0,0a.16.16,0,0,0,.07-.19v0s0-.09.09-.13l0,0,.19.09a.17.17,0,0,0,.22-.06.16.16,0,0,0,0-.22l0,0S47,12,47,12a.09.09,0,0,1,0-.1l0,0a.45.45,0,0,1,.17.11.46.46,0,0,0,.43.09.19.19,0,0,0,.11-.09.13.13,0,0,0,0-.11.14.14,0,0,0-.06-.12l0,0a.19.19,0,0,0-.09,0c-.12,0-.16-.09-.14-.2a1,1,0,0,0,0-.17.43.43,0,0,0-.07-.16l-.07-.06,0,0a.21.21,0,0,1,.06-.21,1.3,1.3,0,0,0,.21-.35,1.08,1.08,0,0,1,.29-.41,2.19,2.19,0,0,0,.54-.78,2.12,2.12,0,0,1,.11-.21.7.7,0,0,0,0-.25h0a2,2,0,0,0,0-.25.61.61,0,0,0,0-.14.23.23,0,0,1,.15-.21.34.34,0,0,1,.31,0,.18.18,0,0,1,.1.2l0,.06L49,9.1h0a.66.66,0,0,1-.05.15l-.1.14a2.52,2.52,0,0,1-.42.54,6.33,6.33,0,0,0-.44.46l-.17.18-.05.05a.74.74,0,0,0-.15.19.94.94,0,0,0-.06.24s0,.06,0,.1v0l0,0a.57.57,0,0,0,.43.23.93.93,0,0,1,.47.14l0,0a.76.76,0,0,0,.16.06.29.29,0,0,1,.24.18.48.48,0,0,0,.19.21l0,0a1.48,1.48,0,0,0,.34.21c.13,0,.18.15.25.28a.49.49,0,0,0,.15.17.91.91,0,0,1,.39.48.45.45,0,0,0,.22.25.25.25,0,0,1,.09.09.75.75,0,0,0,.15.34.76.76,0,0,1,.08.11l.08.17a.36.36,0,0,0,0,.09l.11.26.31.67,0,0a1.39,1.39,0,0,1,.12.32.83.83,0,0,0,0,.15.28.28,0,0,1,0,.12.41.41,0,0,0,.23.32l.06.05,0,0v.09c0,.1,0,.2,0,.31a1.5,1.5,0,0,1,0,.3v.14l0,0a3.36,3.36,0,0,1,.37.68,1.68,1.68,0,0,0,.3.52l.06.09a.74.74,0,0,1,.15.21.22.22,0,0,0,.1.11.76.76,0,0,1,.37.45l0,.08a2.39,2.39,0,0,0,.26.41l.18.22a1.63,1.63,0,0,1,.32.47l0,.05h0a.52.52,0,0,0,.11.1c.05,0,.08,0,.09.08s0,.05,0,.08a.36.36,0,0,0,.09.21.43.43,0,0,1,.1.31c0,.08,0,.19.06.24a.79.79,0,0,1,.16.3,1.11,1.11,0,0,0,.14.29.67.67,0,0,1,.13.67.34.34,0,0,0,0,.1v.05l0,0a.94.94,0,0,0,.42.19l.12,0,0,0,.09.14a.39.39,0,0,0,.23.17s.07,0,.07,0a1.72,1.72,0,0,0,.46.53s.09.08.09.12a1.5,1.5,0,0,0,.17.36,1.22,1.22,0,0,1,.1.24.76.76,0,0,1,0,.11c.06.14.06.16-.1.27l0,0-.1.07a.24.24,0,0,0-.09.22.25.25,0,0,0,.15.18l.19.07.07,0c0,.13.07.28.11.46a.28.28,0,0,1,0,.1.88.88,0,0,0-.1.41.19.19,0,0,1,0,.09,1.63,1.63,0,0,0-.25,1,.74.74,0,0,1-.32.61.14.14,0,0,1-.15,0,.1.1,0,0,1-.07-.11s0,0,0,0,0,0,0-.05a.32.32,0,0,0-.31-.42,1.2,1.2,0,0,0-.2,0,.16.16,0,0,0-.11.13.13.13,0,0,0,.05.16.47.47,0,0,0,.09.06c.05,0,.1.05.12.09a.49.49,0,0,1,.06.16.29.29,0,0,0,0,.09v0l.13.08.22.15a.25.25,0,0,1,.1.3l-.1.2s0,.07,0,.1l0,0,0,.11.15.31v0c-.08,0-.12,0-.14,0s0,0,0,0l-.06-.09a.2.2,0,0,0-.15,0,.1.1,0,0,0-.09.1v.06a2.36,2.36,0,0,0,0,.28.59.59,0,0,0,0,.13s0,.05,0,.07a.17.17,0,0,1,0,.12.15.15,0,0,1-.11,0l-.28-.13L55.22,30l0,.07v0a.08.08,0,0,0,0,.06,1,1,0,0,0,0,.25.56.56,0,0,1,0,.22c0,.13,0,.26,0,.38v.11a1.09,1.09,0,0,0,0,.18v.07a.16.16,0,0,0,0,.1.12.12,0,0,0,.1,0,.17.17,0,0,0,.13-.08l0-.08a1.76,1.76,0,0,0,.17-.37.48.48,0,0,1,.15-.2l.12-.14.09-.12h.06l0,.05a.86.86,0,0,1-.3.49h0a.57.57,0,0,1-.08.13,1,1,0,0,0-.21.4.19.19,0,0,1-.19.14.28.28,0,0,1-.33-.22l0-.13s0-.09,0-.14a1.14,1.14,0,0,0-.08-.4,1.17,1.17,0,0,1-.05-.2.9.9,0,0,0-.07-.27.65.65,0,0,1,0-.2v-.06a.59.59,0,0,0-.18-.39l-.08-.09,0,.13a.51.51,0,0,0,0,.38v0c0,.08.05.13,0,.19a.13.13,0,0,0,0,.1,2.12,2.12,0,0,1,.06.76v.33a.32.32,0,0,0,.13.26l.09.06.11.08a.11.11,0,0,1,0,.1.09.09,0,0,1,0,.08l-.24.15a.43.43,0,0,0-.2.2.49.49,0,0,1-.23.24.82.82,0,0,0-.37.37s0,0,0,0h0a1.08,1.08,0,0,1-.35-.42.1.1,0,0,0-.06,0,.12.12,0,0,0-.08,0h0a.19.19,0,0,0-.1.1.32.32,0,0,0,0,.19,1.09,1.09,0,0,1,.06.44,1,1,0,0,1-.07.46s0,.08-.07.08a.54.54,0,0,0-.55.37.3.3,0,0,1-.2.18.64.64,0,0,0-.47.4l-.08,0a.26.26,0,0,1-.18,0,.1.1,0,0,1,0,0,.12.12,0,0,0-.06-.09.11.11,0,0,0-.1,0,.44.44,0,0,0-.21.15s0,0,0,0l0-.05,0,0,0-.05,0,0,0,0a.18.18,0,0,0-.09.06.19.19,0,0,0,0,.14.14.14,0,0,0,.1.1.2.2,0,0,0,.17,0h0a.17.17,0,0,0,0,.07v0a.45.45,0,0,1,0,.16.21.21,0,0,1-.16.17h-.24a.12.12,0,0,1-.1-.06l-.08-.13a3.45,3.45,0,0,1-.2-.32.78.78,0,0,1-.07-.25,1.31,1.31,0,0,1,.06-.55.36.36,0,0,0-.09-.39.69.69,0,0,1-.18-.35.84.84,0,0,0-.35-.5.12.12,0,0,0-.12,0,.08.08,0,0,0-.07,0,3.87,3.87,0,0,0-.21.34l0,0a.17.17,0,0,0,0,.14.15.15,0,0,0,.1.09h0l.12,0h.07c.08,0,.12,0,.15,0a.5.5,0,0,1,.13.31.77.77,0,0,1,0,.22.84.84,0,0,0,0,.32,1.12,1.12,0,0,1-.1.71.62.62,0,0,0,0,.4v0a.19.19,0,0,1-.14.17.76.76,0,0,1-.3,0,.11.11,0,0,1-.08-.07l0-.19,0-.2a.29.29,0,0,0-.11-.15.17.17,0,0,0-.18,0l-.07.09,0,0-.06,0s0,0-.05-.06a.6.6,0,0,1-.09-.15s0,0,0-.08a.3.3,0,0,0,0-.1.36.36,0,0,0-.17-.23L48,34.52v0l.06-.12-.14,0h-.06l-.25,0a.1.1,0,0,0-.1.05.1.1,0,0,0,0,.09s0,.06.08.08a.31.31,0,0,0,.23,0,.59.59,0,0,0,0,.29l.05.11,0,.11a1,1,0,0,1-.06.8s0,.06-.08.06a.14.14,0,0,1-.11,0,.17.17,0,0,1-.07-.1.86.86,0,0,0-.15-.45.19.19,0,0,0-.12,0,.17.17,0,0,0-.09.08h0a.16.16,0,0,0,0,.12,1.05,1.05,0,0,0,0,.19,2.76,2.76,0,0,1,.08.27s0,.05,0,.05h-.08a.47.47,0,0,1-.29-.22l0-.05-.07-.09a1.84,1.84,0,0,0-.17-.22.25.25,0,0,1-.06-.15.39.39,0,0,0-.08-.2.14.14,0,0,0-.16,0,.25.25,0,0,0-.15.17l0,.05a.12.12,0,0,1-.16.06l-.17-.07h0a.11.11,0,0,0-.1,0,.62.62,0,0,1-.41-.11.13.13,0,0,0-.12,0h0l0,0v.11a.71.71,0,0,0,0,.14,2.17,2.17,0,0,1-.15.92,1.86,1.86,0,0,0-.12.42,1,1,0,0,0,0,.17l-.16,0a.48.48,0,0,0-.27.07s0,0,0-.05a.19.19,0,0,0-.14-.17.56.56,0,0,1-.2-.09.24.24,0,0,1-.1-.3v0a.52.52,0,0,0,0-.39.19.19,0,0,0-.11-.09.11.11,0,0,0-.1,0,.14.14,0,0,0-.08.06,1.58,1.58,0,0,1-.31.4,1.4,1.4,0,0,0-.25.35l0,.11-.07.14a.73.73,0,0,1-.05.12l-.07.11a.71.71,0,0,0-.1.14,1.07,1.07,0,0,1-.29.35.22.22,0,0,1-.3,0,.18.18,0,0,1-.06-.19,2.44,2.44,0,0,1,.37-.65,1.24,1.24,0,0,0,.2-.47.22.22,0,0,0,0-.14v0a.11.11,0,0,0-.1-.09.21.21,0,0,0-.1,0l0,0a.69.69,0,0,0-.11.13c0,.07-.07.15-.11.23a.31.31,0,0,1-.27.2H42a.33.33,0,0,0-.23.19.11.11,0,0,0,0,.07l0,.06a.12.12,0,0,1-.16,0Zm13-5.3v-.11a.23.23,0,0,0,0-.07l0,0v-.11l-.26.12.1.07h0a.19.19,0,0,0,0,.08.09.09,0,0,0,.08,0Zm1-2.07a1.54,1.54,0,0,1-.09-.37,1.7,1.7,0,0,0,0-.22c0-.05,0-.06-.07-.08a.13.13,0,0,0-.12,0,.11.11,0,0,0-.06.07c0,.11-.07.23-.11.37a.25.25,0,0,0,0,.21.24.24,0,0,0,.18.12l.11,0v0h.14l.06,0,.24-.14Zm1-2.87a1.15,1.15,0,0,0-.73-.33,1.61,1.61,0,0,0-.69.09.31.31,0,0,0-.11.09.17.17,0,0,0,0,.12v0l0,0a1,1,0,0,0,.49.15h.48l.08,0,.25.16.08,0a.27.27,0,0,0,.13-.05.25.25,0,0,0,.07-.27v0ZM56,25.59l-.08-.07h0a1.3,1.3,0,0,1-.67-.16.38.38,0,0,0-.18,0h0a.13.13,0,0,0-.1,0,.11.11,0,0,0,0,.1.12.12,0,0,0,0,.09l.12.09.14.12.17.16.1.09h.32a.41.41,0,0,1,.31.1l0,0h0l.08,0h0a.18.18,0,0,0,.08-.07.22.22,0,0,0,0-.16A1.79,1.79,0,0,0,56,25.59Zm-.49-1.45a.18.18,0,0,0,.12.05h0a.21.21,0,0,0,.19-.17v0l0,0,0,0a.17.17,0,0,0-.07-.08.17.17,0,0,0-.17,0,.41.41,0,0,0-.1.13A.15.15,0,0,0,55.51,24.14Zm-.52.34,0,0,.07.05a.46.46,0,0,1,.16.15.43.43,0,0,0,.39.23l.18,0A.16.16,0,0,0,56,24.8a.37.37,0,0,0-.15-.4l0,0-.06,0-.07,0-.09.05h0l0,0-.21-.11a.2.2,0,0,0-.25.06Zm-.26-.55L55,24l-.11-.28Zm-.45.28.1.16v0s0,0,0,0a.09.09,0,0,0,0,.12h0a.11.11,0,0,0,.07,0s0,0,0-.07a.16.16,0,0,0,.13-.08.22.22,0,0,0,0-.16.16.16,0,0,0-.08-.05.19.19,0,0,0-.1,0l-.11.09h0Zm-.37,3.86a.57.57,0,0,0,.35.21v.55h0a.18.18,0,0,0,0,.12.2.2,0,0,0,.08.08l0,0,.06.06.05-.08s0,0,0,0a.16.16,0,0,0,0-.12c0-.19-.06-.4-.11-.66a.11.11,0,0,0-.07-.06v0h0a.49.49,0,0,0-.1-.16h0a.37.37,0,0,0-.27-.12.2.2,0,0,0-.11.09A.1.1,0,0,0,53.91,28.07Zm-.41,1.74c0,.19.09.38.13.56a.17.17,0,0,0,.09.11.15.15,0,0,1,.08.11,1.55,1.55,0,0,0,.06.23.11.11,0,0,0,.1.08h0a.13.13,0,0,0,.11-.06c0-.06,0-.11.07-.16l0-.09,0,0,0,0a.53.53,0,0,0-.06-.1.38.38,0,0,1-.12-.29,1,1,0,0,0-.21-.52.12.12,0,0,0-.1-.05h0l-.09,0v.09a.13.13,0,0,1,0,.06A.75.75,0,0,0,53.5,29.81Zm-.39,1.72a.18.18,0,0,0,.09,0h0a.12.12,0,0,0,.1-.09.41.41,0,0,1,0-.11,1,1,0,0,1,0-.17c0-.07,0-.13,0-.2a.76.76,0,0,0,0-.11c0-.16-.13-.22-.19-.24l-.08,0,0,.08,0,.19a1.28,1.28,0,0,1-.08.35C53,31.3,53,31.41,53.11,31.53Zm-.29.79a.32.32,0,0,0,.17.25.39.39,0,0,0,.3,0,.26.26,0,0,0,.09-.09v0l0,0v0a.48.48,0,0,0-.15-.32.17.17,0,0,0-.21,0h0l-.08,0h0A.24.24,0,0,0,52.82,32.32ZM47.69,4.55a1.53,1.53,0,0,1,0,.67h0a.13.13,0,0,0,0,.06c0,.06,0,.13,0,.19a1.14,1.14,0,0,0,.15.6.82.82,0,0,1,.09.38.85.85,0,0,0,.06.31.32.32,0,0,0,.2.21h.1a.18.18,0,0,0,.07-.09.31.31,0,0,0,0-.22.53.53,0,0,1,0-.12,2.54,2.54,0,0,0,0-.39,1.06,1.06,0,0,0,0-.19V6a1.54,1.54,0,0,0,0-.17,1.81,1.81,0,0,1-.12-.56.19.19,0,0,0,0-.12.68.68,0,0,1,0-.43.44.44,0,0,0,0-.23s0,0,0-.08a.16.16,0,0,0-.26,0l0,0A.28.28,0,0,0,47.69,4.55Zm-.75,3.51a.28.28,0,0,0-.13-.15H46.7l0,0a.1.1,0,0,0,0,.06.23.23,0,0,0,0,.12.16.16,0,0,0,.07.12.15.15,0,0,0,.11,0h0a.14.14,0,0,0,.09-.08A.2.2,0,0,0,46.94,8.06Zm-.09-4.65.12.27.15-.25Zm-.34,3a.27.27,0,0,0,.08.19s.08,0,.11,0h.13A.21.21,0,0,0,47,6.42a.25.25,0,0,0-.15-.21.3.3,0,0,0-.23,0A.31.31,0,0,0,46.51,6.4ZM44.08,5l0,0,0,0a.26.26,0,0,0,.19-.15l.09-.18a2,2,0,0,1,.13-.25,1.3,1.3,0,0,1,.08-.17l.18-.35a.2.2,0,0,0,0-.17s0,0-.06,0a.15.15,0,0,0-.11,0l0,0a.58.58,0,0,0-.13.14c-.14.25-.28.51-.41.78A.29.29,0,0,0,44.08,5ZM31.76,7.49a.13.13,0,0,0,0-.09l0,0,0-.07-.07,0,0,0-.09.07,0,0v0a.14.14,0,0,0,.08.11h.05l.08,0A.14.14,0,0,0,31.76,7.49Zm-5.44,7.76,0-.05,0-.06a.1.1,0,0,0-.13,0,.33.33,0,0,0-.19.21.13.13,0,0,0,0,.1.1.1,0,0,0,.08.05h0a.27.27,0,0,0,.26-.21ZM27,16a.14.14,0,0,0,0-.12l-.08-.05h-.16a.12.12,0,0,0-.09.05.17.17,0,0,0,0,.14.19.19,0,0,0,.07.12l.08,0h0A.25.25,0,0,0,27,16Zm.62,4.19-.17-.08-.06,0,0,0a.09.09,0,0,0,0,.09.1.1,0,0,0,.06.08h.11l.05,0Zm.17-3.49a.57.57,0,0,0,0-.13v0s0-.06-.07-.07l-.06,0,0,0-.09.14-.05.07.16.11,0,0h0A.11.11,0,0,0,27.76,16.65Zm.89,3v-.06l0,0a.1.1,0,0,0-.08-.05.12.12,0,0,0-.1.06l0,0,0,.05a.12.12,0,0,0,0,.11.14.14,0,0,0,.1.07h0a.09.09,0,0,0,.08,0,.22.22,0,0,0,.05-.08Zm.3-3.38v.06a1.17,1.17,0,0,0,.21.4.53.53,0,0,0,.14.11l.07,0,.08,0a.17.17,0,0,0,.09-.14.41.41,0,0,0-.19-.39,1.07,1.07,0,0,0-.22-.1.16.16,0,0,0-.12,0l0,0Zm.16,1.14.05,0,0-.05,0,0L29,17.17a.21.21,0,0,0-.19,0,.12.12,0,0,0-.05.1.22.22,0,0,0,.06.13.94.94,0,0,0,.15.06h0a.12.12,0,0,0,.07,0ZM29.33,19a.1.1,0,0,0,0-.08l0,0-.05,0c-.06,0-.07.07-.07.09a.11.11,0,0,0,.07.1h0l0,0S29.33,19.05,29.33,19Zm.28,1.45v0l0,0,0-.05s-.08-.05-.12,0a.11.11,0,0,0-.08.08.17.17,0,0,0,.05.15l.09,0a.08.08,0,0,0,.07,0A.11.11,0,0,0,29.61,20.46Zm.13-2.38a.17.17,0,0,0,.22,0,.17.17,0,0,0,.05-.15.16.16,0,0,0-.17-.13l-.11,0-.05,0-.1,0,.06.09,0,0Zm.28,1.7a.19.19,0,0,0-.05-.14.07.07,0,0,0-.1,0,.18.18,0,0,0-.1.16.11.11,0,0,0,.06.07h.07l.06,0A.16.16,0,0,0,30,19.78ZM30,16a.25.25,0,0,0-.19-.12h-.05l0,0h0a.13.13,0,0,0,0,.09.3.3,0,0,0,.1.22l0,0a.12.12,0,0,0,.08,0h0a.18.18,0,0,0,.13-.09A.24.24,0,0,0,30,16Zm-2.39,5.81a.09.09,0,0,0,0,.1.1.1,0,0,0,.08,0h0l.14-.1-.07-.06a.14.14,0,0,0-.07,0A.11.11,0,0,0,27.64,21.77Zm-1.52,3.72,0-.11h0v-.09l-.09,0c-.05,0-.08,0-.08.06a.11.11,0,0,0,0,.11.09.09,0,0,0,.06,0l.05,0h.1Zm.54,1.16v-.06s0-.05,0-.07a.11.11,0,0,0-.11,0,.1.1,0,0,0-.06.1.11.11,0,0,0,.09.08h0a.08.08,0,0,0,.06,0Zm7.63,2a.07.07,0,0,0,0-.08l0-.06h-.07s0,0-.06.05a.1.1,0,0,0,0,.11.1.1,0,0,0,.09.06h0A.1.1,0,0,0,34.29,28.63Zm4.94-20.1a.12.12,0,0,0,0,.12.13.13,0,0,0,.11.07h0a.17.17,0,0,0,.13-.07.18.18,0,0,0,0-.13h0a.2.2,0,0,0-.06-.11.19.19,0,0,0-.13,0A.19.19,0,0,0,39.23,8.53Zm-.16,4.41a2.61,2.61,0,0,0,0,.39s0,.05,0,.07a.12.12,0,0,0,.11,0c.08,0,.12,0,.16.1a.11.11,0,0,0,.08.07h0a.15.15,0,0,0,.11,0l.16-.13.1-.08v-.07a.13.13,0,0,0-.05-.11,1.43,1.43,0,0,1-.31-.24l-.17-.14a.13.13,0,0,0-.1,0h0a.11.11,0,0,0-.11,0A.17.17,0,0,0,39.07,12.94ZM39,15.35a.11.11,0,0,0,0,.11.14.14,0,0,0,.12.06h0a.17.17,0,0,0,.12,0,.17.17,0,0,0,0-.12.33.33,0,0,0-.06-.1l0,0-.06-.09-.06.09,0,0A.21.21,0,0,0,39,15.35Zm-.21,2.06a.23.23,0,0,0-.3-.16.14.14,0,0,0-.08.07.12.12,0,0,0,0,.11.21.21,0,0,0,.18.12.37.37,0,0,0,.15-.05l0,0ZM38.2,8.67a.14.14,0,0,0,0,.11.26.26,0,0,0,.18.09h.21c.1,0,.15-.19.12-.3a.15.15,0,0,0-.09-.1.16.16,0,0,0-.15,0h0a.6.6,0,0,0-.16.08A.28.28,0,0,0,38.2,8.67ZM37,7.81a.17.17,0,0,0,.12.06h0a1.19,1.19,0,0,0,.22-.12.14.14,0,0,0,0-.17s-.06-.05-.09-.07h-.07a.3.3,0,0,0-.27.18A.11.11,0,0,0,37,7.81ZM36.86,11a.44.44,0,0,0,0,.37l.06.11.06-.11A.4.4,0,0,0,37,11l-.07-.17Zm-.3-3.15L36.8,8l.05-.25Zm-.28-3.09s.07.06.11.06h0l.29-.14a.11.11,0,0,0,.05-.11V4.47a.23.23,0,0,0-.12-.12.13.13,0,0,0-.12,0,.52.52,0,0,0-.27.26A.17.17,0,0,0,36.28,4.74ZM36.1,8.19s0,.06.09.08h0l.06,0,.06,0,0-.07a.07.07,0,0,0,0-.07.09.09,0,0,0-.1,0A.1.1,0,0,0,36.1,8.19Zm-.33,4.39a.31.31,0,0,0-.1.13h0l-.09.34.18-.18a.39.39,0,0,0,.33-.08l.1-.08q.09-.06.15,0a.57.57,0,0,1,.16.15.3.3,0,0,1,0,.09s0,.05,0,.07,0,0,0,.06a.23.23,0,0,0,.06.2.16.16,0,0,0,.13.06,1.78,1.78,0,0,1,.5.1l.18.06h0a.31.31,0,0,0,.13,0h0l.42-.1.09,0a.06.06,0,0,0,.06-.05.1.1,0,0,0,0-.09.57.57,0,0,0-.08-.13h0l.21-.32v-.07a.22.22,0,0,0,0-.08.13.13,0,0,0,0-.06s0,0,0-.07a.12.12,0,0,1,0-.07.11.11,0,0,1,.08,0h.09a.14.14,0,0,0,.14-.2v0a.32.32,0,0,0-.08-.12,1.72,1.72,0,0,0-1.3-.3.21.21,0,0,0-.13,0,.59.59,0,0,1-.16.07.36.36,0,0,0-.19.08.78.78,0,0,1-.2.11.61.61,0,0,0-.27.15.9.9,0,0,1-.26.17Zm.54,1.91,0-.05v-.09L36,14.4l.09.09h0v0a.1.1,0,0,0,.08.06l.16,0Zm-.77-1.38a.14.14,0,0,0-.16-.06l-.08.07a.08.08,0,0,1,0,0l-.07.08.1,0,.05,0a.23.23,0,0,0,.11,0h0a.11.11,0,0,0,.1-.06A.15.15,0,0,0,35.54,13.11ZM35.35,1.7a.77.77,0,0,0,.07.41l.06.17.06.14a.3.3,0,0,0,.1.14.29.29,0,0,0,.16.07h0a.09.09,0,0,0,.08,0,.17.17,0,0,0,0-.18,1.11,1.11,0,0,1-.13-.66,2.3,2.3,0,0,0,0-.26,1,1,0,0,1,0-.34c0-.06,0-.09-.09-.11h-.07a.23.23,0,0,0-.18.19c0,.06,0,.12,0,.19S35.36,1.6,35.35,1.7Zm-.23,6,.27,0-.11-.27Zm-.72.27a.12.12,0,0,0,0,.1.15.15,0,0,0,.09,0h0c.08,0,.17-.07.25-.12a.14.14,0,0,0,0-.12V7.74l0,0h0a.13.13,0,0,0-.14,0A.36.36,0,0,0,34.4,7.93ZM34.21,13h0v0s0,.06,0,.09a.22.22,0,0,0,.11.1h0a.15.15,0,0,0,.11,0l.48-.48a1.44,1.44,0,0,1,.53-.35l.14-.07a.23.23,0,0,0,.1-.2.19.19,0,0,0-.09-.18,1.13,1.13,0,0,0-.27-.13.23.23,0,0,0-.32.13c-.09.18-.18.23-.33.2a.14.14,0,0,0-.19.12,1,1,0,0,0,0,.25.17.17,0,0,1-.12.16A.36.36,0,0,0,34.21,13Zm.71,2.23-.07-.08s0-.06-.09-.05l-.08,0-.12.05.08.08a.08.08,0,0,0,.08.05h0l.07,0Zm-.27,2.34-.07,0,0,.06a.1.1,0,0,0,0,.09s0,.11.08.13h0l.07,0h0l.13,0Zm-.56.65.09.28.16-.25Zm-.08.37,0,0a.23.23,0,0,0-.1.15.13.13,0,0,0,.06.12,1.88,1.88,0,0,0,.23.16h.05a.11.11,0,0,0,.08,0,.16.16,0,0,0,0-.09.39.39,0,0,0-.14-.3.18.18,0,0,0-.09,0H34Zm-.4.93a.18.18,0,0,0,.08.15l.08,0a.19.19,0,0,0,.12,0l0,0v0l0,0,0-.05,0,0-.08-.09a.15.15,0,0,0-.17,0A.16.16,0,0,0,33.61,19.52Zm0-1.73a.22.22,0,0,0,.17-.23v0l0,0h0a.14.14,0,0,0-.13,0,.27.27,0,0,0-.15.12.17.17,0,0,0,0,.17.22.22,0,0,0,.13.06Zm.16-13.26a.11.11,0,0,0,.07,0h0a.17.17,0,0,0,.1-.2.31.31,0,0,0,0-.1l0,0,0-.06-.06,0,0,0a.12.12,0,0,0-.08.06A.21.21,0,0,0,33.78,4.53Zm-.29,12.14a.14.14,0,0,0-.09.13.14.14,0,0,0,0,.13.11.11,0,0,0,.09.05h0a.16.16,0,0,0,.11-.05l0,0,.08,0,0-.07,0,0a.2.2,0,0,0-.08-.08A.09.09,0,0,0,33.49,16.67Zm-.3-8.4.05.05s0,0,.08,0h0a.13.13,0,0,0,.09,0l.05-.06-.05,0s0-.05-.08-.05a.1.1,0,0,0-.09,0Zm-.32,10.31a.12.12,0,0,0,.12.11h0a.12.12,0,0,0,.09,0,.2.2,0,0,0,0-.14v0h0a.07.07,0,0,0,0-.06.11.11,0,0,0-.12,0A.15.15,0,0,0,32.87,18.58Zm-.08.39h0l-.09-.07,0,.13a.19.19,0,0,0,0,.07c0,.05,0,.07.06.09l.07.05,0-.07v0a.15.15,0,0,0,0-.08S32.81,19,32.79,19ZM32.71,8.46a.13.13,0,0,0-.17.08.17.17,0,0,0,.06.2l.06,0h.05a.18.18,0,0,0,.11-.1.12.12,0,0,0,0-.1A.18.18,0,0,0,32.71,8.46Zm-.26-.75a.43.43,0,0,0-.08.24.28.28,0,0,0,.09.22.17.17,0,0,0,.13,0h0a.13.13,0,0,0,.07,0,.1.1,0,0,0,0-.08c0-.1,0-.2,0-.3l0-.08.07-.12-.28,0Zm-.07,1.12a.22.22,0,0,0,.06-.13.14.14,0,0,0,0-.11.52.52,0,0,1-.2-.49.58.58,0,0,0,0-.23.64.64,0,0,0-.08-.14l0,0a.09.09,0,0,0-.08,0h-.06l0,0v0a.11.11,0,0,0,0,.1.56.56,0,0,0,0,.12.39.39,0,0,1,0,.3.18.18,0,0,0,0,.16l0,.09a1.23,1.23,0,0,0,.23.33.17.17,0,0,0,.1,0Zm-.16,9.28a.17.17,0,0,0,.05.16l.07,0h0a.12.12,0,0,0,.08-.1h0l0-.18-.08,0h0S32.23,18.06,32.22,18.11Zm-.35,2.08a.16.16,0,0,0,.15.17h.21l0,0a.38.38,0,0,0,.13-.06.18.18,0,0,0,.07-.21.19.19,0,0,0-.18-.14L32,20A.18.18,0,0,0,31.87,20.19Zm-.49-2a.23.23,0,0,0,.1.14l.1,0a.13.13,0,0,0,.08,0s.05,0,.07-.08,0,0,0,0l0-.05-.05,0,0,0L31.62,18a.19.19,0,0,0-.22.05A.3.3,0,0,0,31.38,18.17Zm.34,2,0,0a.36.36,0,0,0-.07-.1.16.16,0,0,0-.12,0,.17.17,0,0,0-.11.06l0,.06a.21.21,0,0,0,0,.16.16.16,0,0,0,.13.06h0l.1,0,.05,0,.09,0Zm-.42-.6s.05.05.07.06h.05l0,0,0,0a.27.27,0,0,0,.08-.07s0-.1,0-.14,0,0-.05-.06-.05,0-.08,0h0a.42.42,0,0,0-.12.08S31.28,19.56,31.3,19.61ZM31,20.72l-.13.27h.25Zm-.19-1.3a.27.27,0,0,0-.22,0h-.08l0,.08a.5.5,0,0,0,.18.22.11.11,0,0,0,.08,0h0a.15.15,0,0,0,.07-.07.11.11,0,0,0,0-.08A.24.24,0,0,0,30.79,19.42Zm-.32-3.82,0,.07h0a.1.1,0,0,0,0,.11.13.13,0,0,0,.09,0l0,0a.12.12,0,0,0,.05-.1.11.11,0,0,0,0-.06v-.05h-.21Zm.05,1.83-.11-.27-.16.25Zm-.13,1.05a.33.33,0,0,0,.16.05h0a.18.18,0,0,0,.16-.13.14.14,0,0,0,0-.11.2.2,0,0,0-.12-.08h-.18a.18.18,0,0,0-.1.12A.16.16,0,0,0,30.39,18.48Zm0,.46a.14.14,0,0,0,.1,0h0a.18.18,0,0,0,.1,0l0,0,.06,0,0-.06a0,0,0,0,1,0,0,.47.47,0,0,0-.06-.09.19.19,0,0,0-.13,0,.14.14,0,0,0-.09.08A.17.17,0,0,0,30.41,18.94ZM34.6,23l-.1-.13-.06.06a.12.12,0,0,0,0,.08.11.11,0,0,0,0,.11h.11a.1.1,0,0,0,0-.08Zm.48-.1.27.05L35,22.7l0,0-.08,0,0,.09,0,0a.14.14,0,0,0,0,.12A.12.12,0,0,0,35,23h0a.11.11,0,0,0,.07-.06l0,0Zm1.52-.48.3-.15.13-.05a.23.23,0,0,1,.18,0l.15,0h.12v-.07a1.19,1.19,0,0,0,0-.46v-.05h-.06a.46.46,0,0,0-.31.11l-.1.08a.67.67,0,0,1-.29.15.58.58,0,0,0-.3.16.42.42,0,0,1-.16.11l-.11,0-.12,0-.12,0-.11,0a.18.18,0,0,0-.11.14.1.1,0,0,0,0,.1.21.21,0,0,0,.12,0h0l.08,0,0,0A1.21,1.21,0,0,0,36.6,22.42Zm1.29.29a.26.26,0,0,0,0-.15s0,0,0,0a.33.33,0,0,0-.15-.24h0a.75.75,0,0,0-.36.13l-.11.07h0v0a.66.66,0,0,1-.4.24,1.08,1.08,0,0,0-.51.32h0a.29.29,0,0,0,0,.22.13.13,0,0,1,0,.06.22.22,0,0,1-.1.23.37.37,0,0,0-.15.3.18.18,0,0,0,.15.18h.07a.14.14,0,0,0,.13-.06.41.41,0,0,0,0-.09.59.59,0,0,1,0-.08l.12-.15a2.36,2.36,0,0,0,.26-.36.11.11,0,0,1,.07,0h.42l.06,0a.46.46,0,0,1,.14-.07.73.73,0,0,0,.37-.46ZM40,19.52c0-.05,0-.09,0-.14a.24.24,0,0,0-.05-.13,1.71,1.71,0,0,1-.17-.33,2.06,2.06,0,0,0-.12-.26l0,0h0a.38.38,0,0,0-.1,0,.59.59,0,0,1-.16-.07c-.17-.13-.28,0-.38,0a.33.33,0,0,1-.18.05.71.71,0,0,1-.21,0,.39.39,0,0,0-.39.07.3.3,0,0,1-.33,0,1,1,0,0,0-.86,0,.25.25,0,0,1-.13,0h-.28a.31.31,0,0,0-.21.11.66.66,0,0,1-.44.31h0l-.18.08-.08.05-.09,0a.85.85,0,0,1-.22.09,1.31,1.31,0,0,0-.45.24.25.25,0,0,1-.13,0,1,1,0,0,0-.67.24.18.18,0,0,1-.2,0,.23.23,0,0,0-.15,0l-.25.09a2.34,2.34,0,0,0-.61.26.42.42,0,0,1-.28.08,1.08,1.08,0,0,0-.65.14.52.52,0,0,1-.25.07h-.05a.26.26,0,0,0-.26.3.35.35,0,0,1-.12.29l-.11.08a1.27,1.27,0,0,0-.59.74.08.08,0,0,1,0,.05,1.78,1.78,0,0,0-.37.6.76.76,0,0,1-.08.11l0,0-.23.25a.73.73,0,0,0-.24.46.27.27,0,0,1-.18.24h0A1,1,0,0,1,29,24c-.12,0-.17.12-.2.16v.05a.35.35,0,0,0,.17.2l0,0a.11.11,0,0,1,.06.11v.15a1,1,0,0,1-.09.48,1.32,1.32,0,0,0-.1.3,1.77,1.77,0,0,0,0,.23v.07a.11.11,0,0,0,.1.11H29a.16.16,0,0,0,.09,0,1,1,0,0,0,.17-.19l.18-.27a4.55,4.55,0,0,0,.39-.64.14.14,0,0,1,.13-.09.39.39,0,0,0,.38-.24c0-.1.1-.13.24-.15a.52.52,0,0,0,.23-.1l.05,0A.2.2,0,0,0,31,24a.21.21,0,0,0-.07-.17c-.19-.17-.19-.17-.11-.36l.08-.17a.16.16,0,0,1,.17-.06l.12.05.1,0a.22.22,0,0,0,.26-.07l.06-.08.08-.1a.09.09,0,0,1,.12,0,.12.12,0,0,1,0,.13.47.47,0,0,1-.35.29.22.22,0,0,0-.12.07.2.2,0,0,0-.06.13.15.15,0,0,0,.08.13.29.29,0,0,0,.31,0,1.14,1.14,0,0,1,.38-.13h0a3.31,3.31,0,0,1,.55-.08h.16a.28.28,0,0,0,.25-.26v-.41l-.05,0h0l-.11,0a.33.33,0,0,1-.2-.23.06.06,0,0,1,0,0,.2.2,0,0,1,.23-.07.19.19,0,0,1,.16.12.36.36,0,0,1,0,.1.19.19,0,0,0,0,.08.21.21,0,0,0,.11.16.22.22,0,0,0,.2,0,.66.66,0,0,0,.19-.09.32.32,0,0,0,.12-.42.37.37,0,0,1,0-.2,2.4,2.4,0,0,1,0-.28.19.19,0,0,1,.2-.16,1.07,1.07,0,0,1,.4.14h0v0s0,.1,0,.12a1.07,1.07,0,0,1-.14.16l-.09.08a.19.19,0,0,0,0,.09v0l0,0s.08.06.13.05a1.8,1.8,0,0,0,.59-.29.2.2,0,0,0,.09-.25.46.46,0,0,1,.12-.51.75.75,0,0,0,.09-.15l.06-.1,0,0,.19.07.13,0c.24.08.24.08.29.39v.05h0a.35.35,0,0,0,.32-.1.26.26,0,0,0,.09-.18.18.18,0,0,0-.09-.13.84.84,0,0,1-.36-.5.31.31,0,0,1,0-.19.14.14,0,0,1,.09-.08.08.08,0,0,1,.08,0c.15.09.29.19.44.3l0,0,0,0a.15.15,0,0,1,0,.22v0a.27.27,0,0,0-.05.18.14.14,0,0,0,0,.1.14.14,0,0,0,.14,0l.32-.2a.19.19,0,0,0,.05-.1l0,0v0l0,0,0,0a.55.55,0,0,0-.11-.1,1.25,1.25,0,0,1-.21-.24l-.08-.12s0-.05,0-.09a.26.26,0,0,1,.09-.15.23.23,0,0,1,.25,0l.08.05a.57.57,0,0,0,.13.08.38.38,0,0,0,.21,0h0a.12.12,0,0,0,.09-.08.13.13,0,0,0,0-.11l-.21-.26,0,0h0a.39.39,0,0,1,.11-.06h0l0,0,.06.06.09,0,0,0a.16.16,0,0,1,.09.11.15.15,0,0,1,0,.11l0,0,0,.06a.24.24,0,0,0,.06.35.23.23,0,0,0,.26,0l.08-.05.21-.15a2.83,2.83,0,0,0,.25-.24l.07-.07a.12.12,0,0,0,0-.11.18.18,0,0,0-.09-.13.71.71,0,0,0-.29-.05H38c-.06,0-.1,0-.15-.13a.13.13,0,0,1,.06-.2l.13-.06.09,0h0l0-.13.06-.22a.29.29,0,0,1,.16-.17s.07,0,.07,0a.51.51,0,0,1,.07.15.72.72,0,0,1,0,.36.32.32,0,0,0,0,.25l0,0h.1l.12,0A.18.18,0,0,1,39,20a.15.15,0,0,1,0,.13l0,.07a.53.53,0,0,0,0,.17.55.55,0,0,1-.22.41l-.16.14-.14.11,0,0-.26.23c-.19.17-.35.38-.16.68a.15.15,0,0,1,0,.1h0a.1.1,0,0,0-.09.16.12.12,0,0,0,.12,0l.08,0,.09,0v-.08l0,0a.43.43,0,0,1,.33-.15,1,1,0,0,0,.51-.08l.15,0h.12a.18.18,0,0,0,.12-.12.19.19,0,0,0,0-.19.24.24,0,0,0-.05-.1.24.24,0,0,1,0-.32c0-.05.05-.09.07-.14s.16-.27.25-.39A1.29,1.29,0,0,0,40,19.52Zm0-11,0-.06v0a.11.11,0,0,0-.15-.11.11.11,0,0,0-.07.1s0,.06,0,.08v0l0,.09Zm.4,21.76a.19.19,0,0,0-.09-.11s-.09-.06-.18,0a.33.33,0,0,0-.07.34l0,.05,0,0h0l.07,0A.29.29,0,0,0,40.41,30.23Zm.09-12.6v-.05a.22.22,0,0,0,0-.08.18.18,0,0,0-.08-.14.25.25,0,0,0-.17,0s-.13.07-.12.14a2.46,2.46,0,0,0,.07.29s0,.07.11.09h.1a.11.11,0,0,0,.07-.08l0-.1ZM41,14.55a.07.07,0,0,0,0-.06v-.07l0,0,0,0a.19.19,0,0,0-.1-.06.16.16,0,0,0-.2.09.2.2,0,0,0,0,.15.18.18,0,0,0,.16.08h0A.19.19,0,0,0,41,14.55Zm.21,2.86v0h0a.09.09,0,0,0,0,0,.2.2,0,0,0-.19,0,.19.19,0,0,0-.06.15c0,.05,0,.1,0,.14l0,0,0,0H41A.3.3,0,0,0,41.18,17.41Zm.13-9,0,0h0s-.06-.06-.11,0l-.31.13a.15.15,0,0,0-.07.09v0l0,.06.07,0,0,0a.18.18,0,0,0,.1,0h0a1.83,1.83,0,0,0,.24-.13l0,0s0-.07,0-.1ZM41.64,19l-.12-.14-.14.12,0,.06a.09.09,0,0,0,.07,0h0a.15.15,0,0,0,.08,0Zm.55-.16,0-.05-.09-.09,0,.1a.11.11,0,0,0,0,.08A.19.19,0,0,0,42,19l0,.12.08-.07,0-.05A.11.11,0,0,0,42.19,18.85Zm1.29,2.37,0,0a.35.35,0,0,0-.35-.05.17.17,0,0,0-.09.08.12.12,0,0,0,0,.12.23.23,0,0,0,.05.1.22.22,0,0,0,.18.11h0a.23.23,0,0,0,.16-.1l.06-.13,0,0Zm2,6.26a.81.81,0,0,0-.15-.31v0a.23.23,0,0,0-.1,0,.2.2,0,0,0-.14,0h0a.86.86,0,0,0-.14.13.31.31,0,0,0,0,.24.21.21,0,0,0,.15.14l.06,0a.6.6,0,0,0,.23.06h.09v0A.28.28,0,0,0,45.44,27.48Zm.94-2.12-.29-.15,0,.23Zm.92-1.53a.13.13,0,0,0,0-.12.15.15,0,0,0-.11,0,.13.13,0,0,0,0,.09l-.07.07.12,0h0l.07.07,0-.08A.1.1,0,0,0,47.3,23.83Zm1.18,5.91v-.09a1.77,1.77,0,0,0,0-.2.15.15,0,0,0-.19-.11.29.29,0,0,0-.16.09.17.17,0,0,0,0,.23.32.32,0,0,1,.14.23c0,.05.06.08.09.09h.07a.16.16,0,0,0,.05-.06.52.52,0,0,1,0-.11ZM49.2,14a.15.15,0,0,0-.08-.12.31.31,0,0,0-.15,0,.08.08,0,0,0-.09,0,.16.16,0,0,0,0,.16,1.05,1.05,0,0,0,.17.31l.15.2,0-.22A.61.61,0,0,0,49.2,14Zm0,.72h-.06l0,0a.08.08,0,0,0,0,.07c0,.08.05.1.08.1h0s.06,0,.09-.07a.11.11,0,0,0,0-.11A.08.08,0,0,0,49.21,14.72Zm-.46,2.37a.17.17,0,0,0,0,.28h0a.19.19,0,0,0,.13-.05.15.15,0,0,0,.06-.13.22.22,0,0,0-.05-.11h0l0,0h0A.2.2,0,0,0,48.75,17.09Zm-.22,5.12a.38.38,0,0,0-.15,0h-.13v.1a.11.11,0,0,0,0,.07c.1.15.17.21.3.21l.16,0a.19.19,0,0,0,.1-.1h0a.08.08,0,0,0,0-.07.22.22,0,0,0-.05-.06l-.06,0A1,1,0,0,0,48.53,22.21Zm0-7.8v0a.83.83,0,0,0-.22-.47l-.11-.08h0a.13.13,0,0,0-.12,0,.11.11,0,0,0-.07.09h0a.25.25,0,0,0,0,.17,3.7,3.7,0,0,0,.25.43l0,.06a.11.11,0,0,0,.1.05h0a.11.11,0,0,0,.09-.07.37.37,0,0,1,0-.09ZM48,24.4a.18.18,0,0,0-.06.16.22.22,0,0,0,.09.14.13.13,0,0,0,.09,0h0l0,0s.07-.09,0-.14a.83.83,0,0,0-.08-.12l0,0,0-.08ZM48.74,29l.14.07h.06a.33.33,0,0,0,.17-.18.21.21,0,0,0,0-.17.51.51,0,0,1-.06-.25,1.62,1.62,0,0,0,0-.2l0,0h0a.28.28,0,0,0-.26.09l0,0a.86.86,0,0,0-.26.31l-.06.08a.1.1,0,0,0,0,.13.12.12,0,0,0,.1,0A.49.49,0,0,1,48.74,29Zm.35,5.78H49c-.14,0-.17,0-.23,0a.23.23,0,0,0-.09.25.18.18,0,0,0,.17.13h0A.19.19,0,0,0,49,35s0-.06,0-.09Zm0-.46a.08.08,0,0,0,0-.07h0l0-.07-.06,0a.09.09,0,0,0-.07,0,.11.11,0,0,0,0,.11.1.1,0,0,0,.09.06h0S49.09,34.43,49.11,34.36Zm.08-4.57a.67.67,0,0,1-.07-.34.61.61,0,0,0,0-.14v0a.11.11,0,0,0-.05-.08l0,0h0a.21.21,0,0,0-.12,0,.25.25,0,0,0-.06.14v.21h0l0,.17,0,.29s0,.05,0,.07a.17.17,0,0,0,.09,0h0c.11,0,.19-.07.22-.14A.27.27,0,0,0,49.19,29.79Zm.1-11.87a.18.18,0,0,0-.1-.15.2.2,0,0,0-.19.05.22.22,0,0,0-.08.19.13.13,0,0,0,.08.08h0l0,0h0A.25.25,0,0,0,49.29,17.92Zm.79,10.77a.54.54,0,0,0,0-.21,1.52,1.52,0,0,1-.17-.56.19.19,0,0,0,0-.09l-.06,0-.06,0,0,0v0a.11.11,0,0,0,0,.11,1.84,1.84,0,0,1,.08.42l0,.27a.58.58,0,0,0,0,.14s0,0,0,0a.14.14,0,0,0,.11.08h0a.11.11,0,0,0,.11-.06h0A.33.33,0,0,0,50.08,28.69Zm.44-10.29.21-.27a.24.24,0,0,0,.05-.17.27.27,0,0,0-.12-.18.2.2,0,0,0-.17,0l-.08.07a.28.28,0,0,1-.09.07.73.73,0,0,0-.41.38.6.6,0,0,1-.11.12l-.07.07a.12.12,0,0,0,0,.14.11.11,0,0,0,.09.05h0a1.91,1.91,0,0,1,.36-.07h.17Zm.19,8.32a.11.11,0,0,0,.13,0s.08-.07.07-.13a1.6,1.6,0,0,0,0-.21v-.06h0v0h0a.27.27,0,0,1,.18.13,2.25,2.25,0,0,1,.3.88.85.85,0,0,0,.08.24l0,.05a.17.17,0,0,0,.16.11h0a.17.17,0,0,0,.15-.16.37.37,0,0,0,0-.18,2.52,2.52,0,0,0-.14-.33l0-.11a1.17,1.17,0,0,0-.13-.46,1.39,1.39,0,0,1-.12-.32h0v0a2,2,0,0,1-.28-.68.51.51,0,0,0-.23-.3.18.18,0,0,0-.23,0,.33.33,0,0,0-.07.39l.13.18a.86.86,0,0,1,.07.1.14.14,0,0,1,0,.14l-.07.08a.64.64,0,0,0-.14.21A.44.44,0,0,0,50.71,26.72ZM52,31.22a.15.15,0,0,0,.11,0h0a.15.15,0,0,0,.09-.06c0-.06.07-.15,0-.21L52,30.82,52,30.76l-.08-.08,0,.11A.35.35,0,0,0,52,31.22Zm-.08-5.42s0,0,0,0l0,0v-.07a.47.47,0,0,0,0-.1.18.18,0,0,0-.17,0,.17.17,0,0,0-.1.15.3.3,0,0,0,.07.15.15.15,0,0,0,.12.05h0A.13.13,0,0,0,51.87,25.8Zm.41-.43h.07a.11.11,0,0,0,.07-.13c0-.12-.05-.24-.08-.38l0-.13,0,0,0,0-.11-.06A1.33,1.33,0,0,0,51,24.36a.11.11,0,0,0-.08.11h0a.26.26,0,0,0,.05.12.4.4,0,0,0,.16.08h.23l.39.13.13,0,0,.09c0,.08.09.16.14.24a.57.57,0,0,0,.16.15ZM51,26.83l-.17.27.24.06Zm-.21,6.51.08.2.06-.21s0-.08,0-.12A1.29,1.29,0,0,1,51,33a.84.84,0,0,0,0-.41.15.15,0,0,0-.06-.11.08.08,0,0,0-.09,0,.2.2,0,0,0-.15.1.62.62,0,0,0,0,.66l0,.08S50.79,33.32,50.8,33.34Zm.27,1.13-.1-.21-.07.11h0a.15.15,0,0,0,0,.09.19.19,0,0,0,0,.13.09.09,0,0,0,.08,0h0a.16.16,0,0,0,.09-.15Zm.08-6.41h.11a.35.35,0,0,0,.17-.23.17.17,0,0,0-.1-.14.2.2,0,0,0-.25.08.24.24,0,0,0,0,.24s0,0,.05.05Zm1.17,4.65-.06-.13-.12-.28-.06-.07a.11.11,0,0,0-.13,0l-.12.15c-.11.15-.15.16-.33.1l-.08,0-.12-.05,0,.08v0a.29.29,0,0,0,0,.09,1.55,1.55,0,0,0,0,.22,1.79,1.79,0,0,1-.08.57.49.49,0,0,0,0,.24.78.78,0,0,0,.05.14.29.29,0,0,1,0,.09s0,0,0,.05a.17.17,0,0,0,0,.19l0,0,.07,0,0,0a.32.32,0,0,0,.13-.46s0-.08,0-.16l.09-.16a1.28,1.28,0,0,0,.16-.38l0,0,0,0,.05,0a.48.48,0,0,1,0,.12.09.09,0,0,0,0,.05.13.13,0,0,1,0,.06.34.34,0,0,0,0,.27l0,0h0c.25-.05.27-.21.26-.3a.78.78,0,0,1,.06-.36Zm.41-.93a.2.2,0,0,0-.06-.12h0a.45.45,0,0,0-.14-.34.17.17,0,0,0-.14,0,.12.12,0,0,0-.1.06.17.17,0,0,0,0,.15.51.51,0,0,0,.25.27v0h0a.12.12,0,0,0,.08.09h0a.09.09,0,0,0,.07,0A.13.13,0,0,0,52.73,31.78Zm-.25-8.89-.18-.05-.13-.05a.31.31,0,0,0-.13-.06l-.24-.07a.21.21,0,0,0-.14,0,.17.17,0,0,0-.09.11.31.31,0,0,0,.06.25.35.35,0,0,0,.13.08h0l.15.08.1.05,0,0a.31.31,0,0,0,.14.07l.19,0a.66.66,0,0,0,.27-.06l.06,0-.12-.39h0ZM52,21.56a.16.16,0,0,0,0,.11.11.11,0,0,0,0,.12.16.16,0,0,0,.09,0h0a.19.19,0,0,0,.1,0l.05,0,.1-.06-.1-.06-.05,0-.1,0A.14.14,0,0,0,52,21.56Zm-.26-1.69a.12.12,0,0,0,.07.1h0a.09.09,0,0,0,.07,0l.06-.06,0-.06a.1.1,0,0,0-.1,0A.13.13,0,0,0,51.74,19.87Zm-.28-1.1a.16.16,0,0,0,.08.1l.08,0h.05a.11.11,0,0,0,.08-.08.22.22,0,0,0,0-.16.15.15,0,0,0-.1-.09h0l0,0,0,0a.18.18,0,0,0-.08.07A.12.12,0,0,0,51.46,18.77Zm-.27,1.82a.11.11,0,0,0-.11,0,.17.17,0,0,0-.13.08,1.64,1.64,0,0,0-.12.22.22.22,0,0,0,0,.18.13.13,0,0,0,.09.09c.08,0,.13.07.2.13a.77.77,0,0,0,.19.16l0,0,.51-.15v-.06a.38.38,0,0,0-.25-.36A1.56,1.56,0,0,1,51.19,20.59Zm-.11-.93a.09.09,0,0,0,0-.07.11.11,0,0,0-.12,0,.1.1,0,0,0,0,.19h0a.08.08,0,0,0,.06,0l.06,0ZM49.4,16.4a.43.43,0,0,0-.1.09l0,0a.27.27,0,0,0-.07.21.21.21,0,0,0,.11.19.23.23,0,0,0,.25.05,1.29,1.29,0,0,0,.39-.25.77.77,0,0,1,.13-.12.2.2,0,0,1,.18,0,.12.12,0,0,1,0,.14l0,0a.52.52,0,0,1-.06.13l-.1.14L50,17.2a.18.18,0,0,0,0,.1v0a.08.08,0,0,0,0,.08.2.2,0,0,0,.17,0h0l.06.1a.28.28,0,0,0,.14.12l.12,0a.39.39,0,0,0,.34-.19.5.5,0,0,0,0-.69,1,1,0,0,0-.14-.15h0c-.07-.07-.06-.11,0-.16a.25.25,0,0,0-.07-.39.33.33,0,0,1-.15-.27.73.73,0,0,0-.16-.39.13.13,0,0,0-.12-.06.16.16,0,0,0-.12,0,.86.86,0,0,0-.22.42s0,0,0,.07a.36.36,0,0,1,0,.11.38.38,0,0,1-.19.26Zm0-2.82,0,0h0a.24.24,0,0,0-.15.13.19.19,0,0,0,0,.15.17.17,0,0,0,.14.09h0a.15.15,0,0,0,.14-.09.34.34,0,0,0,0-.17s0-.07-.06-.09ZM48,12.38a.22.22,0,0,0,0,.18.21.21,0,0,0,.14.1h.14l.09,0a2.39,2.39,0,0,0,.23.22,1.9,1.9,0,0,1,.25.24,2.29,2.29,0,0,0,.21.23l0,0-.07.16.32-.19-.08-.05,0-.16a1.7,1.7,0,0,1,0-.22.39.39,0,0,0-.15-.47l-.56-.38,0,0a.48.48,0,0,0-.33-.06.26.26,0,0,0-.21.14A1.08,1.08,0,0,0,48,12.38Zm-.27.7.53.51h0l.07.07v0l.14.08-.08-.18a.14.14,0,0,0,0-.06c0-.07,0-.1,0-.12a.11.11,0,0,0-.12,0s0,0-.06,0Zm-.11,12.41a.11.11,0,0,0,.1.06h0a.12.12,0,0,0,.1-.09h0a.43.43,0,0,0,.16,0s.1,0,.11-.08a.2.2,0,0,0,0-.1.13.13,0,0,0-.1,0h0a.22.22,0,0,0-.18.06l-.08,0v.09a.12.12,0,0,0-.05.05A.11.11,0,0,0,47.65,25.49Zm-.29,5.23a.24.24,0,0,0,.1.19c.17.1.35.18.52.26l.06,0,.07,0a.23.23,0,0,0,.12-.12.25.25,0,0,0,0-.19.19.19,0,0,0-.11-.07.39.39,0,0,1-.28-.16c-.06-.08,0-.12,0-.15a.5.5,0,0,0-.11-.53v0a.1.1,0,0,0-.09,0h-.06l0,0h0s-.08.06-.09.12C47.36,30.25,47.36,30.48,47.36,30.72Zm-.39,4a1.12,1.12,0,0,0,.15.41.07.07,0,0,0,.07,0l.06,0h0c.05,0,.06-.07.07-.08a.36.36,0,0,0,0-.39l-.12-.11-.06,0-.07-.07,0,.09,0,0A.13.13,0,0,0,47,34.69Zm-.76-4.52a2.61,2.61,0,0,1,.06.69V31a.61.61,0,0,0,0,.3.34.34,0,0,1,0,.31.25.25,0,0,0,0,.19s.06.06.09.07h0l0,0,0,0,0,0a.29.29,0,0,0,.07-.08,1.87,1.87,0,0,0,0-.25,1.23,1.23,0,0,0,0-.19,2.2,2.2,0,0,1,.05-.37,5.07,5.07,0,0,0,.13-.56c0-.12.05-.25.08-.38a.41.41,0,0,0-.19-.45.18.18,0,0,0-.14,0,.39.39,0,0,0-.29.18A.64.64,0,0,0,46.21,30.17Zm-.75,1.38a1,1,0,0,1,.14.57.62.62,0,0,0,0,.12,1.06,1.06,0,0,1,0,.14h.14a2.35,2.35,0,0,1,0-.28c0-.19,0-.33,0-.48v-.06a1,1,0,0,1,0-.25,1.63,1.63,0,0,0,.06-.72v-.17c0-.08-.08-.12-.14-.16h-.06a.24.24,0,0,0-.11.09.64.64,0,0,0,0,.17c0,.09,0,.19,0,.29V31a.15.15,0,0,1,0,.07.45.45,0,0,1,0,.23A.27.27,0,0,0,45.46,31.55ZM44.88,33a.17.17,0,0,0,.06.08v0l0,0,0,0a.25.25,0,0,0,.16-.32,1.18,1.18,0,0,1-.06-.49.81.81,0,0,0,0-.16,1.11,1.11,0,0,1,.09-.57h0v-.41s0,0,0-.07a.14.14,0,0,0-.17-.09.16.16,0,0,0-.12.08,3.59,3.59,0,0,0-.22.9V32A1.85,1.85,0,0,0,44.88,33Zm-.5,2.9a.63.63,0,0,0-.11.57l0,.2.15-.29.14-.29a.22.22,0,0,0,0-.14h0a.16.16,0,0,0-.09-.08A.15.15,0,0,0,44.38,35.86Zm-.28-4a.86.86,0,0,1,0,.23.66.66,0,0,1,0,.14,1.42,1.42,0,0,0,0,.2.17.17,0,0,0,.14.09h0s.13-.06.13-.13,0-.1,0-.15a1.61,1.61,0,0,1,0-.22v0a1.15,1.15,0,0,0,0-.37v-.06a.55.55,0,0,0,0-.18,1,1,0,0,0-.08-.25.16.16,0,0,0-.14-.08.06.06,0,0,0-.07,0,.13.13,0,0,0-.05.09.57.57,0,0,0,0,.13,1.15,1.15,0,0,1,0,.19A.63.63,0,0,0,44.1,31.9Zm.07,1.53a.39.39,0,0,0,.17.06h0c.08,0,.11-.12.11-.15a.38.38,0,0,0-.13-.36.21.21,0,0,0-.1,0h-.06l0,0,0,0a.13.13,0,0,0-.06.08A.33.33,0,0,0,44.17,33.43Zm-.69-.88.05.11c0,.1.09.19.13.28a.08.08,0,0,0,.08.05h.11V32.3a.08.08,0,0,0,0-.07v0l-.06-.06-.05.07,0,0a.35.35,0,0,0,0,.08l-.09.14Zm-.73.3c0,.16.07.31.11.45s0,.11,0,.17l0,.05c0,.09.09.13.15.14h0a.09.09,0,0,0,.08,0h0a.24.24,0,0,0,.1-.14c0-.11,0-.23,0-.3v0a1.67,1.67,0,0,0-.18-1,.12.12,0,0,0-.12-.06s-.1.05-.09.11,0,.16,0,.2A.47.47,0,0,0,42.75,32.85Zm-.25,1.53a.33.33,0,0,0-.2.09.27.27,0,0,0-.08.19.21.21,0,0,0,.08.16.28.28,0,0,0,.09.07l.12,0h.08a.22.22,0,0,0,.11-.1l.08-.2,0-.07s0,0,.07-.06l.28.15L43,34.38a.35.35,0,0,1,.08-.12.39.39,0,0,0,.08-.1.21.21,0,0,0,0-.26.46.46,0,0,0-.07-.07l0,0-.08-.08,0,.11,0,.11c0,.08-.06.16-.08.23a.38.38,0,0,0,0,.15.47.47,0,0,0-.17,0h-.05ZM42.1,33a.74.74,0,0,0,0,.14,1.16,1.16,0,0,1,0,.18,1.06,1.06,0,0,1,0,.25s0,.08,0,.12v.06l.2,0,0-.24c0-.13,0-.27,0-.41a1.09,1.09,0,0,0,0-.18v-.06a.21.21,0,0,0-.07-.13.17.17,0,0,0-.12,0,.18.18,0,0,0-.14.15v0A.34.34,0,0,0,42.1,33Zm-12.79.71c0-.06,0-.1,0-.11a.08.08,0,0,0-.09,0,.08.08,0,0,0-.06.09.11.11,0,0,0,0,.12l.06,0h0a.09.09,0,0,0,.06-.09Zm.72-.17s-.07-.08-.11-.07a.17.17,0,0,0-.11.06c-.1.13-.06.23,0,.34a.07.07,0,0,0,.07,0h0l0,0,.05,0A.35.35,0,0,0,30,33.51Zm3.22.58a.11.11,0,0,0-.09-.07L32.88,34l-.16,0,0,0-.08.08a1,1,0,0,0-.15.14.59.59,0,0,0-.13.31.21.21,0,0,0,.16.21l.17,0a.38.38,0,0,0,.36-.22l.13-.18a.83.83,0,0,0,.08-.12A.13.13,0,0,0,33.25,34.09Zm.65.13v.07a.36.36,0,0,0,.14.27.48.48,0,0,0,.31.13h0a.17.17,0,0,0,.13-.08.23.23,0,0,0,.07-.17.5.5,0,0,0,0-.13.15.15,0,0,1,0-.12l.06-.24v-.09h0a.3.3,0,0,0-.1-.23.36.36,0,0,0-.26-.1s-.16,0-.18.11,0,.09-.06.15a.79.79,0,0,0-.09.45Zm.64,1.05a1.12,1.12,0,0,1,0-.13c-.06-.32-.1-.34-.4-.37H34a.15.15,0,0,0-.14.07.17.17,0,0,0,0,.17,1.54,1.54,0,0,0,.57.67l.06,0,.08,0a.12.12,0,0,0,.07-.09A.41.41,0,0,0,34.54,35.27Zm.82-1a.12.12,0,0,0,.08.09.49.49,0,0,0,.15,0,.25.25,0,0,0,.19-.07l0,0,0,0a.29.29,0,0,0-.3-.19.19.19,0,0,0-.12.09A.14.14,0,0,0,35.36,34.3Zm.47.37a.17.17,0,0,0-.09-.07h-.07l-.23,0a.34.34,0,0,0-.33.3.87.87,0,0,1-.11.38.84.84,0,0,0-.12.6l0,.07a1.5,1.5,0,0,0,0,.22c0,.07.07.12.12.15l.06,0a.35.35,0,0,0,.11,0,.26.26,0,0,0,.08-.11,2.09,2.09,0,0,1,.34-.5.29.29,0,0,0,.06-.25.2.2,0,0,1,0-.18l0,0a.76.76,0,0,1,.13-.23.27.27,0,0,0,.06-.12v0A.19.19,0,0,0,35.83,34.67Zm.9.53a.13.13,0,0,0-.06-.08h0l0,0,0,0a.21.21,0,0,0-.14.26.12.12,0,0,0,.08.09h0s.07,0,.08,0A.23.23,0,0,0,36.73,35.2Zm.49-1a.37.37,0,0,0-.09-.27l0-.07A.9.9,0,0,0,37,33.8s0-.06-.07-.12l-.14-.21v.71a.69.69,0,0,1-.07.39.23.23,0,0,0,0,.14.27.27,0,0,0,.06.1.07.07,0,0,0,.06,0,.15.15,0,0,0,.08,0,.12.12,0,0,0,0,0l0,0A.74.74,0,0,0,37.22,34.25Zm2.17,0a1.4,1.4,0,0,1,0-.64,1.09,1.09,0,0,0,0-.26.16.16,0,0,0-.12-.13,3.42,3.42,0,0,0-.44,0,.31.31,0,0,0-.17,0l-.09.06-.07,0a.46.46,0,0,0-.26.42v0a.2.2,0,0,0,.05.2.17.17,0,0,0,.1,0c.06,0,.11-.07.18-.19v0l0-.08h0l0,0s.07.07.08.11a.65.65,0,0,1,0,.2.56.56,0,0,0,.05.28.43.43,0,0,0,0,0l-.16.61a.12.12,0,0,1-.11.05.14.14,0,0,1-.13-.11s0-.05,0-.08a.13.13,0,0,0,0-.06.77.77,0,0,0,0-.15.21.21,0,0,0-.07-.17.14.14,0,0,0-.12,0,.18.18,0,0,0-.14.16.7.7,0,0,0,0,.21.54.54,0,0,1-.12.36.53.53,0,0,0-.06.48c0,.07.1.12.16.13h.11a.39.39,0,0,0,.27-.1,4.55,4.55,0,0,1,.87-.63l0,0v0a.49.49,0,0,0,0-.12c0-.07,0-.13,0-.19A.75.75,0,0,0,39.39,34.26Zm1.32-.65a.88.88,0,0,0-.38-.54.28.28,0,0,0-.25,0l0,0h0a.25.25,0,0,0-.15.19.21.21,0,0,0,.12.18l0,0a1.06,1.06,0,0,1,.23.19.24.24,0,0,1,0,.25,1.67,1.67,0,0,0,0,.18l0,.07v.15a.19.19,0,0,0,.17.16h0a.18.18,0,0,0,.18-.14v0s0-.07,0-.11v-.11a.66.66,0,0,1,.07-.32A.18.18,0,0,0,40.71,33.61Zm.41.52v.07a.45.45,0,0,0,0,.12.19.19,0,0,0,0,.08h0l0,.08.07-.05h0s.06,0,.07-.07a2,2,0,0,0,.15-.77.11.11,0,0,0,0-.07.1.1,0,0,0-.07,0s-.13,0-.15.07l0,.11a.54.54,0,0,1,0,.15A.56.56,0,0,0,41.12,34.13Zm.29,2.48v0l.09,0-.08-.1,0,0,0,0,0,0,0,.05-.25.53ZM29.67,24.23h0l-.13.08v0l.1.07a.07.07,0,0,0,.06,0,.07.07,0,0,0,.05-.06h0a.12.12,0,0,0,0-.08Zm24.51,7.34h0l0,0a.12.12,0,0,0-.07,0S54.18,31.56,54.18,31.57ZM29.18,19s0,0,0,0l0,0h0v0S29.18,19,29.18,19ZM41.49,19l0,0,0,0h0ZM29.25,19a0,0,0,0,0,0,0v0s0,0,0,0,0,0,0,0ZM47.83,8.61s0,.07,0,.11a.81.81,0,0,0,.08.46h0a.5.5,0,0,0,.31-.48.77.77,0,0,1,.1-.38s0,0,0,0a.18.18,0,0,0-.08-.09h-.09c-.12,0-.2,0-.23,0a.31.31,0,0,0-.07.24v.13h0ZM34.47,23ZM31.15,11.25s.05,0,.06,0a.19.19,0,0,0,0-.09l0-.13a.83.83,0,0,1,0-.15.59.59,0,0,1,.16-.51.5.5,0,0,0,.1-.13.23.23,0,0,0,0-.11v0c0-.08,0-.11-.06-.12h0l-.06,0-.14.12a2.18,2.18,0,0,1-.22.21,1.24,1.24,0,0,0-.32.5c0,.09,0,.11,0,.12Zm-9.27,24L20.57,33.6l.9-.47,1.27,1.47,1-.64-2.11-2.5L16,34.16l1,1.29,2.46-1.26,1.38,1.67ZM22.76,38l1.8,1.71.9-.88-1.85-1.66.92-.73L26.28,38l1-.93L24.59,34.8l-5.06,3.9,3.07,3,1-1-2-1.83Zm6.69,4.25-.63-4.14-.71-.42-4,5.13,1.38.87,2.25-3.29.47,4.66,1.24.5,2.76-5.87-1.27-.55Zm3.26-.92,1.6.35-1.42,5,1.66.38L35.8,42l1.5.27.28-1.39L33.21,40Zm12.71-1-.86,2.77L42.7,40.85l-1.32,0,.14,6.62,1.53-.07-.25-4.28,1.83,2.09.43-.07L46,42.61l1.17,4.23,1.54-.43-2.12-6.3Zm4.7-1.78,5.6,4.47L54.2,44l-1.72-1.65-1.77.81.49,2.44L49.78,46l-1.26-6.77Zm1.51,2.81-1.76-1.51L50.4,42Zm3.1-5.68,2.46,1.66,0,.1L53.09,37l-1.36.83,5.39,4.38,1.34-1-3.52-2.59,0-.09,5.38.82.78-.85L55.7,34.73Zm8.11-3a2.26,2.26,0,0,0-1.18-.33,4.42,4.42,0,0,0-2.51,1.08.82.82,0,0,1-.17.13.83.83,0,0,1-.41.12.45.45,0,0,1-.39-.19.37.37,0,0,1,0-.38c.14-.36,1-.86,1.28-1l-.81-.72a3.46,3.46,0,0,0-1.34.95,1.49,1.49,0,0,0,.07,2.2,1.21,1.21,0,0,0,.75.31h.22a3,3,0,0,0,1.85-.63,2.43,2.43,0,0,1,.93-.45l.26,0a.66.66,0,0,1,.63.32,1,1,0,0,1-.07,1,2.57,2.57,0,0,1-1.27.86l.56,1.31a5.08,5.08,0,0,0,2-1.53A2.05,2.05,0,0,0,62.84,32.73ZM38.1,47.48l1.7.07L40,41l-1.35-.1ZM0,20.56v5H3.84v-1H1.25v-.95H3.52v-1H1.25v-.94H3.77V20.56Zm8.12,1.55.47-1a3.53,3.53,0,0,0-1.91-.57c-1.15,0-1.91.6-1.91,1.54,0,1.77,2.51,1.26,2.51,2.11,0,.27-.23.41-.6.41A3,3,0,0,1,5,23.8l-.48,1a3.44,3.44,0,0,0,2.2.81c1.06,0,1.92-.53,1.92-1.55,0-1.81-2.51-1.33-2.51-2.16,0-.23.2-.35.5-.35A3.66,3.66,0,0,1,8.12,22.11Zm1.1-1.55v1.08h1.41v3.94h1.25V21.64h1.43V20.56Zm6.24-.08H14.17v3.15h1.26a1.58,1.58,0,1,0,0-3.15Zm0,2.49H15V21.15h.5a.83.83,0,0,1,.81.91A.81.81,0,0,1,15.49,23Zm0,1.52a.59.59,0,1,0,.55.59A.55.55,0,0,0,15.47,24.49Zm47.61-3.9v1.08h1v3.95h1.31v-5Zm3.82,3.77-.48.9a3.32,3.32,0,0,0,1.59.41c1.39,0,2.27-1,2.27-2.65s-.8-2.48-2.12-2.48a1.66,1.66,0,0,0-1.83,1.72,1.51,1.51,0,0,0,1.58,1.64,1.32,1.32,0,0,0,1.16-.55c0,.83-.36,1.33-1.14,1.33A1.82,1.82,0,0,1,66.9,24.36Zm1.31-2.8a.65.65,0,0,1,.72.69.67.67,0,0,1-.74.71.63.63,0,0,1-.69-.69A.65.65,0,0,1,68.21,21.56Zm4.85-1c-1.27,0-2,.9-2,2.54s.69,2.55,2,2.55,2-.91,2-2.55S74.32,20.56,73.06,20.56Zm0,.91c.5,0,.71.48.71,1.63s-.21,1.63-.71,1.63-.71-.48-.71-1.63S72.55,21.47,73.06,21.47Zm4,.94v-.76h2.16V20.59H75.88v2.86c.32,0,1.14,0,1.4,0,.5,0,.78.22.78.6s-.28.64-.79.64A1.83,1.83,0,0,1,76,24l-.52,1a3.66,3.66,0,0,0,2,.63c1.23,0,2-.68,2-1.74,0-.9-.76-1.52-1.94-1.52Z"/></svg>