<?xml version="1.0" encoding="UTF-8"?>
<!-- Generator: Adobe Illustrator 24.1.0, SVG Export Plug-In . SVG Version: 6.00 Build 0)  -->
<svg version="1.1" id="Layer_1" xmlns="http://www.w3.org/2000/svg" xmlns:xlink="http://www.w3.org/1999/xlink" x="0px" y="0px" viewBox="0 0 115 66" style="enable-background:new 0 0 115 66;" xml:space="preserve">
<path d="M39.3,5.1L1.8,4.5l37.6-0.7V5.1z M44.4,61.1v-1.3L1.8,60.4L44.4,61.1z M75.4,5.1l38.2-0.7L75.4,3.8V5.1z M113.6,60.4  l-43.7-0.7v1.3L113.6,60.4z M50.5,0.6h-5.1v1.1h1.9v6.6h1.3V1.7h1.9V0.6z M60.7,0.6h-1.3v3h-3.6v-3h-1.3v7.6h1.3V4.7h3.6v3.6h1.3  V0.6z M69.4,0.6h-4.6v7.6h4.6V7.2H66V4.6h3.3V3.5H66V1.7h3.4V0.6z M62.2,61.4c0.3-0.3,0.5-0.7,0.5-1.2c0-0.5-0.2-0.9-0.5-1.2  c-0.3-0.3-0.7-0.5-1.1-0.5c-0.5,0-0.8,0.2-1.1,0.5c-0.3,0.3-0.5,0.7-0.5,1.2c0,0.5,0.2,0.9,0.5,1.2c0.3,0.3,0.7,0.5,1.1,0.5  C61.6,61.9,61.9,61.8,62.2,61.4 M61.1,57.5c0.8,0,1.4,0.3,2,0.8c0.5,0.5,0.8,1.2,0.8,2c0,0.8-0.3,1.4-0.8,2c-0.5,0.5-1.2,0.8-2,0.8  c-0.7,0-1.3-0.2-1.9-0.7c-0.6-0.5-0.9-1.2-0.9-2.1c0-0.8,0.3-1.4,0.8-1.9C59.7,57.8,60.4,57.5,61.1,57.5 M65.4,63.8  c-0.2-0.2-0.4-0.2-0.6-0.2c-0.2,0-0.4,0.1-0.6,0.2c-0.2,0.2-0.2,0.4-0.2,0.6c0,0.2,0.1,0.4,0.2,0.6c0.2,0.2,0.4,0.2,0.6,0.2  c0.2,0,0.4-0.1,0.6-0.2c0.2-0.2,0.2-0.4,0.2-0.6C65.7,64.1,65.6,64,65.4,63.8L65.4,63.8z M1.7,15.4v13.2h6.8v-2.4H4.5V15.4H1.7z   M23.3,26.4c1.4,0,2.5-0.4,3.4-1.3c0.9-0.9,1.4-1.9,1.4-3.1c0-1.3-0.4-2.3-1.4-3.1c-0.9-0.8-2.1-1.3-3.4-1.3c-1.3,0-2.5,0.4-3.4,1.3  c-0.9,0.8-1.4,1.8-1.4,3.1c0,1.3,0.5,2.3,1.4,3.2C20.9,26,22,26.4,23.3,26.4 M30.9,22c0,1.9-0.8,3.5-2.2,4.8c-1.5,1.3-3.3,2-5.4,2  c-1.8,0-3.5-0.6-5-1.8c-1.6-1.3-2.5-3-2.5-5.1c0-1.9,0.8-3.5,2.2-4.8c1.5-1.3,3.3-2,5.3-2c2,0,3.8,0.7,5.3,2  C30.1,18.5,30.9,20.1,30.9,22 M48.8,23.7l-10-9.6v14.5h2.7v-8.3l10,9.5V15.4h-2.7V23.7z M63.5,26.2c0.9,0,1.7-0.1,2.2-0.3  c0.6-0.2,1.1-0.5,1.6-0.8c1-0.8,1.4-1.8,1.4-3.1c0-1.3-0.5-2.3-1.4-3.1c-0.8-0.7-2.1-1.1-3.8-1.1h-0.6v8.3H63.5 M71.5,22  c0,2-0.8,3.7-2.3,4.9c-0.8,0.6-1.6,1.1-2.5,1.3c-0.8,0.2-1.9,0.4-3.3,0.4h-3.2V15.4h3.2c1.4,0,2.5,0.1,3.4,0.4  c0.9,0.3,1.7,0.7,2.5,1.3C70.8,18.3,71.5,20,71.5,22 M85.8,26.4c1.4,0,2.5-0.4,3.4-1.3c0.9-0.9,1.4-1.9,1.4-3.1  c0-1.3-0.4-2.3-1.4-3.1c-0.9-0.8-2.1-1.3-3.4-1.3c-1.3,0-2.5,0.4-3.4,1.3c-0.9,0.8-1.4,1.8-1.4,3.1c0,1.3,0.5,2.3,1.4,3.2  C83.4,26,84.6,26.4,85.8,26.4 M93.4,22c0,1.9-0.8,3.5-2.2,4.8c-1.5,1.3-3.3,2-5.4,2c-1.8,0-3.5-0.6-5-1.8c-1.6-1.3-2.5-3-2.5-5.1  c0-1.9,0.8-3.5,2.2-4.8c1.5-1.3,3.3-2,5.3-2c2,0,3.8,0.7,5.3,2C92.6,18.5,93.4,20.1,93.4,22 M113.7,15.4h-2.7v8.3l-10-9.6v14.5h2.7  v-8.3l10,9.5V15.4z M9.9,38.2v-2.4H1.6v13.2h8.3v-2.4H4.4V43h5.4v-2.4H4.4v-2.3H9.9z M22.7,46.5c-1.4,0-2.5-0.5-3.8-1.6l-0.3-0.2  l-1.8,2.1l0.2,0.2c1.5,1.4,3.4,2.1,5.5,2.1c2.9,0,4.8-1.6,4.8-4.1c0-2.6-2.1-3.5-4.3-4c-2.5-0.6-2.7-1-2.7-1.7  c0-0.7,0.7-1.2,1.7-1.2c1.1,0,2.1,0.4,3.2,1.2l0.3,0.2l1.6-2.2l-0.2-0.2c-1.4-1.1-2.9-1.7-4.8-1.7c-2.7,0-4.6,1.6-4.6,4  c0,2.5,1.6,3.4,4.4,4.1c2.4,0.6,2.6,1,2.6,1.6C24.6,46,23.8,46.5,22.7,46.5 M39.7,38.1c1.1,0,2.1,0.4,3.2,1.2l0.3,0.2l1.6-2.2  l-0.2-0.2c-1.4-1.1-2.9-1.7-4.8-1.7c-2.7,0-4.6,1.6-4.6,4c0,2.5,1.6,3.4,4.4,4.1c2.4,0.6,2.6,1,2.6,1.6c0,0.8-0.7,1.3-1.9,1.3  c-1.4,0-2.5-0.5-3.8-1.6l-0.3-0.2l-2,2.1l0.2,0.2c1.5,1.4,3.7,2.1,5.7,2.1c2.9,0,4.8-1.6,4.8-4.1c0-2.6-2.1-3.5-4.3-4  c-2.5-0.6-2.7-1-2.7-1.7C38,38.6,38.7,38.1,39.7,38.1 M60.9,46.5h-5.5V43h5.4v-2.4h-5.4v-2.3h5.5v-2.4h-8.3v13.2h8.3V46.5z   M81.1,35.8h-2.7V44l-10-9.6V49H71v-8.3l9.8,9.5L81.1,35.8z M94.3,37.9c1.2,0,2.4,0.4,3.5,1.3l0.5,0.4v-3.1l-0.2-0.1  c-1.2-0.6-2.5-1-3.7-1c-2.4,0-4.3,0.8-5.8,2.4c-1.2,1.3-1.8,2.8-1.8,4.5c0,1.9,0.7,3.5,2.2,4.8c1.4,1.3,3.2,2,5.3,2  c1.4,0,2.7-0.3,3.9-1l0.2-0.1v-3.1l-0.5,0.4c-0.3,0.3-0.6,0.5-0.9,0.6c-0.3,0.2-0.6,0.3-0.8,0.4c-0.5,0.2-1.1,0.3-1.7,0.3  c-1.3,0-2.4-0.4-3.4-1.3c-0.9-0.8-1.4-1.9-1.4-3.1c0-1.2,0.4-2.3,1.4-3.1C91.9,38.4,93,37.9,94.3,37.9 M113.7,38.2v-2.4h-8.3v13.2  h8.3v-2.4h-5.5V43h5.4v-2.4h-5.4v-2.3H113.7z M56.6,57.5c-0.7-0.4-1.5-0.6-2.2-0.6c-1.4,0-2.5,0.5-3.4,1.4c-0.7,0.8-1.1,1.7-1.1,2.6  c0,1.1,0.4,2.1,1.3,2.8c0.9,0.8,1.9,1.2,3.1,1.2c0.8,0,1.6-0.2,2.3-0.6l0,0V63v-0.1l-0.1,0.1c-0.2,0.2-0.4,0.3-0.6,0.4  c-0.2,0.1-0.4,0.2-0.5,0.3c-0.3,0.1-0.7,0.2-1.1,0.2c-0.9,0-1.6-0.3-2.1-0.8c-0.6-0.5-0.9-1.2-0.9-2c0-0.8,0.3-1.5,0.9-2  c0.6-0.6,1.3-0.8,2.1-0.8c0.8,0,1.5,0.3,2.2,0.8l0.1,0.1L56.6,57.5L56.6,57.5L56.6,57.5z"/>
</svg>