<?xml version="1.0" encoding="UTF-8"?>
<svg width="120px" height="59px" viewBox="0 0 120 59" version="1.1" xmlns="http://www.w3.org/2000/svg" xmlns:xlink="http://www.w3.org/1999/xlink">
    <!-- Generator: Sketch 62 (91390) - https://sketch.com -->
    <title>OLD JAMAICA LOGO</title>
    <desc>Created with Sketch.</desc>
    <defs>
        <polygon id="path-1" points="0 0 120 0 120 59 0 59"></polygon>
    </defs>
    <g id="Page-1" stroke="none" stroke-width="1" fill="none" fill-rule="evenodd">
        <g id="1.OLD-JAMAICA-DESKTOP-Site" transform="translate(-900.000000, -21.000000)">
            <rect fill="#FABA00" x="0" y="0" width="1920" height="5842"></rect>
            <g id="HEADER">
                <rect id="HEADER-BACKGROUND" fill="#FFFFFF" x="0" y="0" width="1920" height="100"></rect>
                <g id="OLD-JAMAICA-LOGO" transform="translate(900.000000, 21.000000)">
                    <g>
                        <mask id="mask-2" fill="white">
                            <use xlink:href="#path-1"></use>
                        </mask>
                        <g id="Clip-2"></g>
                        <path d="M33.2676865,13.2463538 C33.6954838,10.2252993 35.2779071,7.90686063 38.0673161,6.19812989 L38.0673161,7.50696963 C38.067704,11.4385214 38.0711946,15.369686 38.0661526,19.3012377 C38.0646012,20.6414339 37.5111408,21.7226493 36.4305939,22.6586962 C33.8339458,19.9961112 32.755726,16.862793 33.2676865,13.2463538 M40.8889166,19.4448578 C41.7002964,18.5819759 42.0396641,17.5123739 42.0357856,16.319669 C42.0241502,12.4326357 42.032295,8.54521517 42.0326829,4.6581818 L42.0326829,3.68961717 C42.8937073,3.68961717 43.6558303,3.67219694 44.4156263,3.70742451 C44.5354716,3.71284414 44.6952653,3.93891998 44.7460735,4.09260509 C44.8050265,4.27183987 44.7662416,4.48436665 44.7662416,4.68218301 C44.7666295,11.6398218 44.7666295,18.5970734 44.7670173,25.5543251 C44.7670173,25.7962727 44.7666295,26.0382203 44.7666295,26.3726886 C41.7561466,26.3483003 39.2828344,25.2473419 36.8878677,23.1631085 C37.1857357,22.9807768 37.4498607,22.8770297 37.6368039,22.694698 C38.7336405,21.6247089 39.8401733,20.5613008 40.8889166,19.4448578 M46.3952068,17.8007755 C48.6160294,15.5647925 51.811904,15.1172862 54.5008602,16.7602072 C55.1730022,17.1709375 55.7881305,17.6861891 56.377273,18.2118928 C56.5324125,18.3500933 56.6142486,18.7631462 56.5242677,18.9532203 C54.7746815,22.6435986 51.9705342,25.1350782 48.0005133,26.2255845 C47.2740724,26.4249493 46.4906177,26.4183683 45.5900326,26.5232768 L45.5900326,25.4056724 C45.5900326,23.547902 45.629981,21.6889702 45.5718037,19.8331353 C45.54543,18.9930932 45.8134335,18.3864822 46.3952068,17.8007755 M45.5954625,3.80652625 C49.8598607,4.36707045 53.5804948,5.62287528 56.28225,9.10421091 C55.1047408,10.4095666 53.7220597,11.2143811 52.0562488,11.4458766 C49.7353612,11.7683443 47.7045846,11.0804389 45.9906805,9.48706879 C45.8211905,9.3291254 45.6164063,9.09375877 45.6129157,8.89129702 C45.5818878,7.24411776 45.5954625,5.59577714 45.5954625,3.80652625 M56.9637004,17.6343155 C53.3237389,14.4371231 49.5658713,13.9621316 45.6443314,17.3583017 L45.6443314,10.3398857 C49.438269,13.0713773 53.1236089,12.8809162 56.6689353,10.0557424 C57.8836779,11.9917104 58.0240792,15.6344734 56.9637004,17.6343155 M42.7711471,29.8567341 C44.0743193,29.586527 45.4271361,29.4580044 46.6717431,29.0213374 C51.9003336,27.1879552 55.9545177,23.7488153 59.1783174,19.3538855 C62.4540889,14.8877264 62.3319165,9.96477014 58.9859444,5.78275425 C55.8335089,1.84268597 51.4457747,0.447519321 46.6356731,0.00233573642 C46.4149871,-0.0181814201 46.1528013,0.099889009 45.9522834,0.222217716 C41.3876902,3.01061542 36.8273633,5.80636834 32.2728541,8.61141204 C32.0529438,8.74651558 31.8140289,8.9458804 31.7178424,9.17195624 C30.4930157,12.0443582 29.6502201,14.989925 29.9829945,18.16931 C30.6741411,24.774286 36.0974317,29.6867901 42.7711471,29.8567341 M32.0959951,48.2141695 C32.090953,48.4479877 31.9482246,48.7429702 31.7709777,48.8978167 C31.0255322,49.5485589 30.2350962,50.1474276 29.4780153,50.7853951 C29.1805352,51.0358592 28.9493773,51.0474727 28.6379346,50.7970086 C26.558289,49.1266023 25.7290682,46.9603003 26.1677252,44.3588797 C26.337603,43.3531519 26.7432929,42.3872971 27.0822728,41.2677571 C28.7860929,42.0764428 30.3087875,42.7844783 31.8109261,43.5327738 C31.9711077,43.6125197 32.093668,43.9253096 32.0975465,44.1324167 C32.1227566,45.4927429 32.1262473,46.8542305 32.0959951,48.2141695 M25.2089628,35.7970316 C25.2450328,35.7358672 25.2818784,35.6747028 25.3179484,35.6131514 C26.4407708,35.9565234 27.5632054,36.2998954 28.68564,36.6424932 C29.6773696,36.944831 30.6733654,37.234781 31.6577258,37.5595714 C31.8303186,37.6164775 32.0797054,37.8170037 32.0824203,37.9552041 C32.1122847,39.5733497 32.1014249,41.1926566 32.1014249,42.9598419 C30.5492538,42.2278052 29.1250728,41.5619654 27.7086487,40.8794796 C27.5911305,40.8229607 27.5007618,40.6700498 27.4398695,40.5415272 C26.691709,38.9624804 25.9513056,37.3791753 25.2089628,35.7970316 M38.1588484,50.5326082 C37.31838,51.0788291 36.7160507,50.931725 36.3394494,50.0061302 C36.1680202,49.5837865 36.091614,49.0960201 36.0877355,48.6369004 C36.0656281,45.8639873 36.1536698,43.0879773 36.0520534,40.3185483 C35.973708,38.1739248 36.2680852,36.1822121 37.5115287,34.3902514 C37.5320847,34.3608306 37.5053231,34.2992791 37.4789494,34.0364273 C37.202801,34.185467 36.9514749,34.2497283 36.8095223,34.4103815 C36.3192813,34.9651189 35.7413865,35.2333904 35.0211512,34.9999594 C33.4713071,34.4978697 31.9346499,33.9562942 30.3840302,33.4576886 C30.1466667,33.3814267 29.763472,33.3361341 29.6160894,33.4665923 C28.1810487,34.7316879 26.5047659,35.142031 24.418139,34.9271815 C24.5011387,35.3406216 24.5092835,35.6777998 24.6364979,35.9623302 C25.24193,37.3168496 25.8570583,38.667885 26.5187284,39.9956934 C26.7425172,40.4447482 26.7429051,40.7718613 26.3748365,41.107491 C26.2293932,41.2398848 26.0920947,41.3896987 25.9827213,41.5530617 C25.1581546,42.7833169 24.2110277,43.9535691 23.5474183,45.2658928 C21.8156732,48.6926451 22.537072,51.5243998 25.5603539,53.9241329 C25.9513056,54.2346001 26.1925476,54.2346001 26.5718637,53.9218102 C28.139161,52.6296165 29.7320563,51.3676178 31.3187459,50.0982639 C31.5371048,49.9236745 31.772917,49.7715378 32.0948315,49.5412037 C32.1580509,49.8996733 32.2150647,50.1110387 32.2298029,50.3247268 C32.3310315,51.8058333 33.0415706,52.9544069 34.1950331,53.8362575 C34.3812005,53.9783292 34.8097735,54.0731726 34.9505627,53.964393 C36.3332439,52.8932426 37.6790794,51.7744769 39.0039711,50.6948099 C38.7289863,50.0103885 38.4377118,50.3514379 38.1588484,50.5326082 M90.3726134,50.7973957 C89.4716405,51.5325293 88.7816574,51.3037436 88.4853409,50.1753 C88.3922571,49.8222501 88.3662713,49.4436505 88.3651077,49.0762772 C88.3561872,45.8589548 88.4139767,42.6400839 88.3333041,39.4246971 C88.3007248,38.1325033 88.45664,37.0361904 89.588383,36.258474 C89.6430697,36.2209237 89.6667285,36.1388551 89.7392562,36.0223332 C88.6199244,35.1269335 87.5044711,34.2346307 86.3591534,33.3183268 C85.21306,34.2365663 84.0995459,35.1280948 82.8987659,36.0896914 C83.1617274,36.3235095 83.2955353,36.4764204 83.4595953,36.5832645 C84.3000638,37.1294854 84.4780864,37.9010079 84.4652874,38.8699596 C84.4148671,42.6811182 84.4571426,46.492664 84.4365866,50.3042097 C84.4284418,51.8306087 84.9776358,53.0318301 86.2408595,53.9218102 C86.6884371,54.2373099 87.047973,54.3100877 87.4978777,53.9419402 C88.7409333,52.9242119 90.0045448,51.931646 91.2507032,50.9367575 C91.0199332,50.2906606 90.7360278,50.5008647 90.3726134,50.7973957 M65.8241076,50.6425492 C65.6654775,50.6979068 65.5339967,50.8275907 65.3885534,50.9220471 C64.6931404,51.3730374 64.1513155,51.2572897 63.860041,50.475315 C63.6579718,49.9337395 63.5668273,49.3228702 63.5606217,48.7414217 C63.5311452,45.819469 63.6203504,42.8940321 63.5202854,39.9751763 C63.4516362,37.9621722 63.8996016,36.2561513 65.5262397,34.9670545 C65.553777,34.945376 65.5452443,34.8784049 65.5859684,34.6573616 C64.4379358,34.7231713 64.0663766,35.8911008 63.1378664,36.2174397 C62.1026978,35.2481008 61.0473611,34.2594062 59.9734076,33.2536784 C58.0946677,34.9415048 56.290007,36.5627473 54.3406786,38.3140608 C54.1238711,36.2000195 53.1825619,34.755302 51.7184324,33.5955019 C51.2933501,33.259098 51.0342671,33.1870944 50.5928951,33.5734363 C49.5864273,34.4541256 48.5244971,35.2717149 47.4823472,36.1113699 C46.7369017,36.7121742 45.9864141,37.3075588 45.1362494,37.9869477 C44.9221569,35.3255241 44.6937139,34.8644687 42.8428991,33.4526561 C42.676512,33.325682 42.2642286,33.2916158 42.114519,33.4069764 C40.8962857,34.342249 39.7172252,35.3282339 38.5176086,36.2878948 C38.1697082,36.5658442 38.1580727,36.7861133 38.5827672,37.0133505 C38.7181265,36.9142488 38.8550371,36.8112759 38.9950506,36.7129484 C39.7699726,36.1698244 40.2598257,36.268539 40.6352634,37.1376148 C40.8470289,37.6273168 41.0165188,38.1785702 41.0258272,38.7050482 C41.0820653,41.8983694 41.0382384,45.0940133 41.1313221,48.2861731 C41.1693313,49.5741086 41.016131,50.6804866 39.8929207,51.4713649 C39.8207808,51.5220771 39.7893651,51.6296954 39.7059775,51.7644118 C40.7500667,52.5463865 41.7689456,53.3264255 42.8130348,54.071237 C42.9449034,54.1656934 43.2644908,54.1583382 43.3994622,54.0619463 C44.442,53.3163605 45.4604911,52.5370957 46.535996,51.7311198 C46.1198341,51.2778068 45.7160835,50.9081109 45.4038652,50.4729923 C45.2033473,50.1942687 45.0311424,49.8199274 45.0284275,49.4866203 C45.0005023,46.1434852 45.0020537,42.7999629 45.0249368,39.4564406 C45.0272639,39.1753943 45.1703801,38.8138278 45.3747765,38.6307218 C46.1861563,37.9037177 47.0328304,37.2131025 47.9039389,36.5588762 C48.073041,36.4322892 48.476016,36.4264824 48.6610199,36.5414559 C49.7935386,37.2463945 50.3694941,38.2497995 50.3501017,39.6318042 C50.3093775,42.6029208 50.2888215,45.5767471 50.35941,48.5470894 C50.3869473,49.6910177 50.1980649,50.6355811 49.2497745,51.3455522 C49.1229479,51.4407827 49.0473173,51.6037586 48.9255328,51.7651861 C49.9735004,52.5506448 50.9784168,53.3155863 52.0007864,54.0561395 C52.1314915,54.1505959 52.4192753,54.2071148 52.5243824,54.1304658 C53.5789434,53.3635887 54.6106214,52.5653552 55.7105608,51.7291843 C55.3118521,51.2797424 54.9496013,50.9398544 54.67578,50.5399634 C54.4787528,50.2531103 54.2879311,49.8865113 54.2852162,49.5539786 C54.2561275,46.3099451 54.2638845,43.0651375 54.2747443,39.8207169 C54.27552,39.5868988 54.3042208,39.2764316 54.4496641,39.1320373 C55.4285946,38.1619242 56.4420437,37.2274258 57.4748852,36.2530544 C57.9480608,36.6603006 58.3324191,37.0520621 58.7761182,37.3590453 C59.4575686,37.8305527 59.646451,38.4348411 59.6371426,39.2512691 C59.5960306,42.8917094 59.6142595,46.5325369 59.6251193,50.1733644 C59.6293856,51.784929 60.3682377,53.0182811 61.6861482,53.9098096 C61.8587409,54.0271058 62.2128469,54.1219493 62.3354071,54.0302027 C63.6250046,53.0674448 64.8878405,52.0686851 66.1456344,51.0641187 C66.2201013,51.0045028 66.1890734,50.8128803 66.2076902,50.6828093 C66.0785365,50.6657762 65.9338689,50.6038376 65.8241076,50.6425492 M18.1152072,37.3106557 C18.0744831,41.1992376 18.1202492,45.0882065 18.0702167,48.9764012 C18.026002,52.444962 15.9098986,55.2616192 12.6275337,56.354061 C12.5146696,56.3916113 12.3959879,56.4132898 12.1671571,56.470583 C12.2610165,56.3110911 12.2866145,56.2243771 12.3447918,56.1759876 C14.3158398,54.534228 15.126056,52.3841848 15.1105421,49.8768334 C15.0934767,47.1534712 14.9980659,44.4285606 15.0655516,41.7079082 C15.1214018,39.4657314 15.1675559,37.1921982 15.5709187,34.9972496 C16.2713737,31.1845425 18.8431995,28.7863579 22.2326107,27.163954 C22.2989328,27.1322105 22.3737877,27.1116934 22.4463154,27.1031768 C22.4882031,27.0985314 22.5343571,27.1287265 22.6410155,27.1635669 C22.3307365,27.5088745 22.0479946,27.8445043 21.7431454,28.1592297 C19.2709968,30.7118737 18.151665,33.8084158 18.1152072,37.3106557 M25.5211812,25.6909771 C25.821764,25.4002528 26.0858891,25.0719783 26.350402,24.7793185 C26.0676602,24.1816111 25.7069608,24.4049772 25.3544062,24.6159555 C22.9792197,26.0347362 20.4167023,26.5151474 17.7040874,26.0250583 C15.6601239,25.6557495 13.6355529,25.1803708 11.6032248,24.7479621 C9.44407022,24.2892294 7.30042957,24.0732186 5.17579351,24.9481011 C2.69007017,25.9716363 1.25231444,28.1100659 1.41559881,30.6716136 C1.48812655,31.8186388 2.04701676,32.6950698 3.10041426,33.1967723 C3.90713989,33.5807915 4.8216875,33.3833623 5.34373207,32.7686218 C5.83746367,32.1871734 5.89098681,31.1907364 5.46318952,30.5461879 C5.04819124,29.9213825 4.29770369,29.783182 3.31605823,30.0859068 C3.04417618,30.169911 2.56052865,30.2121067 2.46317858,30.0727449 C2.30066991,29.8393138 2.26459997,29.4080664 2.36195003,29.1239232 C2.68735522,28.1739401 3.49214161,27.7364988 4.39001172,27.4310642 C6.10081304,26.8500028 7.7165914,27.2955735 9.31763149,27.8774091 C11.610594,28.7112573 13.938075,29.1963139 16.3803592,28.6338341 C17.0823657,28.4720196 17.7859235,28.3194958 18.4487572,28.1716174 C16.9109365,29.4928449 15.3145506,30.7405203 13.8667108,32.1411065 C12.3044556,33.6520209 12.0764004,35.7525132 11.8219716,37.774808 C11.6804067,37.7678399 11.6268836,37.7779049 11.5830567,37.761259 C11.3747818,37.6826744 11.1703855,37.5944119 10.9628864,37.5142788 C8.81110088,36.6808177 6.74968419,36.6947539 4.87016861,38.2041198 C4.69912726,38.3415461 4.62970232,38.6047851 4.51295981,38.8095695 C4.74372988,38.8238928 5.01173344,38.9222203 5.1986766,38.8386032 C6.66668453,38.1820542 8.01019298,38.4367767 9.25479998,39.3604358 C10.686738,40.4238439 11.2673477,41.9107571 11.3860295,43.8029809 C9.01704862,42.5986625 6.76364675,42.3222616 4.57385208,43.8850495 C4.67857127,44.4370771 5.03500438,44.3604281 5.42828312,44.3689447 C6.26138247,44.3875263 7.13210316,44.3557828 7.91710926,44.5849555 C10.4811781,45.3328639 12.8462804,48.3934043 13.039817,51.0556021 C13.2628301,54.1200137 11.3926229,55.7702899 8.36972888,55.1648402 C7.81239006,55.0533507 7.26552317,54.8923104 6.71322639,54.7564326 C3.38858596,53.9403918 0.969184774,55.2318113 0.0592913474,58.2726087 C-0.0873155218,58.7630849 0.0317540783,58.946578 0.485925094,59 C1.56414493,57.4976022 2.53764556,57.1542301 4.29886724,57.6671591 C4.86822937,57.8328448 5.4344887,58.02679 5.97631356,58.2652535 C7.96636606,59.1401361 9.95525502,59.0929079 11.8657985,58.1278273 C13.2954094,57.4058556 14.7226932,56.6250424 16.0045337,55.6742851 C19.4017019,53.1553202 21.6233001,49.8416059 21.8711356,45.5407453 C22.0476068,42.4817534 22.0150275,39.3968247 21.8529067,36.3355101 C21.636487,32.252596 22.4944087,28.6226077 25.5211812,25.6909771 M75.8767623,45.1923408 C75.7642861,45.9936712 75.810828,46.8267452 75.869781,47.6396891 C75.9198135,48.3303044 75.7014546,48.8076186 75.1351952,49.2071225 C74.4886512,49.6627582 73.8700323,50.1656221 73.285544,50.698681 C72.8872232,51.061796 72.595173,51.0292782 72.2061606,50.6971326 C70.103632,48.9036234 69.3500416,46.6521558 69.9387962,43.9764089 C70.1323328,43.0961068 70.4876023,42.2514193 70.8013721,41.290597 C72.1088106,41.9049503 73.2614974,42.5363368 74.4801185,42.9927467 C75.5703617,43.4007672 76.0435373,44.0054426 75.8767623,45.1923408 M69.9977492,38.1820542 C69.7452596,37.348206 69.2728597,36.5805547 68.9005248,35.7827083 L69.0645849,35.6270876 C70.6171439,36.098595 72.1720299,36.5627473 73.7210983,37.0447069 C74.4006095,37.2560724 75.3357131,37.3141398 75.6700388,37.784873 C76.0284112,38.2896725 75.8360381,39.1974599 75.8507764,39.9298837 C75.869781,40.884125 75.8554306,41.8383664 75.8554306,42.9555836 C75.1600176,42.6424066 74.6263375,42.3381333 74.0534848,42.1554145 C72.0227081,41.5085434 70.6299429,40.2720944 69.9977492,38.1820542 M80.0659178,50.0429063 C79.8692784,49.5528172 79.7858909,48.9876276 79.7812367,48.4553429 C79.7552509,45.3100241 79.7986899,42.163931 79.7521481,39.0189994 C79.7319799,37.6578989 80.0635907,36.4291922 80.7260366,35.2647468 C80.9091012,34.9434404 81.086736,34.6190371 81.2666979,34.2961822 C81.2314036,34.2307596 81.1961094,34.1653369 81.1608151,34.1003014 C80.9343114,34.202113 80.6399341,34.2458571 80.4937151,34.4165753 C80.0026984,34.9891201 79.4178224,35.2237125 78.7041804,34.9933784 C77.1772195,34.5009666 75.6529735,33.9977156 74.1457928,33.4487849 C73.7575561,33.3074875 73.4918796,33.235871 73.1552268,33.5482738 C71.9610402,34.655426 70.5077705,35.0375096 68.9090575,34.9918299 C68.0713039,34.9678287 67.9526222,35.1629353 68.3113824,35.9367805 C68.9358191,37.2839447 69.5524987,38.6349801 70.211454,39.9654984 C70.4433876,40.4331347 70.3662056,40.7211491 70.0551509,41.1446542 C69.0471317,42.5165939 67.9677483,43.8703391 67.1998076,45.3754467 C65.4890062,48.7282598 66.2833207,51.6637616 69.2883737,53.9489083 C69.6502367,54.2241479 69.8876002,54.2373099 70.247136,53.9407789 C71.8346014,52.6323263 73.4457256,51.3532945 75.0518077,50.0676817 C75.2728816,49.8907696 75.5121843,49.7363103 75.8212999,49.5156541 C75.8534913,49.8450899 75.8724959,50.038648 75.8915005,50.2322061 C76.0342289,51.6842788 76.6745674,52.8584021 77.8016562,53.7967717 C78.194547,54.1238848 78.4928028,54.1835007 78.8887965,53.8470968 C80.0601001,52.8533696 81.2523475,51.8836436 82.4112399,50.8759802 C82.5357393,50.7679748 82.4969545,50.4729923 82.5338001,50.2647238 C82.1564232,50.3243397 81.9958537,50.4362163 81.8329572,50.5442217 C81.0215774,51.0823132 80.4289443,50.9491452 80.0659178,50.0429063 M113.266944,42.9354536 C112.592087,42.6292447 112.060734,42.320326 111.488269,42.140317 C109.468352,41.5050593 108.097306,40.277514 107.482178,38.1971517 C107.234343,37.3590453 106.742938,36.5921681 106.362458,35.7931604 L106.519149,35.6301845 C108.075199,36.0982079 109.632412,36.5646829 111.188074,37.0346419 C111.662025,37.1774878 112.12628,37.3602066 112.607601,37.4674378 C113.097842,37.5766045 113.292542,37.8034546 113.279355,38.3303197 C113.243285,39.8106519 113.266944,41.2921455 113.266944,42.9354536 M113.249491,48.2277186 C113.244449,48.4603754 113.097454,48.7526481 112.919819,48.9078817 C112.194154,49.5431393 111.416905,50.1199424 110.687361,50.7513288 C110.336358,51.055215 110.096279,51.0312138 109.733641,50.7470706 C107.380174,48.9005265 106.631625,45.9735412 107.737383,42.7639611 C107.896401,42.3029057 108.101185,41.8577222 108.326137,41.3029847 C109.932607,42.067152 111.432031,42.7674451 112.913613,43.5041272 C113.082328,43.5881314 113.243673,43.8753716 113.247551,44.0716395 C113.27664,45.4567411 113.278967,46.8430041 113.249491,48.2277186 M119.303036,50.545383 C118.486226,51.0827003 117.888551,50.9475967 117.534445,50.048713 C117.34052,49.5566884 117.24317,48.9961442 117.238516,48.4654079 C117.212142,45.4199651 117.281955,42.3725867 117.20361,39.3290794 C117.162498,37.7252571 117.570515,36.3057022 118.365993,34.9558281 C118.490104,34.7452369 118.600641,34.5269034 118.717384,34.312054 C118.685192,34.2446957 118.653389,34.1769504 118.621197,34.1095922 C118.41331,34.1924351 118.137162,34.2172105 118.010335,34.3681858 C117.489066,34.9860232 116.867733,35.2364873 116.092811,34.982152 C114.638377,34.5059992 113.178902,34.0406855 111.74774,33.5006585 C111.257887,33.315617 110.961958,33.3353599 110.497315,33.6241485 C109.65258,34.1498523 108.728336,34.5931003 107.780434,34.8927282 C107.145137,35.0932544 106.412879,34.9871845 105.595293,35.0239606 C105.667433,35.3681068 105.679844,35.7095433 105.810549,35.9979448 C106.411715,37.328076 107.026068,38.6527875 107.679205,39.957756 C107.91463,40.4288764 107.826976,40.7234718 107.522514,41.1411702 C106.521089,42.5173681 105.525093,43.906728 104.658638,45.3684786 C103.99658,46.4849216 103.742539,47.7647277 103.817782,49.0840195 C103.937627,51.1922542 105.195033,52.6129705 106.699499,53.9047771 C107.107904,54.2551172 107.375907,54.2299547 107.773453,53.9024544 C109.360918,52.5951631 110.972818,51.3172927 112.579676,50.0332284 C112.778254,49.8745107 113.000879,49.7448268 113.211869,49.601981 C113.29642,49.7246968 113.339472,49.7606986 113.346841,49.8028943 C113.368172,49.9244487 113.382135,50.0479388 113.386401,50.1710417 C113.439924,51.714861 114.183043,52.8851131 115.33922,53.8536778 C115.686345,54.1440149 115.960166,54.1687903 116.304188,53.8807759 C117.500314,52.8785321 118.714281,51.8979669 119.895281,50.8786901 C120.019005,50.7722331 119.96936,50.46525 120,50.2511748 C119.628441,50.325114 119.467484,50.4373776 119.303036,50.545383 M101.934388,51.1713499 C101.521329,51.5193673 101.151709,51.558466 100.668837,51.3068405 C99.791523,50.8496563 98.8948164,50.4242157 97.9853108,50.0351639 C97.5206679,49.8361862 97.3977198,49.5516559 97.4004348,49.0677607 C97.4194394,45.279829 97.4097431,41.4918974 97.4132338,37.7035786 C97.4132338,37.4744059 97.4477523,37.2452331 97.4729625,36.9297334 C98.8199616,37.6830615 100.061854,38.377935 101.332059,39.0882931 C102.04221,38.0670807 102.700777,37.1198075 103.398905,36.1156282 C101.698964,35.1625482 100.065344,34.2466313 98.5701869,33.4081377 C96.9986233,34.4576096 95.5383724,35.4737896 94.0300282,36.4129334 C93.6185205,36.6692043 93.4362316,36.8825053 93.4389465,37.3745299 C93.4598903,41.1376861 93.4358437,44.9012294 93.4610539,48.6643856 C93.4680352,49.6604355 93.2163213,50.5194463 92.5115999,51.2270946 C92.128793,51.611501 92.1629237,51.8735786 92.7167719,51.9719061 C94.6699788,52.3183751 96.4412845,53.1262865 98.1811745,54.0387193 C98.4247436,54.1668547 98.8893865,54.154467 99.108909,54.0019432 C100.512534,53.0283461 101.883968,52.0063594 103.24299,50.9704366 C103.393087,50.8558502 103.397354,50.5508027 103.469494,50.3336305 C103.398905,50.3011127 103.328705,50.2682079 103.258504,50.2356901 C102.814805,50.5449959 102.346283,50.8244938 101.934388,51.1713499 M79.8180824,11.1760566 C79.9565444,11.1416033 80.1566744,11.2112842 80.2838889,11.2976111 C81.4528653,12.090425 82.6179633,12.8890456 83.7659959,13.7112803 C83.917257,13.8196729 84.0495134,14.0709113 84.0499013,14.2559528 C84.0607611,18.2676376 84.0518405,22.2793223 84.04292,26.2910071 C84.04292,26.357204 83.9956024,26.4230137 83.9347102,26.5828927 C82.7707757,26.0780932 81.656486,25.4590945 80.463075,25.1118513 C78.946586,24.6701517 78.589765,23.7929465 78.6487181,22.2959683 C78.7747689,19.1061312 78.6871151,15.9081646 78.6890543,12.713682 C78.68983,12.0466808 79.2014027,11.330516 79.8180824,11.1760566 M74.0519334,7.00758978 C75.4543948,7.89408579 76.7913099,8.8835547 78.1514958,9.83624757 C78.3012055,9.94115605 78.4249293,10.0832277 78.7150402,10.3487894 C77.6046289,10.8489434 76.6520721,11.3847122 75.6308661,11.7009861 C74.9226541,11.920481 74.7900098,12.257272 74.7958275,12.9099499 C74.8233648,16.0304933 74.7923368,19.1510366 74.8152199,22.27158 C74.8260797,23.7670097 74.8850327,25.2550843 73.496146,26.4690805 C74.4025487,26.6564448 75.107658,26.7768379 75.7999682,26.9498788 C77.7194322,27.4306771 79.4593222,28.3160117 81.1216424,29.3658708 C81.4140804,29.5501381 81.6522196,29.7382765 82.0264938,29.416583 C83.5860341,28.076774 85.3980639,27.1593087 87.3221821,26.4737259 C87.8942592,26.2701028 88.0455202,25.9878952 88.0416418,25.404124 C88.0148802,21.1690732 88.0311698,16.9340224 88.0238007,12.6989716 C88.0222493,11.7780222 88.0032447,10.8667508 88.5551537,10.0526455 C88.6482374,9.91638062 88.6044105,9.68798208 88.6276814,9.46500317 C87.6169473,9.60823615 87.2903785,10.417696 86.7830722,11.1179892 C84.5172592,9.55520124 82.2785955,8.00944641 80.0387684,6.46562716 C77.8051468,4.92567907 75.5703617,3.38766656 73.198278,1.75403636 C73.198278,3.06055341 73.2483105,4.19325529 73.1812127,5.31860197 C73.134283,6.1001895 73.3751371,6.57943931 74.0519334,7.00758978 M62.2039264,2.77641015 C63.2429735,3.7047147 63.7487284,4.85096565 63.7448499,6.25232615 C63.7297238,11.8225406 63.7339901,17.392755 63.7339901,22.9629695 C63.7339901,24.2547761 63.6071636,25.4904509 62.4944252,26.3850763 C62.1992722,26.6223785 62.2663701,26.893747 62.6193125,26.9913002 C64.2362544,27.4391936 65.5541648,28.4038871 66.8596641,29.3918076 C67.2168729,29.6620146 67.5395632,29.7104042 67.9212064,29.4111634 C69.0886315,28.4956336 70.2731219,27.6021695 71.4510189,26.7001889 C71.4389956,26.5902479 71.4273601,26.4803069 71.4153368,26.3703659 C71.1907723,26.3599138 70.8583859,26.2480372 70.7587087,26.3544942 C70.108674,27.0447223 69.5676248,26.7590305 68.9998141,26.2577151 C68.7411189,26.0297037 68.4533351,25.8276291 68.1577942,25.6495556 C67.7493894,25.4033497 67.6334226,25.0681072 67.6345861,24.5985352 C67.6493244,18.6566893 67.645058,12.7152305 67.6446702,6.77377162 C67.6442823,4.74257313 68.3711111,3.11320121 70.2106783,2.07960106 C70.3859859,1.98127355 70.5042798,1.78190873 70.7854703,1.48499063 C68.3199151,1.45634404 66.657207,2.54994719 65.2547455,4.20719148 C64.1889369,3.3884408 63.2899032,2.39393938 61.6981715,2.21160767 C61.9588059,2.5046546 62.0685671,2.65524279 62.2039264,2.77641015" id="Fill-1" fill="#E7473F" mask="url(#mask-2)"></path>
                    </g>
                </g>
            </g>
        </g>
    </g>
</svg>