<?xml version="1.0" encoding="UTF-8"?>
<svg width="750px" height="550px" viewBox="0 0 750 550" version="1.1" xmlns="http://www.w3.org/2000/svg" xmlns:xlink="http://www.w3.org/1999/xlink">
    <title>Ribena</title>
    <defs>
        <polygon id="path-1" points="0 1 745 1 745 550 0 550"/>
    </defs>
    <g id="Ribena" stroke="none" stroke-width="1" fill="none" fill-rule="evenodd">
        <g id="Group" transform="translate(2.000000, 0.000000)">
            <path d="M448.938226,76.6920574 L448.938226,2 L296.061774,2 L296.061774,76.6920574 C127.55975,99.3336967 1,195.323819 1,310.308736 C1,442.134008 167.325818,549 372.502053,549 C577.674182,549 744,442.134008 744,310.308736 C744,195.323819 617.441276,99.3336967 448.938226,76.6920574 M373.002054,534 C184.117556,534 31,434.023053 31,310.693032 C31,204.536442 144.457656,115.684699 296.513123,93 L296.513123,116.961901 C296.513123,160.901121 330.758832,196.523132 373.002054,196.523132 C415.244249,196.523132 449.486877,160.901121 449.486877,116.961901 L449.486877,93 C601.539262,115.684699 715,204.536442 715,310.693032 C715,434.023053 561.880389,534 373.002054,534" id="Fill-1" fill="#7F3D85"/>
            <g id="Group-4">
                <mask id="mask-2" fill="white">
                    <use xlink:href="#path-1"/>
                </mask>
                <g id="Clip-3"/>
                <path d="M374.020056,550 L370.994318,550 C294.490472,549.804928 223.426179,534.780287 164.381675,509.149897 C104.951124,483.349076 57.6882098,446.803901 29.3528437,403.762834 C10.4643109,375.070842 0,343.48152 0,310.319302 C0,252.453799 31.8487954,199.437372 84.7155371,158.110883 C137.423137,116.906571 211.047039,87.2535934 295.121904,75.8285421 L295.121904,1 L449.881176,1 L449.881176,75.8285421 C533.955015,87.2535934 607.58405,116.906571 660.28549,158.110883 C712.976662,199.293634 744.784389,252.084189 745,309.714579 L745,310.931211 C744.876794,343.868583 734.424804,375.24846 715.656397,403.762834 C696.764784,432.456879 669.454082,458.26386 635.746927,479.925051 C568.661166,523.029774 476.185694,549.735113 374.020056,550 M36.9587714,413.013347 C96.7117113,493.477413 224.50218,549.075975 372.503594,549.075975 C543.37618,549.075975 687.30871,474.958932 730.697817,374.033881 C739.424921,353.749487 744.075954,332.389117 744.075954,310.321355 C744.075954,310.319302 744.075954,310.319302 744.075954,310.319302 C744.075954,310.256674 744.075954,310.198152 744.075954,310.135524 C744.075954,310.12731 744.075954,310.105749 744.075954,310.098563 C744.075954,310.049281 744.075954,310 744.075954,309.950719 C744.075954,309.934292 744.075954,309.917864 744.075954,309.902464 C744.075954,309.86037 744.075954,309.804928 744.075954,309.762834 C744.075954,309.746407 744.075954,309.73306 744.075954,309.716632 C744.075954,309.674538 744.075954,309.616016 744.075954,309.573922 C744.075954,309.557495 744.075954,309.546201 744.075954,309.530801 C744.075954,309.474333 744.075954,309.428131 744.075954,309.371663 C744.075954,309.36345 744.075954,309.35729 744.075954,309.350103 C744.004083,298.156057 742.74122,287.154004 740.348967,276.373717 L740.348967,276.371663 C740.3387,276.317248 740.328433,276.25154 740.307898,276.198152 C740.307898,276.189938 740.307898,276.176591 740.307898,276.169405 C740.297631,276.12115 740.287364,276.069815 740.277097,276.022587 C740.26683,276.007187 740.26683,275.99692 740.26683,275.980493 C740.256562,275.933265 740.246295,275.89117 740.236028,275.843943 C740.225761,275.828542 740.225761,275.813142 740.225761,275.797741 C740.215494,275.750513 740.205226,275.712526 740.194959,275.665298 C740.184692,275.64271 740.184692,275.641684 740.184692,275.61807 C740.174425,275.570842 740.164158,275.530801 740.153891,275.483573 C740.143623,275.468172 740.143623,275.453799 740.143623,275.438398 C740.133356,275.383984 740.112822,275.321355 740.102555,275.267967 C740.102555,275.244353 740.092287,275.221766 740.08202,275.198152 C740.08202,275.164271 740.071753,275.129363 740.061486,275.096509 C740.051219,275.064682 740.051219,275.041068 740.040952,275.00924 C740.040952,274.982546 740.030684,274.950719 740.020417,274.922998 C740.01015,274.88501 740.01015,274.868583 739.999883,274.829569 C739.999883,274.802875 739.989616,274.780287 739.979348,274.753593 C739.979348,274.722793 739.969081,274.685832 739.958814,274.655031 C739.958814,274.634497 739.948547,274.603696 739.948547,274.584189 C739.93828,274.545175 739.928013,274.517454 739.917745,274.478439 C739.917745,274.457906 739.907478,274.443532 739.907478,274.422998 C739.897211,274.383984 739.886944,274.342916 739.876677,274.303901 C739.876677,274.297741 739.876677,274.295688 739.876677,274.288501 C739.825341,274.080082 739.774005,273.865503 739.722669,273.658111 L739.722669,273.654004 C739.712402,273.600616 739.702135,273.549281 739.6816,273.494867 L739.6816,273.492813 C716.026015,175.276181 599.20603,96.8429158 449.062882,76.6386037 L449.881176,76.6386037 L449.062882,76.6386037 C449.027974,76.6344969 448.991012,76.6293634 448.955077,76.62423 L448.955077,1.92607803 L296.048004,1.92607803 L296.048004,76.62423 C146.030115,96.7823409 29.264546,175.068789 5.40361736,273.146817 C5.40259064,273.154004 5.39745705,273.172485 5.39643033,273.179671 C5.38513643,273.225873 5.37692268,273.259754 5.36562879,273.305955 C5.36254863,273.319302 5.35844176,273.335729 5.3553616,273.349076 C5.34612114,273.387064 5.33585396,273.429158 5.3266135,273.468172 C5.32147991,273.48768 5.31737303,273.507187 5.31223944,273.527721 C5.30299898,273.565708 5.29581195,273.593429 5.28657149,273.631417 C5.28041118,273.658111 5.27425087,273.683778 5.26809057,273.710472 C5.26090354,273.741273 5.25371651,273.768994 5.24652949,273.799795 C5.23728902,273.839836 5.230102,273.86961 5.21983482,273.910678 C5.21675466,273.926078 5.20956763,273.954825 5.20648748,273.970226 C5.19314014,274.023614 5.17773937,274.089322 5.16541876,274.143737 C5.16336532,274.150924 5.16028517,274.164271 5.15823173,274.171458 C5.14693783,274.218686 5.1335905,274.275154 5.1222966,274.322382 C5.12126988,274.329569 5.11510957,274.356263 5.11305613,274.36345 C5.10176223,274.410678 5.09252177,274.451745 5.08122787,274.498973 C5.07814772,274.514374 5.07301413,274.535934 5.06890725,274.551335 C5.05761336,274.598563 5.05042633,274.632444 5.03913243,274.679671 C5.03502556,274.695072 5.0319454,274.710472 5.02886525,274.725873 C5.01757135,274.773101 5.00730417,274.818275 4.99601027,274.865503 C4.99293012,274.880903 4.99087668,274.887064 4.98676981,274.902464 C4.97444919,274.956879 4.96212857,275.011294 4.94980796,275.065708 L4.9467278,275.075975 C4.87588425,275.386037 4.80709414,275.687885 4.73727731,275.997947 L4.73625059,276.005133 C2.29471495,286.901437 1.00002343,298.030801 0.927126443,309.350103 C0.927126443,309.358316 0.927126443,309.361396 0.927126443,309.36961 C0.927126443,309.425051 0.927126443,309.478439 0.927126443,309.533881 C0.927126443,309.550308 0.927126443,309.554415 0.927126443,309.569815 C0.927126443,309.619097 0.927126443,309.664271 0.927126443,309.713552 C0.927126443,309.728953 0.927126443,309.74846 0.927126443,309.764887 C0.927126443,309.806982 0.927126443,309.86037 0.927126443,309.902464 C0.927126443,309.918891 0.927126443,309.934292 0.927126443,309.949692 C0.927126443,309.998973 0.927126443,310.049281 0.927126443,310.098563 C0.927126443,310.105749 0.927126443,310.12731 0.927126443,310.135524 C0.927126443,310.198152 0.927126443,310.256674 0.927126443,310.319302 C0.927126443,310.321355 0.927126443,310.321355 0.927126443,310.321355 C0.927126443,347.084189 13.8586409,381.907598 36.9587714,413.013347" id="Fill-2" fill="#7F3D85" mask="url(#mask-2)"/>
            </g>
            <path d="M372.67104,549 C224.613954,549 96.7754164,493.414808 37,412.970092 C96.7754164,493.413781 224.613954,549 372.67104,549 C543.604819,549 687.594572,474.898728 731,374 C687.594572,474.900781 543.607901,549 372.67104,549 M744.5,310.5905 C744.5,310.5275 744.5,310.4725 744.5,310.4095 C744.5,310.4705 744.5,310.5275 744.5,310.5885 M1.5,310.5885 L1.5,310.5885 C1.5,310.5275 1.5,310.4705 1.5,310.4095 C1.5,310.4715 1.5,310.5275 1.5,310.5905 M744.5,310.572 C744.5,310.525 744.5,310.475 744.5,310.428 C744.5,310.476 744.5,310.524 744.5,310.572 M1.5,310.5725 C1.5,310.5245 1.5,310.4755 1.5,310.4275 C1.5,310.4745 1.5,310.5255 1.5,310.5725 M1.4995,309.567 C1.4995,309.526 1.4995,309.474 1.5005,309.433 C1.4995,309.48 1.4995,309.52 1.4995,309.567 M744.5,309.568 C744.5,309.521 744.5,309.479 744.5,309.432 C744.5,309.473 744.5,309.527 744.5,309.568 M744.5,309.5695 C744.5,309.5225 744.5,309.4775 744.5,309.4305 C744.5,309.4715 744.5,309.5285 744.5,309.5695 M1.5,309.57 C1.5,309.522 1.5,309.478 1.5,309.43 C1.5,309.477 1.5,309.523 1.5,309.57 M1.5,309.58 C1.5,309.526 1.5,309.474 1.5,309.42 C1.5,309.467 1.5,309.533 1.5,309.58 M744.5,309.5775 C744.5,309.5305 744.5,309.4695 744.5,309.4225 C744.5,309.4775 744.5,309.5225 744.5,309.5775 M1,309 C1.0733747,297.797802 2.4340437,286.783577 5,276 C2.4340437,286.784593 1.07229566,297.795769 1,309 M744,309 C743.922865,297.798966 742.567493,286.78698 740,276 C742.567493,286.788007 743.922865,297.797939 744,309 M740.52,276.5845 C740.51,276.5245 740.5,276.4755 740.48,276.4155 C740.5,276.4675 740.51,276.5315 740.52,276.5845 M740.515,276.5715 C740.505,276.5255 740.495,276.4735 740.485,276.4285 C740.495,276.4745 740.505,276.5245 740.515,276.5715 M4.398,275.949 C4.466,275.647 4.533,275.353 4.602,275.051 C4.533,275.353 4.466,275.648 4.398,275.949 M740.515,275.5665 C740.505,275.5215 740.495,275.4785 740.485,275.4335 C740.495,275.4795 740.505,275.5205 740.515,275.5665 M740.515,275.5645 C740.505,275.5275 740.495,275.4735 740.485,275.4355 C740.495,275.4815 740.505,275.5185 740.515,275.5645 M740.515,275.5655 C740.505,275.5275 740.495,275.4725 740.485,275.4345 C740.495,275.4805 740.505,275.5195 740.515,275.5655 M740.52,275.583 C740.5,275.523 740.49,275.477 740.48,275.417 C740.49,275.469 740.51,275.53 740.52,275.583 M5.482,274.5795 C5.494,274.5265 5.506,274.4735 5.518,274.4205 C5.506,274.4735 5.494,274.5265 5.482,274.5795 M5.484,274.568 C5.495,274.522 5.505,274.478 5.516,274.432 C5.505,274.477 5.494,274.522 5.484,274.568 M5.4855,274.5625 C5.4965,274.5165 5.5035,274.4835 5.5145,274.4375 C5.5045,274.4825 5.4955,274.5175 5.4855,274.5625 M5.4845,274.566 C5.4955,274.52 5.5045,274.48 5.5155,274.434 C5.5045,274.479 5.4955,274.521 5.4845,274.566 M5.4825,274.5735 C5.4935,274.5275 5.5065,274.4725 5.5175,274.4265 C5.5055,274.4795 5.4955,274.5205 5.4825,274.5735 M5.48,274.5845 C5.492,274.5315 5.507,274.4675 5.52,274.4155 C5.505,274.4755 5.494,274.5245 5.48,274.5845 M5.487,273.554 C5.497,273.514 5.504,273.485 5.513,273.446 C5.504,273.483 5.496,273.516 5.487,273.554 M296,77 L296,2 L449,2 L449,77 C448.692825,76.9587663 448.379485,76.9165017 448.07231,76.875268 L448.07231,2.93085106 L296.926663,2.93085106 L296.926663,76.8762989 C296.620515,76.9175326 296.307175,76.9587663 296,77" id="Fill-5" fill="#7F3D85"/>
            <path d="M730,310.001027 C730,437.580465 570.166507,541 373.000514,541 C175.832465,541 16,437.580465 16,310.001027 C16,182.422615 175.832465,79 373.000514,79 C570.166507,79 730,182.422615 730,310.001027" id="Fill-6" fill="#FFFFFE"/>
            <path d="M744,309.501026 C744,441.218721 577.674182,548 372.502053,548 C167.325818,548 1,441.218721 1,309.501026 C1,177.781279 167.325818,71 372.502053,71 C577.674182,71 744,177.781279 744,309.501026 M373.002054,87 C184.117556,87 31,186.839407 31,310.001025 C31,433.159568 184.117556,533 373.002054,533 C561.880389,533 715,433.159568 715,310.001025 C715,186.839407 561.880389,87 373.002054,87" id="Fill-7" fill="#662970"/>
            <path d="M203.547851,410 C176.699969,410 165.242384,389.623506 156.861011,367.607323 C152.897528,357.451277 150.347523,348.487173 148.098061,340.575986 C144.107909,326.549704 141.469689,317.281993 134.442302,313.930037 C132.937532,313.162328 131.458406,312.24537 131.458406,310.253007 C131.458406,308.339356 132.868807,307.37742 134.077136,307.130035 C160.046979,300.849336 165.366499,283.707238 165.366499,259.899053 C165.366499,235.842461 154.976716,223.647028 134.485383,223.647028 C125.927582,223.647028 119.553595,224.343179 115.544979,225.71606 L115.231101,225.823396 L115.231101,226.962182 L115.508052,227.082807 C121.506616,229.650697 126.201457,245.187864 126.201457,262.450587 L126.201457,390.264456 C126.201457,395.392058 123.841214,397.991638 119.182275,397.991638 L97.9954867,397.991638 C93.3786029,397.991638 90.7301262,394.989292 90.7301262,389.753331 L90.7301262,264.753715 C90.7301262,242.269342 88.9504565,231.576615 84.3797313,226.613595 C84.307929,226.549193 82,224.619187 82,222.312992 C82,219.908662 83.5047697,219.002949 87.2015591,217.373484 C98.0149759,213.757788 119.054057,210 135.481383,210 C177.094882,210 199.090984,227.785093 199.090984,261.431405 C199.090984,284.501526 182.477998,301.500509 152.31593,309.30027 L151.970253,309.388184 L151.970253,310.904179 L152.357985,310.969603 C152.407221,310.975737 157.09283,311.741402 160.243922,312.986501 C172.830854,318.094681 183.837111,333.64207 193.886347,360.517003 C207.185147,395.767224 213.910965,401.923209 230.142374,404.783462 C230.693199,404.894887 232,405.30072 232,406.631689 C232,407.9095 231.451226,408.255021 230.374192,408.479915 C223.240127,409.485809 214.205354,410 203.547851,410 M240.896282,388 C223.246615,388 215.025431,378.468714 215.025431,357.997727 L215.025431,288.55885 C215.025431,273.260212 213.004674,267.659216 206.017596,263.589104 C205.610351,263.377842 205,262.754262 205,261.938811 C205,260.935571 205.420647,260.330362 206.492886,259.785367 C211.587051,257.237975 216.931748,256 222.836277,256 C239.734346,256 246.94412,263.291092 246.94412,280.372701 L246.94412,349.142071 C246.94412,367.022801 254.236374,371.684854 263.773112,375.924384 C264.285518,376.190757 265,376.736773 265,378.224793 C265,381.995871 251.841364,388 240.896282,388 M310.493728,381 C275.575374,381 259.94164,355.569156 259.94164,330.365996 L259.94164,220.378314 C259.94164,207.075222 259.385422,198.048892 251.936626,193.971096 C251.572668,193.798795 251,193.324966 251,192.554739 C251,191.874764 251.566499,191.463498 252.30264,190.993772 L252.702582,190.726089 C255.318143,189.589722 258.834345,189 262.99724,189 C264.548687,189 266.189582,189.082048 267.907586,189.24717 C284.42037,190.843008 291.784859,200.532902 291.784859,220.668559 L291.771494,263.272095 L292.635122,261.848558 C297.710996,253.451949 308.131086,248.44188 320.498453,248.44188 C349.611989,248.44188 365,269.086236 365,308.14016 C365,326.350761 360.201721,344.292655 351.837889,357.367038 C341.95037,372.830049 327.655261,381 310.493728,381 M312.419722,262 C299.012708,262 292.140876,273.680164 292,296.70917 L292,296.712238 L292.005179,333.227324 C292.005179,356.631624 298.699881,369 311.367297,369 C329.459463,369 333,346.583533 333,307.857581 C333,276.146681 330.026073,262 312.419722,262 M638.127729,379 C627.077018,379 591,376.377824 591,342.647572 C591,320.644274 610.866562,307.970424 627.530169,301.211858 C636.902161,297.328862 645.676816,294.703609 650.75417,293.537171 L651.12493,293.456126 L651.12493,293.087831 C651.12493,271.52464 642.02071,259.647907 625.48069,259.647907 C615.295086,259.647907 607.416433,262.305989 601.401881,267.772959 C600.783947,268.334121 600.052726,269.120979 599.414195,269.8073 L599.146423,270.100704 C599.064032,270.190983 598.961043,270.219708 598.858054,270.219708 C598.744767,270.219708 598.652077,270.187905 598.590283,270.166361 C598.25042,270.032996 597.900257,269.647261 597.900257,269.095332 C597.900257,268.971199 597.910556,268.843989 597.951752,268.716778 C601.824135,256.424559 615.233292,244 636.459308,244 C679.570469,244 683,267.272325 683,297.698183 L683,349.864712 C683,368.379982 666.64536,379 638.127729,379 M651,303 L650.417601,303.147358 C636.256098,306.79833 620,314.650548 620,343.233857 C620,362.698495 625.272248,371 637.61503,371 C645.73797,371 651,365.505508 651,357.003061 L651,303 M429.056785,366 C391.228577,366 374,332.89635 374,302.137362 C374,268.886338 395.431597,233 430.058435,233 C454.691402,233 470.613927,245.818377 470.613927,265.654368 C470.613927,288.412232 449.630707,302.391171 408.247363,307.199214 L407.81544,307.248338 L407.839093,307.682269 C409.003228,332.449114 421.799454,347.238604 442.059718,347.238604 C454.255366,347.238604 465.055492,342.685394 470.951238,335.055773 C471.588838,334.244198 472.434173,333.797985 473.334012,333.797985 C473.805014,333.797985 474.21534,333.974014 474.515629,334.306627 C474.829288,334.651521 475,335.152998 475,335.720998 C475,335.994252 474.960921,336.283881 474.87865,336.580673 C470.263247,351.21358 454.301643,366 429.056785,366 M427.661488,243 C409.503039,243 407,269.626808 407,298.40139 L407,299 L407.580099,298.855508 C431.212649,293.018025 442,290.354209 442,269.121086 C442,251.541551 437.310434,243 427.661488,243 M575.247721,364 L571.773876,364 C556.907863,364 549.367576,355.356291 549.367576,338.31034 L549.367576,270.404838 C549.367576,251.082342 542.554753,243.551838 525.053726,243.551838 C521.00261,243.551838 513.554278,244.252707 510.435991,245.753692 L510.172387,245.880564 L510.172387,246.917032 L510.405339,247.050044 C515.548673,250.030527 518.618939,257.862865 518.618939,268.008582 L518.618939,357.502894 C518.618939,362.117374 516.953537,364 512.873813,364 L492.745946,364 C488.652939,364 486.982428,362.117374 486.982428,357.502894 L486.982428,267.525648 C486.982428,265.874257 487.026362,258.628194 487.026362,258.628194 C487.026362,250.144098 486.563524,245.125468 484.11855,242.910313 C482.827097,241.740833 482.118024,241.327474 481.496819,240.963227 C481.142282,240.754501 480.811245,240.563169 480.394384,240.226547 C480.139976,240.024984 480,239.751798 480,239.458149 C480,238.644732 480.996176,237.751508 482.657491,237.068033 C495.894884,232.3717 511.365755,230 528.690025,230 C564.867055,230 581,243.864927 581,274.964067 L581,357.502894 C581,362.117374 579.334598,364 575.247721,364 M238.697878,248 C238.626498,248 238.555118,247.993883 238.482704,247.980629 C237.933389,247.877656 237.449247,247.360754 237.050968,246.443176 C234.995433,241.746197 232.796104,237.323471 228.512275,234.811347 C226.335705,233.535913 223.822925,233.224957 221.389801,232.923175 C219.928065,232.741699 218.416673,232.553086 217.010799,232.156488 C211.494891,230.589469 207.776928,227.421786 205.64691,222.472982 C204.553453,219.93537 204,217.354937 204,214.801012 C204,208.599204 207.259683,202.965276 212.946282,199.34696 C215.409406,197.780961 218.224258,197 221.157041,197 C224.419827,197 227.829511,197.966515 231.063331,199.889351 C239.790301,205.06551 245,215.953082 245,229.009196 C245,232.8253 244.518961,236.681167 243.603437,240.159806 C242.695153,243.629271 241.539626,245.981329 240.069614,247.357695 C240.055131,247.376047 239.413746,248 238.697878,248" id="Fill-8" fill="#FFFFFE"/>
            <path d="M203.547851,410 C176.699969,410 165.242384,389.623506 156.861011,367.607323 C152.897528,357.451277 150.347523,348.487173 148.098061,340.575986 C144.107909,326.549704 141.469689,317.281993 134.442302,313.930037 C132.937532,313.162328 131.458406,312.24537 131.458406,310.253007 C131.458406,308.339356 132.868807,307.37742 134.077136,307.130035 C160.046979,300.849336 165.366499,283.707238 165.366499,259.899053 C165.366499,235.842461 154.976716,223.647028 134.485383,223.647028 C125.927582,223.647028 119.553595,224.343179 115.544979,225.71606 L115.231101,225.823396 L115.231101,226.962182 L115.508052,227.082807 C121.506616,229.650697 126.201457,245.187864 126.201457,262.450587 L126.201457,390.264456 C126.201457,395.392058 123.841214,397.991638 119.182275,397.991638 L97.9954867,397.991638 C93.3786029,397.991638 90.7301262,394.989292 90.7301262,389.753331 L90.7301262,264.753715 C90.7301262,242.269342 88.9504565,231.576615 84.3797313,226.613595 C84.307929,226.549193 82,224.619187 82,222.312992 C82,219.908662 83.5047697,219.002949 87.2015591,217.373484 C98.0149759,213.757788 119.054057,210 135.481383,210 C177.094882,210 199.090984,227.785093 199.090984,261.431405 C199.090984,284.501526 182.477998,301.500509 152.31593,309.30027 L151.970253,309.388184 L151.970253,310.904179 L152.357985,310.969603 C152.407221,310.975737 157.09283,311.741402 160.243922,312.986501 C172.830854,318.094681 183.837111,333.64207 193.886347,360.517003 C207.185147,395.767224 213.910965,401.923209 230.142374,404.783462 C230.693199,404.894887 232,405.30072 232,406.631689 C232,407.9095 231.451226,408.255021 230.374192,408.479915 C223.240127,409.485809 214.205354,410 203.547851,410 M240.896282,388 C223.246615,388 215.025431,378.468714 215.025431,357.997727 L215.025431,288.55885 C215.025431,273.260212 213.004674,267.659216 206.017596,263.589104 C205.610351,263.377842 205,262.754262 205,261.938811 C205,260.935571 205.420647,260.330362 206.492886,259.785367 C211.587051,257.237975 216.931748,256 222.836277,256 C239.734346,256 246.94412,263.291092 246.94412,280.372701 L246.94412,349.142071 C246.94412,367.022801 254.236374,371.684854 263.773112,375.924384 C264.285518,376.190757 265,376.736773 265,378.224793 C265,381.995871 251.841364,388 240.896282,388 M310.493728,381 C275.575374,381 259.94164,355.569156 259.94164,330.365996 L259.94164,220.378314 C259.94164,207.075222 259.385422,198.048892 251.936626,193.971096 C251.572668,193.798795 251,193.324966 251,192.554739 C251,191.874764 251.566499,191.463498 252.30264,190.993772 L252.702582,190.726089 C255.318143,189.589722 258.834345,189 262.99724,189 C264.548687,189 266.189582,189.082048 267.907586,189.24717 C284.42037,190.843008 291.784859,200.532902 291.784859,220.668559 L291.771494,263.272095 L292.635122,261.848558 C297.710996,253.451949 308.131086,248.44188 320.498453,248.44188 C349.611989,248.44188 365,269.086236 365,308.14016 C365,326.350761 360.201721,344.292655 351.837889,357.367038 C341.95037,372.830049 327.655261,381 310.493728,381 M312.419722,262 C299.012708,262 292.140876,273.680164 292,296.70917 L292,296.712238 L292.005179,333.227324 C292.005179,356.631624 298.699881,369 311.367297,369 C329.459463,369 333,346.583533 333,307.857581 C333,276.146681 330.026073,262 312.419722,262 M638.127729,379 C627.077018,379 591,376.377824 591,342.647572 C591,320.644274 610.866562,307.970424 627.530169,301.211858 C636.902161,297.328862 645.676816,294.703609 650.75417,293.537171 L651.12493,293.456126 L651.12493,293.087831 C651.12493,271.52464 642.02071,259.647907 625.48069,259.647907 C615.295086,259.647907 607.416433,262.305989 601.401881,267.772959 C600.783947,268.334121 600.052726,269.120979 599.414195,269.8073 L599.146423,270.100704 C599.064032,270.190983 598.961043,270.219708 598.858054,270.219708 C598.744767,270.219708 598.652077,270.187905 598.590283,270.166361 C598.25042,270.032996 597.900257,269.647261 597.900257,269.095332 C597.900257,268.971199 597.910556,268.843989 597.951752,268.716778 C601.824135,256.424559 615.233292,244 636.459308,244 C679.570469,244 683,267.272325 683,297.698183 L683,349.864712 C683,368.379982 666.64536,379 638.127729,379 M651,303 L650.417601,303.147358 C636.256098,306.79833 620,314.650548 620,343.233857 C620,362.698495 625.272248,371 637.61503,371 C645.73797,371 651,365.505508 651,357.003061 L651,303 M429.056785,366 C391.228577,366 374,332.89635 374,302.137362 C374,268.886338 395.431597,233 430.058435,233 C454.691402,233 470.613927,245.818377 470.613927,265.654368 C470.613927,288.412232 449.630707,302.391171 408.247363,307.199214 L407.81544,307.248338 L407.839093,307.682269 C409.003228,332.449114 421.799454,347.238604 442.059718,347.238604 C454.255366,347.238604 465.055492,342.685394 470.951238,335.055773 C471.588838,334.244198 472.434173,333.797985 473.334012,333.797985 C473.805014,333.797985 474.21534,333.974014 474.515629,334.306627 C474.829288,334.651521 475,335.152998 475,335.720998 C475,335.994252 474.960921,336.283881 474.87865,336.580673 C470.263247,351.21358 454.301643,366 429.056785,366 M427.661488,243 C409.503039,243 407,269.626808 407,298.40139 L407,299 L407.580099,298.855508 C431.212649,293.018025 442,290.354209 442,269.121086 C442,251.541551 437.310434,243 427.661488,243 M575.247721,364 L571.773876,364 C556.907863,364 549.367576,355.356291 549.367576,338.31034 L549.367576,270.404838 C549.367576,251.082342 542.554753,243.551838 525.053726,243.551838 C521.00261,243.551838 513.554278,244.252707 510.435991,245.753692 L510.172387,245.880564 L510.172387,246.917032 L510.405339,247.050044 C515.548673,250.030527 518.618939,257.862865 518.618939,268.008582 L518.618939,357.502894 C518.618939,362.117374 516.953537,364 512.873813,364 L492.745946,364 C488.652939,364 486.982428,362.117374 486.982428,357.502894 L486.982428,267.525648 C486.982428,265.874257 487.026362,258.628194 487.026362,258.628194 C487.026362,250.144098 486.563524,245.125468 484.11855,242.910313 C482.827097,241.740833 482.118024,241.327474 481.496819,240.963227 C481.142282,240.754501 480.811245,240.563169 480.394384,240.226547 C480.139976,240.024984 480,239.751798 480,239.458149 C480,238.644732 480.996176,237.751508 482.657491,237.068033 C495.894884,232.3717 511.365755,230 528.690025,230 C564.867055,230 581,243.864927 581,274.964067 L581,357.502894 C581,362.117374 579.334598,364 575.247721,364 M238.697878,248 C238.626498,248 238.555118,247.993883 238.482704,247.980629 C237.933389,247.877656 237.449247,247.360754 237.050968,246.443176 C234.995433,241.746197 232.796104,237.323471 228.512275,234.811347 C226.335705,233.535913 223.822925,233.224957 221.389801,232.923175 C219.928065,232.741699 218.416673,232.553086 217.010799,232.156488 C211.494891,230.589469 207.776928,227.421786 205.64691,222.472982 C204.553453,219.93537 204,217.354937 204,214.801012 C204,208.599204 207.259683,202.965276 212.946282,199.34696 C215.409406,197.780961 218.224258,197 221.157041,197 C224.419827,197 227.829511,197.966515 231.063331,199.889351 C239.790301,205.06551 245,215.953082 245,229.009196 C245,232.8253 244.518961,236.681167 243.603437,240.159806 C242.695153,243.629271 241.539626,245.981329 240.069614,247.357695 C240.055131,247.376047 239.413746,248 238.697878,248" id="Fill-9" fill="#801C3A"/>
            <path d="M297,2 L297,116.529663 C297,160.418686 331.028404,196 373.003572,196 C414.974658,196 449,160.418686 449,116.529663 L449,2 L297,2" id="Fill-10" fill="#662970"/>
            <path d="M344,106.108208 L344,112 L323,112 L323,79 L343.57204,79 L343.57204,84.8917916 L329.616835,84.8917916 L329.616835,92.7475138 L341.858134,92.7475138 L341.858134,98.7339527 L329.616835,98.7339527 L329.616835,106.108208 L344,106.108208 Z M349,102.804235 L355.455167,102.804235 C355.503573,105.207795 357.735301,107.179603 360.707239,107.179603 C363.589424,107.179603 365.493401,105.641614 365.493401,103.284534 C365.493401,101.459398 364.193493,100.161041 361.455518,99.2923717 L357.548735,98.1396543 C350.530846,96.2153598 349.279344,91.8389586 349.279344,88.8611052 C349.279344,82.9456816 354.203666,79 360.338142,79 C366.37984,79 371.023808,82.7979767 371.023808,89.1007382 L364.565616,89.1007382 C364.565616,86.7426254 362.986364,84.9154236 360.196957,84.9154236 C357.68992,84.9154236 355.782918,86.4998937 355.782918,88.7154662 C355.782918,89.5314579 356.014864,91.2636328 359.358925,92.2273293 L362.937958,93.2829541 C367.769501,94.6763375 372,97.3236625 372,102.948841 C372,109.537716 366.562371,113 360.523699,113 C353.693384,113 349,108.673178 349,102.804235 Z M399,84.8917916 L389.848354,84.8917916 L389.848354,112 L383.152691,112 L383.152691,84.8917916 L374,84.8917916 L374,79 L399,79 L399,84.8917916 Z M403,80 L411.800042,80 C418.252132,80 422,85.0078506 422,91.5499867 C422,98.0584583 418.252132,103 411.800042,103 L403,103 L403,80 Z M411.295839,99 C415.067227,99 417,95.5456238 417,91.5501759 C417,87.556797 415.067227,84 411.295839,84 L407,84 L407,99 L411.295839,99 Z M337,121 L337,154 L330.471845,154 L330.471845,129.845813 L323,132.728274 L323,126.614533 L336.45625,121 L337,121 Z M367,136.396909 C367,145.907916 362.500449,154 353.596843,154 C349.436144,154 345.323707,151.989602 343.389167,147.626698 L348.517135,144.78267 C349.53472,146.938361 351.468233,148.017237 353.550635,148.017237 C357.512129,148.017237 360.322552,144.438501 360.564883,139.436721 C359.015402,141.004028 356.740983,142.132365 353.694391,142.132365 C347.259274,142.132365 343,137.376862 343,131.784637 C343,125.657611 347.648441,121 354.707868,121 C362.114363,121 367,127.274379 367,136.396909 Z M361,132.101348 C361,129.172344 358.740091,127.047755 355.527183,127 C352.259909,127 350,129.068343 350,132.000531 C350,134.878595 352.208741,136.949061 355.323578,137 C358.58872,137 360.945634,134.976228 361,132.101348 Z M393,144.241686 C393,150.027635 388.181594,154 381.349817,154 C376.875656,154 373.266704,152.038033 371,148.361405 L375.432279,144.878501 C376.924688,146.938361 378.752147,148.116159 381.060733,148.116159 C384.380601,148.116159 386.549241,146.351007 386.549241,143.750164 C386.549241,141.053489 384.335655,139.190445 381.108743,139.190445 L378.075916,139.190445 L378.075916,134.238126 L379.857408,134.238126 C383.274319,134.238126 385.247853,132.375082 385.1028,130.121499 C385.007801,128.15644 383.372382,126.930211 381.060733,126.930211 C379.090263,126.930211 376.924688,127.960656 375.718299,129.531054 L372.254399,125.510258 C374.469007,122.858923 377.740865,121 381.784975,121 C387.31945,121 391.651623,124.430351 391.553559,129.875222 C391.553559,132.571897 389.963087,134.923372 387.413428,136.248525 C390.834424,137.521124 393,140.466136 393,144.241686 Z M422,143.946979 C422,149.979204 416.499458,154 409.525017,154 C402.553702,154 397,149.979204 397,143.946979 C397,139.876721 399.551701,136.592693 403.041528,135.513817 C401.074591,134.582295 399.457889,132.226698 399.457889,129.235316 C399.457889,124.282998 403.828511,121 409.525017,121 C415.221523,121 419.592145,124.282998 419.592145,129.235316 C419.592145,132.226698 417.972315,134.582295 416.008506,135.513817 C419.495205,136.592693 422,139.876721 422,143.946979 Z M416,143.049412 C416,140.079476 413.428801,138 410.001605,138 C406.571199,138 404,140.128368 404,142.99948 C404,145.870592 406.524119,148 410.001605,148 C413.58074,148 416,145.82066 416,143.049412 Z M406,129.522751 C406,131.440212 407.691261,133 410,133 C412.308739,133 414,131.440212 414,129.522751 C414,127.610582 412.308739,126 410,126 C407.691261,126 406,127.610582 406,129.522751 Z M402,111 L421,111 L421,107 L402,107 L402,111 Z" id="Fill-11" fill="#FFFFFE"/>
            <path d="M381.462951,32.3068448 C392.439315,22.3968532 406.137179,25.4891004 410.555675,32.5077087 C414.969968,39.5316029 412.829545,47.052371 408.694758,50.2154491 C404.562072,53.3753558 401.4707,54.6270551 397.219277,54.9473802 C393.891482,55.1989887 390.563687,53.8669438 386.188273,54.1862117 C376.229056,54.9135505 372.12369,64 372.12369,64 C372.12369,64 370.207082,42.463159 381.462951,32.3068448 Z M364,21.5020781 C364,25.6427681 367.136347,29 371.002524,29 C374.867691,29 378,25.6427681 378,21.5020781 C378,17.3603491 374.867691,14 371.002524,14 C367.136347,14 364,17.3603491 364,21.5020781 Z M335.819932,47.0812782 C339.456544,50.0253928 343.631572,50.8064199 348.978807,47.8086229 C357.80882,42.8593106 365,54 365,54 C365,54 365,37.5184322 351.965218,29.9155222 C345.363731,26.0693318 338.257672,28.4682009 335.264082,33.1027867 C332.270492,37.733162 332.038717,44.0182202 335.819932,47.0812782 L335.819932,47.0812782 Z" id="Fill-12" fill="#FFFFFE"/>
        </g>
    </g>
</svg>