<?xml version="1.0" encoding="UTF-8" standalone="no"?>
<svg
   xmlns:dc="http://purl.org/dc/elements/1.1/"
   xmlns:cc="http://creativecommons.org/ns#"
   xmlns:rdf="http://www.w3.org/1999/02/22-rdf-syntax-ns#"
   xmlns:svg="http://www.w3.org/2000/svg"
   xmlns="http://www.w3.org/2000/svg"
   width="1024"
   height="1024"
   viewBox="0 0 270.93333 270.93334"
   version="1.1"
   id="svg8">
  <defs
     id="defs2" />
  <metadata
     id="metadata5">
    <rdf:RDF>
      <cc:Work
         rdf:about="">
        <dc:format>image/svg+xml</dc:format>
        <dc:type
           rdf:resource="http://purl.org/dc/dcmitype/StillImage" />
        <dc:title></dc:title>
      </cc:Work>
    </rdf:RDF>
  </metadata>
  <g
     id="layer1">
    <g
       id="g879"
       transform="matrix(1.0315439,0,0,1.0315439,-4.2731484,-4.2731465)"
       style="fill:#008080;fill-opacity:1">
      <path
         id="path839"
         style="color:#000000;text-indent:0;text-transform:none;direction:ltr;baseline-shift:baseline;stroke-width:2.43056;enable-background:accumulate;fill:#008080;fill-opacity:1"
         d="m 128.17461,28.521833 c -2.83566,0 -5.21219,0.980115 -7.5954,2.886644 -2.38321,1.906532 -4.55734,5.215604 -4.55734,9.266619 v 12.15223 c 0.0879,3.185977 1.629,4.272727 3.56981,5.544881 -1.9034,5.189003 -6.03703,10.465517 -8.8868,14.886947 -5.58264,8.684387 -11.69696,19.064338 -11.696962,30.609496 v 46.18013 c 0.371736,10.45553 7.191242,19.86637 7.291542,29.16618 -0.19609,14.44506 -7.179473,26.30193 -7.291542,38.88858 -0.01118,12.08645 4.933752,24.50917 14.583092,24.30549 4.57402,-0.21389 8.27821,-2.28062 11.92485,-4.40541 3.03378,2.30441 5.97514,4.34683 9.9503,4.40541 3.99174,-0.15556 7.22602,-2.23324 10.02626,-4.55734 3.73419,2.19212 8.22033,4.49779 11.84889,4.55734 9.58423,-0.1507 14.61384,-12.09144 14.58309,-24.30549 0.10135,-14.4137 -7.24872,-24.28165 -7.29155,-38.88858 0.37474,-9.50179 7.16657,-19.94415 7.29155,-29.16618 v -46.18013 c 0,-11.545158 -6.11433,-21.925109 -11.69696,-30.609496 -3.06236,-5.010356 -7.05739,-9.950722 -8.8868,-14.886947 2.33404,-0.790176 3.5816,-2.515431 3.56981,-5.544881 v -12.15223 c 0,-4.051015 -2.17412,-7.360087 -4.55735,-9.266619 -2.38321,-1.906529 -4.75974,-2.886644 -7.5954,-2.886644 z m -0.10335,9.720853 c 0.0656,-7.91e-4 0.10335,0.0016 0.10335,0.0016 h 14.58309 c 0,0 2.31189,-0.157686 2.43086,2.43086 v 9.645922 c -6.58611,0.07778 -13.60753,0.150696 -19.44481,0 v -9.645922 c 0.0308,-2.263064 1.86854,-2.42687 2.32751,-2.43241 z m 1.69809,21.876183 h 11.39362 c 2.72923,6.680394 7.3175,12.881682 10.86135,18.381308 4.29274,6.677234 8.17201,13.844868 9.57047,20.507275 l 0.60772,9.721888 v 34.0279 l -0.22789,9.72188 c -2.26162,9.15737 -6.96855,17.29943 -7.06417,26.73584 -0.051,12.39439 7.16793,25.98742 7.29206,38.88858 -0.0527,5.61338 -1.03422,11.74359 -5.31699,14.50712 -4.36611,0.175 -8.57033,-4.67826 -11.69696,-4.78472 -3.98679,0.14827 -6.31666,4.66527 -9.7224,4.86069 -3.43783,-0.13611 -6.04812,-4.80576 -9.72241,-4.86069 -3.69985,0.16042 -7.5758,4.91743 -11.69696,4.78472 -4.01097,-3.04256 -5.24197,-9.48704 -5.31698,-14.50712 -0.21048,-13.72974 7.14011,-26.29342 7.29206,-38.88858 -0.39788,-9.33627 -5.59631,-17.95982 -7.06417,-26.73584 l -0.22789,-9.72188 v -34.0279 l 0.60771,-9.721888 c 1.39848,-6.662407 5.27774,-13.830041 9.57048,-20.507275 3.70749,-6.398448 8.57382,-11.860358 10.86135,-18.381308 z" />
      <text
         xml:space="preserve"
         style="font-style:normal;font-variant:normal;font-weight:bold;font-stretch:normal;font-size:69.6474px;line-height:1.25;font-family:Quicksand;-inkscape-font-specification:'Quicksand, Bold';font-variant-ligatures:normal;font-variant-caps:normal;font-variant-numeric:normal;font-variant-east-asian:normal;fill:#008080;fill-opacity:1;stroke:none;stroke-width:1.74119"
         x="117.6778"
         y="151.71135"
         id="text867"><tspan
           id="tspan865"
           x="117.6778"
           y="151.71135"
           style="font-style:normal;font-variant:normal;font-weight:bold;font-stretch:normal;font-size:69.6474px;font-family:Quicksand;-inkscape-font-specification:'Quicksand, Bold';font-variant-ligatures:normal;font-variant-caps:normal;font-variant-numeric:normal;font-variant-east-asian:normal;stroke-width:1.74119;fill:#008080;fill-opacity:1">?</tspan></text>
    </g>
  </g>
</svg>
