<?xml version="1.0" encoding="UTF-8" standalone="no"?>
<svg
   xmlns:dc="http://purl.org/dc/elements/1.1/"
   xmlns:cc="http://creativecommons.org/ns#"
   xmlns:rdf="http://www.w3.org/1999/02/22-rdf-syntax-ns#"
   xmlns:svg="http://www.w3.org/2000/svg"
   xmlns="http://www.w3.org/2000/svg"
   width="349.09296"
   height="1024.0001"
   viewBox="0 0 92.364177 270.93337"
   version="1.1"
   id="svg8">
  <defs
     id="defs2" />
  <metadata
     id="metadata5">
    <rdf:RDF>
      <cc:Work
         rdf:about="">
        <dc:format>image/svg+xml</dc:format>
        <dc:type
           rdf:resource="http://purl.org/dc/dcmitype/StillImage" />
        <dc:title></dc:title>
      </cc:Work>
    </rdf:RDF>
  </metadata>
  <path
     id="path839"
     style="color:#000000;text-indent:0;text-transform:none;direction:ltr;baseline-shift:baseline;fill:#008080;fill-opacity:1;stroke-width:3.07877;enable-background:accumulate"
     d="M 36.945572,0 C 33.35365,0 30.343258,1.2416304 27.324455,3.6566242 24.30565,6.071622 21.55168,10.263002 21.55168,15.394409 v 15.393375 c 0.111342,4.035666 2.063271,5.411912 4.521688,7.023343 C 23.662338,44.38402 18.426484,51.067763 14.81669,56.668376 7.7451792,67.668859 2.6493631e-5,80.817505 2.3960238e-5,95.441719 V 153.93789 C 0.47090072,167.18188 9.1091028,179.10236 9.2361526,190.8824 8.987766,209.17991 0.14198139,224.19898 2.3960238e-5,240.14244 -0.0141377,255.45232 6.2494939,271.18823 18.472281,270.93023 c 5.793896,-0.27093 10.486351,-2.88909 15.105537,-5.58053 3.84288,2.91898 7.56856,5.50632 12.603882,5.58053 5.056325,-0.19706 9.152946,-2.82884 12.7,-5.77278 4.730086,2.77675 10.412619,5.69735 15.008902,5.77278 12.140314,-0.19089 18.51121,-15.31629 18.472258,-30.78779 0.128381,-18.25777 -9.181877,-30.75749 -9.236127,-49.26004 0.474681,-12.03589 9.077817,-25.26299 9.236127,-36.94451 V 95.441719 c 0,-14.624214 -7.74465,-27.77286 -14.81615,-38.773343 -3.87908,-6.346603 -8.939885,-12.604549 -11.257193,-18.857249 2.956521,-1.000913 4.537139,-3.185948 4.522206,-7.023343 V 15.394409 c 0,-5.131407 -2.753948,-9.322787 -5.772775,-11.7377848 C 62.020142,1.2416304 59.00975,0 55.417828,0 Z M 55.54392,12.312943 c 0.562587,0.0066 2.82093,0.212427 2.95279,3.081466 v 12.218375 c -8.342603,0.09852 -17.236474,0.190886 -24.630536,0 V 15.394409 c 0.03901,-2.866615 2.366764,-3.073931 2.948139,-3.080949 0.0831,-10e-4 0.131259,0.0021 0.131259,0.0021 h 18.472256 c 0,0 0.04572,-0.0035 0.126092,-0.0026 z M 38.965603,40.023912 h 14.432195 c 3.457106,8.462034 9.268833,16.316976 13.757817,23.283333 5.4376,8.458031 10.351349,17.537461 12.122774,25.976709 l 0.769977,12.314496 v 43.10331 l -0.288353,12.31449 c -2.864787,11.59961 -8.827169,21.91308 -8.94829,33.86615 -0.0646,15.69993 9.079409,32.91819 9.236643,49.26004 -0.06676,7.11045 -1.310018,14.87559 -6.734989,18.37614 -5.530536,0.22167 -10.856175,-5.92575 -14.816667,-6.06061 -5.050052,0.18782 -8.000971,5.9092 -12.31501,6.15673 -4.354687,-0.17241 -7.661314,-6.08715 -12.315526,-6.15673 -4.686588,0.20321 -9.596408,6.22872 -14.816667,6.06061 -5.080683,-3.85399 -6.639975,-12.01722 -6.734989,-18.37614 -0.266615,-17.3914 9.044687,-33.3058 9.237162,-49.26004 -0.503993,-11.82623 -7.088958,-22.7496 -8.948291,-33.86615 L 12.314518,144.70176 V 101.59845 L 13.084496,89.283954 C 14.855946,80.844706 19.769672,71.765276 25.20727,63.307245 29.903536,55.202354 36.067997,48.283979 38.965603,40.023912 Z m 5.504058,50.735404 c -3.234815,0 -6.293228,0.617487 -9.175152,1.852602 -2.823112,1.176298 -5.29359,2.852491 -7.410916,5.028634 -1.235114,1.235112 -1.793501,2.587788 -1.675867,4.058148 0.117626,1.47037 0.881845,2.73491 2.293399,3.79357 1.352741,0.99985 2.67638,1.32338 3.970301,0.97048 1.35274,-0.4117 2.499579,-1.0292 3.440618,-1.8526 1.176295,-0.99986 2.470377,-1.79363 3.881932,-2.38177 1.470366,-0.58815 3.028868,-0.88211 4.675685,-0.88211 2.117333,0 3.999359,0.44069 5.646166,1.32292 1.705633,0.88221 3.028746,2.08815 3.969784,3.61734 0.999845,1.52918 1.500166,3.29352 1.500166,5.29322 0,2.70548 -0.588454,4.88147 -1.764749,6.52829 -1.117481,1.6468 -2.646434,2.85275 -4.587317,3.61734 -1.940891,0.70579 -4.117398,1.05886 -6.5288,1.05886 -1.529183,0 -2.793714,0.52935 -3.793567,1.58801 -0.999847,0.99986 -1.49965,2.26387 -1.49965,3.79305 v 6.70502 c 0,1.52919 0.500319,2.82327 1.500166,3.88193 0.999855,0.99984 2.263868,1.49965 3.793051,1.49965 1.529181,0 2.793712,-0.49981 3.793567,-1.49965 0.999855,-1.05866 1.500166,-2.35274 1.500166,-3.88193 v -3.26388 c 0,-0.11765 0.02908,-0.2063 0.08785,-0.26511 0.117633,-0.0588 0.235325,-0.11741 0.352949,-0.17621 2.529038,-0.4117 4.852267,-1.0883 6.969601,-2.02933 2.176142,-0.99985 4.058168,-2.29342 5.646168,-3.88142 1.646815,-1.64681 2.911346,-3.58794 3.793567,-5.8229 0.882219,-2.29378 1.323433,-4.91098 1.323433,-7.85172 0,-3.94059 -0.970566,-7.46925 -2.911452,-10.58643 -1.94089,-3.117183 -4.558093,-5.587662 -7.851716,-7.410918 -3.234815,-1.882077 -6.881167,-2.823086 -10.939383,-2.823086 z M 42.26411,143.9571 c -1.705623,0 -3.029262,0.47078 -3.9703,1.4118 -0.882222,0.88223 -1.322917,2.17631 -1.322917,3.88194 v 1.49965 c 0,1.70562 0.440695,3.02875 1.322917,3.96978 0.941038,0.88222 2.264677,1.32343 3.9703,1.32343 h 1.146702 c 1.705631,0 2.99971,-0.44121 3.881932,-1.32343 0.941027,-0.94103 1.411282,-2.26416 1.411282,-3.96978 v -1.49965 c 0,-1.70563 -0.470255,-2.99971 -1.411282,-3.88194 -0.882222,-0.94102 -2.176301,-1.4118 -3.881932,-1.4118 z" />
</svg>
